/* XPM */
const static char * icon_xpm[] = {
"16 16 103 2",
"  	c None",
". 	c #BFBFBF",
"+ 	c #C3C2C2",
"@ 	c #957E7E",
"# 	c #804949",
"$ 	c #8A3B3B",
"% 	c #884545",
"& 	c #E7E6E6",
"* 	c #D1C0C0",
"= 	c #C9B0B0",
"- 	c #E8E2E2",
"; 	c #FFFFFF",
"> 	c #B99292",
", 	c #911919",
"' 	c #901D1D",
") 	c #824646",
"! 	c #CCCCCC",
"~ 	c #D0BBBB",
"{ 	c #933535",
"] 	c #941515",
"^ 	c #8E1E1E",
"/ 	c #B58C8C",
"( 	c #9F6060",
"_ 	c #843A3A",
": 	c #E9E2E2",
"< 	c #932A2A",
"[ 	c #921515",
"} 	c #974A4A",
"| 	c #911616",
"1 	c #824747",
"2 	c #EFEFEF",
"3 	c #BF9898",
"4 	c #973737",
"5 	c #B37F7F",
"6 	c #A36868",
"7 	c #775151",
"8 	c #FDFDFD",
"9 	c #B68686",
"0 	c #A45E5E",
"a 	c #AB7575",
"b 	c #8F4444",
"c 	c #D7CACA",
"d 	c #CBB3B3",
"e 	c #931515",
"f 	c #871F1F",
"g 	c #AA8A8A",
"h 	c #CEB8B8",
"i 	c #911818",
"j 	c #8C3B3B",
"k 	c #8A2929",
"l 	c #AF7E7E",
"m 	c #9F5B5B",
"n 	c #974343",
"o 	c #FBFAFA",
"p 	c #F0EDED",
"q 	c #943535",
"r 	c #892626",
"s 	c #901C1C",
"t 	c #D3C0C0",
"u 	c #FAF9F9",
"v 	c #B98F8F",
"w 	c #9E5252",
"x 	c #A15555",
"y 	c #C5A3A3",
"z 	c #F5F3F3",
"A 	c #A56B6B",
"B 	c #912222",
"C 	c #B78D8D",
"D 	c #FAFAFA",
"E 	c #E4E0E0",
"F 	c #C7AEAE",
"G 	c #8D3A3A",
"H 	c #884646",
"I 	c #8B2323",
"J 	c #9B4A4A",
"K 	c #A05656",
"L 	c #883131",
"M 	c #CFBDBD",
"N 	c #EBE7E7",
"O 	c #913030",
"P 	c #884444",
"Q 	c #9E6262",
"R 	c #8F2121",
"S 	c #834747",
"T 	c #974242",
"U 	c #F8F7F7",
"V 	c #B79D9D",
"W 	c #881414",
"X 	c #8B1414",
"Y 	c #8E1414",
"Z 	c #7E4444",
"` 	c #853A3A",
" .	c #911D1D",
"..	c #DACBCB",
"+.	c #F4F4F4",
"@.	c #AFA7A7",
"#.	c #943333",
"$.	c #B68585",
"%.	c #A87D7D",
"&.	c #928686",
"*.	c #882323",
"=.	c #8A3232",
"-.	c #873F3F",
"          . + @ # $ %           ",
"        & * = - ; > , ' )       ",
"    ! ~ { ] ] ^ / ; ( ] ] _     ",
"    : < ] ] ] ] [ } | ] ] ] 1   ",
"  2 3 ] ] 4 5 5 5 5 5 5 5 6 '   ",
"7 8 9 ] ] 0 ; ; ; ; ; ; ; a ] % ",
"b c d e ] | f f f g ; ; h i ] j ",
"k l ; m ] ] ] ] n o ; p q ] ] r ",
"r s t u v w x y z ; ; A ] ] ] r ",
"j ] B C D ; ; ; E ; F | ] ] ] G ",
"H ] ] ] I J K L M N O ] ] ] ] P ",
"  ' ] ] ] ] ] l ; Q ] ] ] ] R   ",
"  S ] ] ] ] T U V W X X X Y Z   ",
"    ` ] ]  ...; +.2 2 2 2 @.    ",
"      S ' #.$.$.$.$.$.%.&.      ",
"          % j r *.=.-.          "};
