<?xml version="1.0" encoding="UTF-8" standalone="no"?>
<!-- Created with Inkscape (http://www.inkscape.org/) -->
<svg
   xmlns:dc="http://purl.org/dc/elements/1.1/"
   xmlns:cc="http://creativecommons.org/ns#"
   xmlns:rdf="http://www.w3.org/1999/02/22-rdf-syntax-ns#"
   xmlns:svg="http://www.w3.org/2000/svg"
   xmlns="http://www.w3.org/2000/svg"
   xmlns:sodipodi="http://sodipodi.sourceforge.net/DTD/sodipodi-0.dtd"
   xmlns:inkscape="http://www.inkscape.org/namespaces/inkscape"
   width="744.09448819"
   height="1052.3622047"
   id="svg2"
   sodipodi:version="0.32"
   inkscape:version="0.46"
   sodipodi:docname="gazebo_logo.svg"
   inkscape:output_extension="org.inkscape.output.svg.inkscape">
  <defs
     id="defs4">
    <linearGradient
       id="linearGradient3230">
      <stop
         style="stop-color:#787878;stop-opacity:1;"
         offset="0"
         id="stop3232" />
      <stop
         id="stop3238"
         offset="0.94999999"
         style="stop-color:#787878;stop-opacity:1;" />
      <stop
         style="stop-color:#ffffff;stop-opacity:1;"
         offset="1"
         id="stop3234" />
    </linearGradient>
    <linearGradient
       id="linearGradient3222">
      <stop
         id="stop3224"
         offset="0"
         style="stop-color:#ffffff;stop-opacity:1;" />
      <stop
         style="stop-color:#ffffff;stop-opacity:1;"
         offset="0.86726522"
         id="stop3228" />
      <stop
         id="stop3226"
         offset="1"
         style="stop-color:#000000;stop-opacity:1;" />
    </linearGradient>
    <linearGradient
       id="linearGradient3212">
      <stop
         style="stop-color:#000000;stop-opacity:1;"
         offset="0"
         id="stop3214" />
      <stop
         style="stop-color:#000000;stop-opacity:0;"
         offset="1"
         id="stop3216" />
    </linearGradient>
    <inkscape:perspective
       sodipodi:type="inkscape:persp3d"
       inkscape:vp_x="0 : 526.18109 : 1"
       inkscape:vp_y="0 : 1000 : 0"
       inkscape:vp_z="744.09448 : 526.18109 : 1"
       inkscape:persp3d-origin="372.04724 : 350.78739 : 1"
       id="perspective10" />
  </defs>
  <sodipodi:namedview
     id="base"
     pagecolor="#ffffff"
     bordercolor="#666666"
     borderopacity="1.0"
     gridtolerance="10000"
     guidetolerance="10"
     objecttolerance="10"
     inkscape:pageopacity="0.0"
     inkscape:pageshadow="2"
     inkscape:zoom="2"
     inkscape:cx="470.8547"
     inkscape:cy="763.87292"
     inkscape:document-units="px"
     inkscape:current-layer="layer1"
     showgrid="false"
     showguides="true"
     inkscape:guide-bbox="true"
     inkscape:window-width="2550"
     inkscape:window-height="1379"
     inkscape:window-x="0"
     inkscape:window-y="25" />
  <metadata
     id="metadata7">
    <rdf:RDF>
      <cc:Work
         rdf:about="">
        <dc:format>image/svg+xml</dc:format>
        <dc:type
           rdf:resource="http://purl.org/dc/dcmitype/StillImage" />
      </cc:Work>
    </rdf:RDF>
  </metadata>
  <g
     inkscape:label="Layer 1"
     inkscape:groupmode="layer"
     id="layer1">
    <g
       id="g3485"
       transform="translate(-445.16531,338.56519)">
      <path
         id="path3402"
         d="M 605.9852,65.691719 C 591.91611,65.492869 578.94959,74.805949 575.07895,89.00422 C 570.49155,105.8318 580.40761,123.19806 597.2352,127.78547 C 614.06277,132.37287 631.46029,122.42555 636.0477,105.59797 C 640.6351,88.77038 630.68776,71.404119 613.8602,66.816719 C 611.23089,66.099939 608.59059,65.728539 605.9852,65.691719 z M 589.6727,81.50422 C 590.62321,81.50425 591.54248,81.58498 592.45395,81.75422 C 593.36539,81.9105 594.17528,82.10581 594.89145,82.37922 C 595.60757,82.65269 596.28987,82.98342 596.95395,83.34797 C 597.63101,83.69956 598.22216,84.08238 598.70395,84.47297 C 599.1857,84.8506 599.63622,85.22039 600.07895,85.59797 C 600.52163,85.9756 600.881,86.33498 601.14145,86.66047 C 601.40184,86.98602 601.63881,87.25684 601.8602,87.50422 C 602.08152,87.73862 602.22736,87.91309 602.26645,88.00422 L 599.7977,89.84797 C 599.44611,89.40529 599.17528,89.0459 598.95395,88.78547 C 598.73257,88.52508 598.26903,88.08497 597.57895,87.47297 C 596.90184,86.86102 596.21174,86.36883 595.5477,86.00422 C 594.88362,85.62664 594.02163,85.2855 592.95395,84.97297 C 591.89924,84.6605 590.81852,84.50425 589.6727,84.50422 C 588.01904,84.50425 586.42008,84.81675 584.9227,85.44172 C 583.4253,86.06675 582.15967,86.91831 581.07895,87.97297 C 579.99822,89.02768 579.12321,90.28288 578.4852,91.75422 C 577.86019,93.21258 577.54769,94.73341 577.5477,96.34798 C 577.54769,97.94956 577.86019,99.48338 578.4852,100.94172 C 579.12321,102.40006 579.97999,103.65527 581.0477,104.72297 C 582.12842,105.77766 583.42529,106.62922 584.9227,107.25422 C 586.4331,107.87922 588.01904,108.19172 589.6727,108.19172 C 592.73258,108.19172 595.3758,107.20214 597.64145,105.22297 C 599.92006,103.23079 601.26382,100.77766 601.64145,97.84798 L 588.95395,97.84798 L 588.95395,94.81673 L 612.6102,94.81673 L 594.82895,120.97297 L 612.64145,120.97297 L 611.64145,123.97297 L 589.07895,123.97297 L 601.89145,105.09797 C 601.42713,105.72269 600.92087,106.30865 600.3602,106.84797 C 599.00601,108.16308 597.39142,109.22298 595.51645,110.00422 C 593.65445,110.78548 591.71696,111.16047 589.6727,111.16047 C 587.6154,111.16047 585.6232,110.78548 583.7352,110.00422 C 581.86019,109.22298 580.25863,108.16308 578.89145,106.84797 C 577.53728,105.53287 576.44873,103.95215 575.64145,102.12922 C 574.83415,100.29329 574.4227,98.36621 574.4227,96.34798 C 574.4227,94.32977 574.83415,92.40267 575.64145,90.56672 C 576.44873,88.73081 577.53728,87.14487 578.89145,85.81672 C 580.25863,84.48862 581.86019,83.44175 583.7352,82.66047 C 585.6232,81.87925 587.6154,81.50425 589.6727,81.50422 z M 604.7352,97.81673 C 604.58594,99.30718 604.21983,100.74275 603.6102,102.12922 C 603.29336,102.85638 602.92445,103.54537 602.51645,104.19172 L 606.82895,97.81673 L 604.7352,97.81673 z"
         style="fill:#941515;fill-opacity:1;fill-rule:nonzero;stroke:#edaf00;stroke-width:0.5;stroke-miterlimit:4;stroke-dasharray:none;stroke-dashoffset:0;stroke-opacity:1" />
    </g>
    <g
       id="g3253"
       transform="translate(-161.69682,172.32361)">
      <path
         transform="matrix(0.9026008,0,0,0.9026008,-149.63385,-8.6861134)"
         d="M 459.04156,114.376 A 35.006859,35.006859 0 1 1 389.02784,114.376 A 35.006859,35.006859 0 1 1 459.04156,114.376 z"
         sodipodi:ry="35.006859"
         sodipodi:rx="35.006859"
         sodipodi:cy="114.376"
         sodipodi:cx="424.0347"
         id="path3194"
         style="opacity:1;fill:none;fill-opacity:1;fill-rule:nonzero;stroke:#000000;stroke-width:5.53954744;stroke-miterlimit:4;stroke-dasharray:none;stroke-dashoffset:0;stroke-opacity:1"
         sodipodi:type="arc" />
      <path
         sodipodi:nodetypes="cccsscccscscccccccccsssccscsssssssccsssscscccccsc"
         id="text3181"
         d="M 218.96334,79.919423 C 216.90604,79.919453 214.91384,80.294452 213.02584,81.075673 C 211.15083,81.856951 209.54927,82.903824 208.18209,84.231923 C 206.82792,85.560071 205.73937,87.146008 204.93209,88.981923 C 204.12479,90.817879 203.71334,92.744961 203.71334,94.763173 C 203.71334,96.781413 204.12479,98.708503 204.93209,100.54442 C 205.73937,102.36735 206.82792,103.94807 208.18209,105.26317 C 209.54927,106.57828 211.15083,107.63818 213.02584,108.41942 C 214.91384,109.20068 216.90604,109.57567 218.96334,109.57567 C 221.0076,109.57567 222.94509,109.20068 224.80709,108.41942 C 226.68206,107.63818 228.29665,106.57828 229.65084,105.26317 C 230.21151,104.72385 230.71777,104.13789 231.18209,103.51317 L 218.36959,122.38817 L 240.93209,122.38817 L 241.93209,119.38817 L 224.11959,119.38817 L 241.90084,93.231923 L 218.24459,93.231923 L 218.24459,96.263173 L 230.93209,96.263173 C 230.55446,99.192873 229.2107,101.64599 226.93209,103.63817 C 224.66644,105.61734 222.02322,106.60692 218.96334,106.60692 C 217.30968,106.60692 215.72374,106.29442 214.21334,105.66942 C 212.71593,105.04442 211.41906,104.19286 210.33834,103.13817 C 209.27063,102.07047 208.41385,100.81526 207.77584,99.356923 C 207.15083,97.898593 206.83833,96.364753 206.83834,94.763173 C 206.83833,93.148606 207.15083,91.627774 207.77584,90.169423 C 208.41385,88.69809 209.28886,87.442882 210.36959,86.388173 C 211.45031,85.333509 212.71594,84.481948 214.21334,83.856923 C 215.71072,83.231949 217.30968,82.919449 218.96334,82.919423 C 220.10916,82.919449 221.18988,83.075699 222.24459,83.388173 C 223.31227,83.700698 224.17426,84.041844 224.83834,84.419423 C 225.50238,84.784031 226.19248,85.276218 226.86959,85.888173 C 227.55967,86.500175 228.02321,86.940279 228.24459,87.200673 C 228.46592,87.461112 228.73675,87.820486 229.08834,88.263173 L 231.55709,86.419423 C 231.518,86.328301 231.37216,86.153821 231.15084,85.919423 C 230.92945,85.672051 230.69248,85.401218 230.43209,85.075673 C 230.17164,84.750177 229.81227,84.390802 229.36959,84.013173 C 228.92686,83.635594 228.47634,83.265803 227.99459,82.888173 C 227.5128,82.497575 226.92165,82.114763 226.24459,81.763173 C 225.58051,81.398618 224.89821,81.067888 224.18209,80.794423 C 223.46592,80.521014 222.65603,80.325702 221.74459,80.169423 C 220.83312,80.000182 219.91385,79.919453 218.96334,79.919423 z M 234.02584,96.231923 L 236.11959,96.231923 L 231.80709,102.60692 C 232.21509,101.96057 232.584,101.27158 232.90084,100.54442 C 233.51047,99.157963 233.87658,97.722373 234.02584,96.231923 z"
         style="font-size:40px;font-style:normal;font-variant:normal;font-weight:bold;font-stretch:normal;fill:#000000;fill-opacity:1;stroke:none;stroke-width:1px;stroke-linecap:butt;stroke-linejoin:miter;stroke-opacity:1;font-family:Interstate;-inkscape-font-specification:Sans" />
    </g>
    <g
       id="g3450"
       transform="translate(-233.08836,324.11331)">
      <path
         transform="matrix(0.8708221,0.2373968,-0.2373968,0.8708221,-37.61454,-105.71587)"
         d="M 459.04156,114.376 A 35.006859,35.006859 0 1 1 389.02784,114.376 A 35.006859,35.006859 0 1 1 459.04156,114.376 z"
         sodipodi:ry="35.006859"
         sodipodi:rx="35.006859"
         sodipodi:cy="114.376"
         sodipodi:cx="424.0347"
         id="path3202"
         style="fill:#ffffff;fill-opacity:1;fill-rule:nonzero;stroke:#edaf00;stroke-width:3.32372808;stroke-miterlimit:4;stroke-dasharray:none;stroke-dashoffset:0;stroke-opacity:1"
         sodipodi:type="arc" />
      <path
         sodipodi:nodetypes="cccsscccscscccccccccsssccscsssssssccsssscscccccsc"
         id="path3204"
         d="M 289.5079,78.296112 C 287.4506,78.296142 285.4584,78.671142 283.5704,79.452362 C 281.69539,80.233642 280.09383,81.280512 278.72665,82.608612 C 277.37248,83.936762 276.28393,85.522702 275.47665,87.358612 C 274.66935,89.194572 274.2579,91.121652 274.2579,93.139862 C 274.2579,95.158102 274.66935,97.085192 275.47665,98.921117 C 276.28393,100.74405 277.37248,102.32477 278.72665,103.63987 C 280.09383,104.95498 281.69539,106.01488 283.5704,106.79612 C 285.4584,107.57738 287.4506,107.95237 289.5079,107.95237 C 291.55216,107.95237 293.48965,107.57738 295.35165,106.79612 C 297.22662,106.01488 298.84121,104.95498 300.1954,103.63987 C 300.75607,103.10055 301.26233,102.51459 301.72665,101.88987 L 288.91415,120.76487 L 311.47665,120.76487 L 312.47665,117.76487 L 294.66415,117.76487 L 312.4454,91.608612 L 288.78915,91.608612 L 288.78915,94.639862 L 301.47665,94.639862 C 301.09902,97.569562 299.75526,100.02269 297.47665,102.01487 C 295.211,103.99404 292.56778,104.98362 289.5079,104.98362 C 287.85424,104.98362 286.2683,104.67112 284.7579,104.04612 C 283.26049,103.42112 281.96362,102.56956 280.8829,101.51487 C 279.81519,100.44717 278.95841,99.191957 278.3204,97.733612 C 277.69539,96.275282 277.38289,94.741442 277.3829,93.139862 C 277.38289,91.525302 277.69539,90.004462 278.3204,88.546112 C 278.95841,87.074782 279.83342,85.819572 280.91415,84.764862 C 281.99487,83.710202 283.2605,82.858642 284.7579,82.233612 C 286.25528,81.608642 287.85424,81.296142 289.5079,81.296112 C 290.65372,81.296142 291.73444,81.452392 292.78915,81.764862 C 293.85683,82.077392 294.71882,82.418532 295.3829,82.796112 C 296.04694,83.160722 296.73704,83.652912 297.41415,84.264862 C 298.10423,84.876872 298.56777,85.316972 298.78915,85.577362 C 299.01048,85.837802 299.28131,86.197182 299.6329,86.639862 L 302.10165,84.796112 C 302.06256,84.704992 301.91672,84.530512 301.6954,84.296112 C 301.47401,84.048742 301.23704,83.777912 300.97665,83.452362 C 300.7162,83.126872 300.35683,82.767492 299.91415,82.389862 C 299.47142,82.012282 299.0209,81.642492 298.53915,81.264862 C 298.05736,80.874272 297.46621,80.491452 296.78915,80.139862 C 296.12507,79.775312 295.44277,79.444582 294.72665,79.171112 C 294.01048,78.897702 293.20059,78.702392 292.28915,78.546112 C 291.37768,78.376872 290.45841,78.296142 289.5079,78.296112 z M 304.5704,94.608612 L 306.66415,94.608612 L 302.35165,100.98362 C 302.75965,100.33727 303.12856,99.648277 303.4454,98.921117 C 304.05503,97.534652 304.42114,96.099062 304.5704,94.608612 z"
         style="font-size:40px;font-style:normal;font-variant:normal;font-weight:bold;font-stretch:normal;fill:#225090;fill-opacity:1;stroke:#edaf00;stroke-width:0.5;stroke-linecap:butt;stroke-linejoin:miter;stroke-miterlimit:4;stroke-dasharray:none;stroke-opacity:1;font-family:Interstate;-inkscape-font-specification:Sans" />
    </g>
    <g
       id="g3458"
       transform="translate(-308.28474,473.11291)">
      <path
         id="path3247"
         d="M 411.82737,103.3113 C 406.99099,121.05217 388.66743,131.52537 370.92658,126.68899 C 353.18571,121.85262 342.71251,103.52907 347.54889,85.788205 C 352.38526,68.047343 370.70881,57.574137 388.44967,62.410513 C 406.19053,67.246886 416.66374,85.57044 411.82737,103.3113 z"
         style="fill:none;fill-opacity:1;fill-rule:nonzero;stroke:#edaf00;stroke-width:3.16281843;stroke-miterlimit:4;stroke-dashoffset:0;stroke-opacity:1" />
      <path
         id="path3240"
         d="M 380.11113,62.945434 C 366.04204,62.746584 353.07552,72.059664 349.20488,86.257934 C 344.61748,103.08552 354.53354,120.45178 371.36113,125.03919 C 388.1887,129.62659 405.58622,119.67927 410.17363,102.85169 C 414.76103,86.024094 404.81369,68.657834 387.98613,64.070434 C 385.35682,63.353654 382.71652,62.982254 380.11113,62.945434 z M 363.79863,78.757934 C 364.74914,78.757964 365.66841,78.838694 366.57988,79.007934 C 367.49132,79.164214 368.30121,79.359524 369.01738,79.632934 C 369.7335,79.906404 370.4158,80.237134 371.07988,80.601684 C 371.75694,80.953274 372.34809,81.336094 372.82988,81.726684 C 373.31163,82.104314 373.76215,82.474104 374.20488,82.851684 C 374.64756,83.229314 375.00693,83.588694 375.26738,83.914184 C 375.52777,84.239734 375.76474,84.510554 375.98613,84.757934 C 376.20745,84.992334 376.35329,85.166804 376.39238,85.257934 L 373.92363,87.101684 C 373.57204,86.659004 373.30121,86.299614 373.07988,86.039184 C 372.8585,85.778794 372.39496,85.338684 371.70488,84.726684 C 371.02777,84.114734 370.33767,83.622544 369.67363,83.257934 C 369.00955,82.880354 368.14756,82.539214 367.07988,82.226684 C 366.02517,81.914214 364.94445,81.757964 363.79863,81.757934 C 362.14497,81.757964 360.54601,82.070464 359.04863,82.695434 C 357.55123,83.320464 356.2856,84.172024 355.20488,85.226684 C 354.12415,86.281394 353.24914,87.536594 352.61113,89.007934 C 351.98612,90.466287 351.67362,91.987117 351.67363,93.601687 C 351.67362,95.203267 351.98612,96.737097 352.61113,98.195437 C 353.24914,99.653777 354.10592,100.90899 355.17363,101.97669 C 356.25435,103.03138 357.55122,103.88294 359.04863,104.50794 C 360.55903,105.13294 362.14497,105.44544 363.79863,105.44544 C 366.85851,105.44544 369.50173,104.45586 371.76738,102.47669 C 374.04599,100.48451 375.38975,98.031377 375.76738,95.101687 L 363.07988,95.101687 L 363.07988,92.070437 L 386.73613,92.070437 L 368.95488,118.22669 L 386.76738,118.22669 L 385.76738,121.22669 L 363.20488,121.22669 L 376.01738,102.35169 C 375.55306,102.97641 375.0468,103.56237 374.48613,104.10169 C 373.13194,105.4168 371.51735,106.4767 369.64238,107.25794 C 367.78038,108.0392 365.84289,108.41419 363.79863,108.41419 C 361.74133,108.41419 359.74913,108.0392 357.86113,107.25794 C 355.98612,106.4767 354.38456,105.4168 353.01738,104.10169 C 351.66321,102.78659 350.57466,101.20587 349.76738,99.382937 C 348.96008,97.547007 348.54863,95.619917 348.54863,93.601687 C 348.54863,91.583477 348.96008,89.656384 349.76738,87.820434 C 350.57466,85.984524 351.66321,84.398584 353.01738,83.070434 C 354.38456,81.742334 355.98612,80.695464 357.86113,79.914184 C 359.74913,79.132964 361.74133,78.757964 363.79863,78.757934 z M 378.86113,95.070437 C 378.71187,96.560887 378.34576,97.996467 377.73613,99.382937 C 377.41929,100.1101 377.05038,100.79909 376.64238,101.44544 L 380.95488,95.070437 L 378.86113,95.070437 z"
         style="fill:#225090;fill-opacity:1;fill-rule:nonzero;stroke:#edaf00;stroke-width:0.5;stroke-miterlimit:4;stroke-dasharray:none;stroke-dashoffset:0;stroke-opacity:1" />
    </g>
    <g
       id="g3480"
       transform="translate(-371.66536,260.55443)">
      <path
         id="path3350"
         d="M 532.22925,63.39484 C 531.99066,63.393791 531.75255,63.395275 531.51157,63.401996 L 531.51157,63.401996 C 529.45913,63.459237 527.42394,63.726051 525.44907,64.151996 C 520.67277,72.133159 512.77947,77.665589 503.85532,79.589496 C 502.32398,82.145316 501.11456,84.950147 500.29282,87.964496 C 495.45644,105.70536 505.92694,124.03438 523.66782,128.87074 C 530.60797,130.76271 537.64164,130.30811 543.91782,127.99574 C 542.83014,122.94848 542.90441,117.568 544.35532,112.24574 C 547.29971,101.44503 555.24417,93.344402 565.01157,89.745746 C 564.56483,87.672692 563.92232,85.654887 563.09907,83.718649"
         style="fill:none;fill-opacity:1;fill-rule:nonzero;stroke:#edaf00;stroke-width:3.16281843;stroke-miterlimit:4;stroke-dashoffset:0;stroke-opacity:1" />
      <path
         id="path3312"
         d="M 563.44768,83.141912 C 559.5941,74.07847 551.78028,66.802289 541.54768,64.012759 C 538.77567,63.257076 535.98197,62.864082 533.23518,62.825259 C 533.01395,62.822132 532.7957,62.819062 532.57786,62.818103"
         style="fill:none;fill-opacity:1;fill-rule:nonzero;stroke:#edaf00;stroke-width:2;stroke-miterlimit:4;stroke-dasharray:none;stroke-dashoffset:0;stroke-opacity:1" />
      <path
         id="path3314"
         d="M 532.86603,65.12709 C 518.79694,64.92824 505.83042,74.24132 501.95978,88.43959 C 497.37238,105.26717 507.28844,122.63343 524.11603,127.22084 C 540.9436,131.80824 558.34112,121.86092 562.92853,105.03334 C 567.51593,88.20575 557.56859,70.83949 540.74103,66.25209 C 538.11172,65.53531 535.47142,65.16391 532.86603,65.12709 z M 516.55353,80.93959 C 517.50404,80.93962 518.42331,81.02035 519.33478,81.18959 C 520.24622,81.34587 521.05611,81.54118 521.77228,81.81459 C 522.4884,82.08806 523.1707,82.41879 523.83478,82.78334 C 524.51184,83.13493 525.10299,83.51775 525.58478,83.90834 C 526.06653,84.28597 526.51705,84.65576 526.95978,85.03334 C 527.40246,85.41097 527.76183,85.77035 528.02228,86.09584 C 528.28267,86.42139 528.51964,86.69221 528.74103,86.93959 C 528.96235,87.17399 529.10819,87.34846 529.14728,87.43959 L 526.67853,89.28334 C 526.32694,88.84066 526.05611,88.48127 525.83478,88.22084 C 525.6134,87.96045 525.14986,87.52034 524.45978,86.90834 C 523.78267,86.29639 523.09257,85.8042 522.42853,85.43959 C 521.76445,85.06201 520.90246,84.72087 519.83478,84.40834 C 518.78007,84.09587 517.69935,83.93962 516.55353,83.93959 C 514.89987,83.93962 513.30091,84.25212 511.80353,84.87709 C 510.30613,85.50212 509.0405,86.35368 507.95978,87.40834 C 506.87905,88.46305 506.00404,89.71825 505.36603,91.18959 C 504.74102,92.64795 504.42852,94.16878 504.42853,95.78335 C 504.42852,97.384933 504.74102,98.918753 505.36603,100.37709 C 506.00404,101.83543 506.86082,103.09064 507.92853,104.15834 C 509.00925,105.21303 510.30612,106.06459 511.80353,106.68959 C 513.31393,107.31459 514.89987,107.62709 516.55353,107.62709 C 519.61341,107.62709 522.25663,106.63751 524.52228,104.65834 C 526.80089,102.66616 528.14465,100.21303 528.52228,97.283353 L 515.83478,97.283353 L 515.83478,94.2521 L 539.49103,94.2521 L 521.70978,120.40834 L 539.52228,120.40834 L 538.52228,123.40834 L 515.95978,123.40834 L 528.77228,104.53334 C 528.30796,105.15806 527.8017,105.74402 527.24103,106.28334 C 525.88684,107.59845 524.27225,108.65835 522.39728,109.43959 C 520.53528,110.22085 518.59779,110.59584 516.55353,110.59584 C 514.49623,110.59584 512.50403,110.22085 510.61603,109.43959 C 508.74102,108.65835 507.13946,107.59845 505.77228,106.28334 C 504.41811,104.96824 503.32956,103.38752 502.52228,101.56459 C 501.71498,99.728663 501.30353,97.801583 501.30353,95.78335 C 501.30353,93.76514 501.71498,91.83804 502.52228,90.00209 C 503.32956,88.16618 504.41811,86.58024 505.77228,85.25209 C 507.13946,83.92399 508.74102,82.87712 510.61603,82.09584 C 512.50403,81.31462 514.49623,80.93962 516.55353,80.93959 z M 531.61603,97.252103 C 531.46677,98.742553 531.10066,100.17812 530.49103,101.56459 C 530.17419,102.29175 529.80528,102.98074 529.39728,103.62709 L 533.70978,97.252103 L 531.61603,97.252103 z"
         style="fill:#225090;fill-opacity:1;fill-rule:nonzero;stroke:#edaf00;stroke-width:0.5;stroke-miterlimit:4;stroke-dasharray:none;stroke-dashoffset:0;stroke-opacity:1" />
    </g>
    <g
       id="g3475"
       transform="translate(-379.38629,99.806596)">
      <path
         id="path3352"
         d="M 539.95018,145.55765 C 539.71159,145.5566 539.47348,145.55808 539.2325,145.56481 L 539.2325,145.56481 C 537.18006,145.62205 535.14487,145.88886 533.17,146.31481 C 528.3937,154.29597 520.5004,159.8284 511.57625,161.75231 C 510.04491,164.30813 508.83549,167.11296 508.01375,170.12731 C 503.17737,187.86819 513.64787,206.19721 531.38875,211.03357 C 538.3289,212.92554 545.36257,212.47094 551.63875,210.15857 C 550.55107,205.11131 550.62534,199.73083 552.07625,194.40857 C 555.02064,183.60786 562.9651,175.50721 572.7325,171.90856 C 572.28576,169.8355 571.64325,167.8177 570.82,165.88146"
         style="fill:none;fill-opacity:1;fill-rule:nonzero;stroke:#edaf00;stroke-width:3.16281843;stroke-miterlimit:4;stroke-dashoffset:0;stroke-opacity:1" />
      <path
         sodipodi:nodetypes="cc"
         id="path3354"
         d="M 570.07893,166.7284 C 564.87646,154.41715 553.49589,146.59217 539.93701,146.62348"
         style="fill:none;fill-opacity:1;fill-rule:nonzero;stroke:#edaf00;stroke-width:1;stroke-miterlimit:4;stroke-dasharray:none;stroke-dashoffset:0;stroke-opacity:1" />
      <path
         id="path3356"
         d="M 540.58696,147.2899 C 526.51787,147.09105 513.55135,156.40413 509.68071,170.6024 C 505.09331,187.43 515.00937,204.79626 531.83696,209.38367 C 548.66453,213.97107 566.06205,204.02375 570.64946,187.19617 C 575.23686,170.36856 565.28952,153.0023 548.46196,148.4149 C 545.83265,147.69812 543.19235,147.32672 540.58696,147.2899 z M 524.27446,163.1024 C 525.22497,163.10243 526.14424,163.18316 527.05571,163.3524 C 527.96715,163.50868 528.77704,163.70399 529.49321,163.9774 C 530.20933,164.25087 530.89163,164.5816 531.55571,164.94615 C 532.23277,165.29774 532.82392,165.68056 533.30571,166.07115 C 533.78746,166.44878 534.23798,166.81857 534.68071,167.19615 C 535.12339,167.57378 535.48276,167.93316 535.74321,168.25865 C 536.0036,168.5842 536.24057,168.85502 536.46196,169.1024 C 536.68328,169.3368 536.82912,169.51127 536.86821,169.6024 L 534.39946,171.44615 C 534.04787,171.00347 533.77704,170.64408 533.55571,170.38365 C 533.33433,170.12326 532.87079,169.68315 532.18071,169.07115 C 531.5036,168.4592 530.8135,167.96701 530.14946,167.6024 C 529.48538,167.22482 528.62339,166.88368 527.55571,166.57115 C 526.501,166.25868 525.42028,166.10243 524.27446,166.1024 C 522.6208,166.10243 521.02184,166.41493 519.52446,167.0399 C 518.02706,167.66493 516.76143,168.51649 515.68071,169.57115 C 514.59998,170.62586 513.72497,171.88106 513.08696,173.3524 C 512.46195,174.81076 512.14945,176.33159 512.14946,177.94616 C 512.14945,179.54774 512.46195,181.08157 513.08696,182.53991 C 513.72497,183.99826 514.58175,185.25347 515.64946,186.32117 C 516.73018,187.37586 518.02705,188.22742 519.52446,188.85242 C 521.03486,189.47742 522.6208,189.78992 524.27446,189.78992 C 527.33434,189.78992 529.97756,188.80034 532.24321,186.82117 C 534.52182,184.82899 535.86558,182.37585 536.24321,179.44616 L 523.55571,179.44616 L 523.55571,176.41491 L 547.21196,176.41491 L 529.43071,202.57117 L 547.24321,202.57117 L 546.24321,205.57117 L 523.68071,205.57117 L 536.49321,186.69617 C 536.02889,187.32089 535.52263,187.90685 534.96196,188.44617 C 533.60777,189.76128 531.99318,190.82118 530.11821,191.60242 C 528.25621,192.38368 526.31872,192.75867 524.27446,192.75867 C 522.21716,192.75867 520.22496,192.38368 518.33696,191.60242 C 516.46195,190.82118 514.86039,189.76128 513.49321,188.44617 C 512.13904,187.13107 511.05049,185.55035 510.24321,183.72742 C 509.43591,181.89148 509.02446,179.96439 509.02446,177.94616 C 509.02446,175.92795 509.43591,174.00085 510.24321,172.1649 C 511.05049,170.32899 512.13904,168.74305 513.49321,167.4149 C 514.86039,166.0868 516.46195,165.03993 518.33696,164.25865 C 520.22496,163.47743 522.21716,163.10243 524.27446,163.1024 z M 539.33696,179.41491 C 539.1877,180.90536 538.82159,182.34094 538.21196,183.72742 C 537.89512,184.45458 537.52621,185.14357 537.11821,185.78992 L 541.43071,179.41491 L 539.33696,179.41491 z"
         style="fill:#941515;fill-opacity:1;fill-rule:nonzero;stroke:#edaf00;stroke-width:0.5;stroke-miterlimit:4;stroke-dasharray:none;stroke-dashoffset:0;stroke-opacity:1" />
    </g>
    <g
       id="g3466"
       transform="translate(-291.8558,26.48363)">
      <path
         sodipodi:nodetypes="ccccssccc"
         id="path3360"
         d="M 452.99767,61.71058 C 452.75908,61.70953 452.52097,61.71101 452.27999,61.71773 L 452.27999,61.71773 C 440.47736,63.454776 440.02589,73.243643 424.62374,77.90523 C 423.0924,80.46105 421.88298,83.26588 421.06124,86.28023 C 416.22486,104.0211 426.69536,122.35012 444.43624,127.18648 C 451.37639,129.07845 458.41006,128.62385 464.68624,126.31148 C 463.59856,121.26422 463.67283,115.88374 465.12374,110.56148 C 467.908,92.111465 488.82415,94.331223 483.86749,82.03438"
         style="fill:none;fill-opacity:1;fill-rule:nonzero;stroke:#edaf00;stroke-width:3.16281843;stroke-miterlimit:4;stroke-dashoffset:0;stroke-opacity:1" />
      <path
         id="path3362"
         d="M 484.2161,81.45765 C 480.36252,72.39421 472.5487,65.11802 462.3161,62.32849 C 459.54409,61.57281 456.75039,61.17982 454.0036,61.14099 C 453.78237,61.13787 453.56412,61.1348 453.34628,61.13384"
         style="fill:none;fill-opacity:1;fill-rule:nonzero;stroke:#edaf00;stroke-width:2;stroke-miterlimit:4;stroke-dasharray:none;stroke-dashoffset:0;stroke-opacity:1" />
      <path
         id="path3364"
         d="M 453.63445,63.44283 C 439.56536,63.24398 426.59884,72.55706 422.7282,86.75533 C 418.1408,103.58291 428.05686,120.94917 444.88445,125.53658 C 461.71202,130.12398 479.10954,120.17666 483.69695,103.34908 C 488.28435,86.52149 478.33701,69.15523 461.50945,64.56783 C 458.88014,63.85105 456.23984,63.47965 453.63445,63.44283 z M 437.32195,79.25533 C 438.27246,79.25536 439.19173,79.33609 440.1032,79.50533 C 441.01464,79.66161 441.82453,79.85692 442.5407,80.13033 C 443.25682,80.4038 443.93912,80.73453 444.6032,81.09908 C 445.28026,81.45067 445.87141,81.83349 446.3532,82.22408 C 446.83495,82.60171 447.28547,82.9715 447.7282,83.34908 C 448.17088,83.72671 448.53025,84.08609 448.7907,84.41158 C 449.05109,84.73713 449.28806,85.00795 449.50945,85.25533 C 449.73077,85.48973 449.87661,85.6642 449.9157,85.75533 L 447.44695,87.59908 C 447.09536,87.1564 446.82453,86.79701 446.6032,86.53658 C 446.38182,86.27619 445.91828,85.83608 445.2282,85.22408 C 444.55109,84.61213 443.86099,84.11994 443.19695,83.75533 C 442.53287,83.37775 441.67088,83.03661 440.6032,82.72408 C 439.54849,82.41161 438.46777,82.25536 437.32195,82.25533 C 435.66829,82.25536 434.06933,82.56786 432.57195,83.19283 C 431.07455,83.81786 429.80892,84.66942 428.7282,85.72408 C 427.64747,86.77879 426.77246,88.03399 426.13445,89.50533 C 425.50944,90.96369 425.19694,92.48452 425.19695,94.09909 C 425.19694,95.70067 425.50944,97.23449 426.13445,98.69283 C 426.77246,100.15117 427.62924,101.40638 428.69695,102.47408 C 429.77767,103.52877 431.07454,104.38033 432.57195,105.00533 C 434.08235,105.63033 435.66829,105.94283 437.32195,105.94283 C 440.38183,105.94283 443.02505,104.95325 445.2907,102.97408 C 447.56931,100.9819 448.91307,98.52877 449.2907,95.59909 L 436.6032,95.59909 L 436.6032,92.56784 L 460.25945,92.56784 L 442.4782,118.72408 L 460.2907,118.72408 L 459.2907,121.72408 L 436.7282,121.72408 L 449.5407,102.84908 C 449.07638,103.4738 448.57012,104.05976 448.00945,104.59908 C 446.65526,105.91419 445.04067,106.97409 443.1657,107.75533 C 441.3037,108.53659 439.36621,108.91158 437.32195,108.91158 C 435.26465,108.91158 433.27245,108.53659 431.38445,107.75533 C 429.50944,106.97409 427.90788,105.91419 426.5407,104.59908 C 425.18653,103.28398 424.09798,101.70326 423.2907,99.88033 C 422.4834,98.0444 422.07195,96.11732 422.07195,94.09909 C 422.07195,92.08088 422.4834,90.15378 423.2907,88.31783 C 424.09798,86.48192 425.18653,84.89598 426.5407,83.56783 C 427.90788,82.23973 429.50944,81.19286 431.38445,80.41158 C 433.27245,79.63036 435.26465,79.25536 437.32195,79.25533 z M 452.38445,95.56784 C 452.23519,97.05829 451.86908,98.49386 451.25945,99.88033 C 450.94261,100.60749 450.5737,101.29648 450.1657,101.94283 L 454.4782,95.56784 L 452.38445,95.56784 z"
         style="fill:#225090;fill-opacity:1;fill-rule:nonzero;stroke:#edaf00;stroke-width:0.5;stroke-miterlimit:4;stroke-dasharray:none;stroke-dashoffset:0;stroke-opacity:1" />
    </g>
    <g
       id="g3444"
       transform="translate(-160.65821,167.37478)">
      <path
         transform="matrix(1.0655738,0,0,1.0765027,-22.432343,73.091491)"
         d="M 260.29293,96.307938 A 25.831675,25.831675 0 1 1 208.62958,96.307938 A 25.831675,25.831675 0 1 1 260.29293,96.307938 z"
         sodipodi:ry="25.831675"
         sodipodi:rx="25.831675"
         sodipodi:cy="96.307938"
         sodipodi:cx="234.46126"
         id="path3404"
         style="opacity:1;fill:#941515;fill-opacity:1;fill-rule:nonzero;stroke:none;stroke-width:2;stroke-linecap:butt;stroke-linejoin:miter;marker:none;marker-start:none;marker-mid:none;marker-end:none;stroke-miterlimit:4;stroke-dasharray:none;stroke-dashoffset:0;stroke-opacity:1;visibility:visible;display:inline;overflow:visible;enable-background:accumulate"
         sodipodi:type="arc" />
      <path
         sodipodi:nodetypes="cssccc"
         id="path3372"
         d="M 204.43266,156.95297 C 202.90132,159.50879 201.6919,162.31362 200.87016,165.32797 C 196.03378,183.06884 206.50428,201.39786 224.24516,206.23422 C 231.18531,208.12619 238.21898,207.67159 244.49516,205.35922 C 243.40748,200.31196 243.48175,194.93148 244.93266,189.60922 C 247.71692,171.15921 268.63307,173.37897 263.67641,161.08212"
         style="fill:none;fill-opacity:1;fill-rule:nonzero;stroke:#edaf00;stroke-width:3.16281843;stroke-miterlimit:4;stroke-dashoffset:0;stroke-opacity:1" />
      <path
         id="path3376"
         d="M 233.44337,142.49057 C 219.37428,142.29172 206.40776,151.6048 202.53712,165.80307 C 197.94972,182.63065 207.86578,199.99691 224.69337,204.58432 C 241.52094,209.17172 258.91846,199.2244 263.50587,182.39682 C 268.09327,165.56923 258.14593,148.20297 241.31837,143.61557 C 238.68906,142.89879 236.04876,142.52739 233.44337,142.49057 z M 217.13087,158.30307 C 218.08138,158.3031 219.00065,158.38383 219.91212,158.55307 C 220.82356,158.70935 221.63345,158.90466 222.34962,159.17807 C 223.06574,159.45154 223.74804,159.78227 224.41212,160.14682 C 225.08918,160.49841 225.68033,160.88123 226.16212,161.27182 C 226.64387,161.64945 227.09439,162.01924 227.53712,162.39682 C 227.9798,162.77445 228.33917,163.13383 228.59962,163.45932 C 228.86001,163.78487 229.09698,164.05569 229.31837,164.30307 C 229.53969,164.53747 229.68553,164.71194 229.72462,164.80307 L 227.25587,166.64682 C 226.90428,166.20414 226.63345,165.84475 226.41212,165.58432 C 226.19074,165.32393 225.7272,164.88382 225.03712,164.27182 C 224.36001,163.65987 223.66991,163.16768 223.00587,162.80307 C 222.34179,162.42549 221.4798,162.08435 220.41212,161.77182 C 219.35741,161.45935 218.27669,161.3031 217.13087,161.30307 C 215.47721,161.3031 213.87825,161.6156 212.38087,162.24057 C 210.88347,162.8656 209.61784,163.71716 208.53712,164.77182 C 207.45639,165.82653 206.58138,167.08173 205.94337,168.55307 C 205.31836,170.01143 205.00586,171.53226 205.00587,173.14683 C 205.00586,174.74841 205.31836,176.28223 205.94337,177.74057 C 206.58138,179.19891 207.43816,180.45412 208.50587,181.52182 C 209.58659,182.57651 210.88346,183.42807 212.38087,184.05307 C 213.89127,184.67807 215.47721,184.99057 217.13087,184.99057 C 220.19075,184.99057 222.83397,184.00099 225.09962,182.02182 C 227.37823,180.02964 228.72199,177.57651 229.09962,174.64683 L 216.41212,174.64683 L 216.41212,171.61558 L 240.06837,171.61558 L 222.28712,197.77182 L 240.09962,197.77182 L 239.09962,200.77182 L 216.53712,200.77182 L 229.34962,181.89682 C 228.8853,182.52154 228.37904,183.1075 227.81837,183.64682 C 226.46418,184.96193 224.84959,186.02183 222.97462,186.80307 C 221.11262,187.58433 219.17513,187.95932 217.13087,187.95932 C 215.07357,187.95932 213.08137,187.58433 211.19337,186.80307 C 209.31836,186.02183 207.7168,184.96193 206.34962,183.64682 C 204.99545,182.33172 203.9069,180.751 203.09962,178.92807 C 202.29232,177.09214 201.88087,175.16506 201.88087,173.14683 C 201.88087,171.12862 202.29232,169.20152 203.09962,167.36557 C 203.9069,165.52966 204.99545,163.94372 206.34962,162.61557 C 207.7168,161.28747 209.31836,160.2406 211.19337,159.45932 C 213.08137,158.6781 215.07357,158.3031 217.13087,158.30307 z M 232.19337,174.61558 C 232.04411,176.10603 231.678,177.5416 231.06837,178.92807 C 230.75153,179.65523 230.38262,180.34422 229.97462,180.99057 L 234.28712,174.61558 L 232.19337,174.61558 z"
         style="fill:#225090;fill-opacity:1;fill-rule:nonzero;stroke:#edaf00;stroke-width:0.5;stroke-miterlimit:4;stroke-dasharray:none;stroke-dashoffset:0;stroke-opacity:1" />
      <path
         id="path3374"
         d="M 264.02502,160.50539 C 260.17144,151.44195 252.35762,144.16576 242.12502,141.37623 C 239.35301,140.62055 236.55931,140.22756 233.81252,140.18873 C 233.59129,140.18561 233.37304,140.18254 233.1552,140.18158"
         style="fill:none;fill-opacity:1;fill-rule:nonzero;stroke:#edaf00;stroke-width:2;stroke-miterlimit:4;stroke-dasharray:none;stroke-dashoffset:0;stroke-opacity:1" />
    </g>
    <g
       id="g3454"
       transform="translate(-236.31258,313.65642)">
      <path
         sodipodi:nodetypes="csscc"
         id="path3378"
         d="M 280.65727,161.4675 C 279.12593,164.02332 277.91651,166.82815 277.09477,169.8425 C 272.25839,187.58337 282.72889,205.91239 300.46977,210.74875 C 307.40992,212.64072 314.44359,212.18612 320.71977,209.87375 C 319.63209,204.82649 319.70636,199.44601 321.15727,194.12375"
         style="fill:none;fill-opacity:1;fill-rule:nonzero;stroke:#edaf00;stroke-width:3.16281843;stroke-miterlimit:4;stroke-dashoffset:0;stroke-opacity:1" />
      <path
         id="path3382"
         d="M 309.66798,147.0051 C 295.59889,146.80625 282.63237,156.11933 278.76173,170.3176 C 274.17433,187.14518 284.09039,204.51144 300.91798,209.09885 C 317.74555,213.68625 335.14307,203.73893 339.73048,186.91135 C 344.31788,170.08376 334.37054,152.7175 317.54298,148.1301 C 314.91367,147.41332 312.27337,147.04192 309.66798,147.0051 z M 293.35548,162.8176 C 294.30599,162.81763 295.22526,162.89836 296.13673,163.0676 C 297.04817,163.22388 297.85806,163.41919 298.57423,163.6926 C 299.29035,163.96607 299.97265,164.2968 300.63673,164.66135 C 301.31379,165.01294 301.90494,165.39576 302.38673,165.78635 C 302.86848,166.16398 303.319,166.53377 303.76173,166.91135 C 304.20441,167.28898 304.56378,167.64836 304.82423,167.97385 C 305.08462,168.2994 305.32159,168.57022 305.54298,168.8176 C 305.7643,169.052 305.91014,169.22647 305.94923,169.3176 L 303.48048,171.16135 C 303.12889,170.71867 302.85806,170.35928 302.63673,170.09885 C 302.41535,169.83846 301.95181,169.39835 301.26173,168.78635 C 300.58462,168.1744 299.89452,167.68221 299.23048,167.3176 C 298.5664,166.94002 297.70441,166.59888 296.63673,166.28635 C 295.58202,165.97388 294.5013,165.81763 293.35548,165.8176 C 291.70182,165.81763 290.10286,166.13013 288.60548,166.7551 C 287.10808,167.38013 285.84245,168.23169 284.76173,169.28635 C 283.681,170.34106 282.80599,171.59626 282.16798,173.0676 C 281.54297,174.52596 281.23047,176.04679 281.23048,177.66136 C 281.23047,179.26294 281.54297,180.79676 282.16798,182.2551 C 282.80599,183.71344 283.66277,184.96865 284.73048,186.03635 C 285.8112,187.09104 287.10807,187.9426 288.60548,188.5676 C 290.11588,189.1926 291.70182,189.5051 293.35548,189.5051 C 296.41536,189.5051 299.05858,188.51552 301.32423,186.53635 C 303.60284,184.54417 304.9466,182.09104 305.32423,179.16136 L 292.63673,179.16136 L 292.63673,176.13011 L 316.29298,176.13011 L 298.51173,202.28635 L 316.32423,202.28635 L 315.32423,205.28635 L 292.76173,205.28635 L 305.57423,186.41135 C 305.10991,187.03607 304.60365,187.62203 304.04298,188.16135 C 302.68879,189.47646 301.0742,190.53636 299.19923,191.3176 C 297.33723,192.09886 295.39974,192.47385 293.35548,192.47385 C 291.29818,192.47385 289.30598,192.09886 287.41798,191.3176 C 285.54297,190.53636 283.94141,189.47646 282.57423,188.16135 C 281.22006,186.84625 280.13151,185.26553 279.32423,183.4426 C 278.51693,181.60667 278.10548,179.67959 278.10548,177.66136 C 278.10548,175.64315 278.51693,173.71605 279.32423,171.8801 C 280.13151,170.04419 281.22006,168.45825 282.57423,167.1301 C 283.94141,165.802 285.54297,164.75513 287.41798,163.97385 C 289.30598,163.19263 291.29818,162.81763 293.35548,162.8176 z M 308.41798,179.13011 C 308.26872,180.62056 307.90261,182.05613 307.29298,183.4426 C 306.97614,184.16976 306.60723,184.85875 306.19923,185.5051 L 310.51173,179.13011 L 308.41798,179.13011 z"
         style="fill:#941515;fill-opacity:1;fill-rule:nonzero;stroke:#edaf00;stroke-width:0.5;stroke-miterlimit:4;stroke-dasharray:none;stroke-dashoffset:0;stroke-opacity:1" />
    </g>
    <g
       id="g3462"
       transform="translate(-226.08743,-139.33873)">
      <path
         sodipodi:nodetypes="csscc"
         id="path3386"
         d="M 359.4283,163.60965 C 357.89696,166.16547 356.68754,168.9703 355.8658,171.98465 C 351.02942,189.72552 361.49992,208.05454 379.2408,212.8909 C 386.18095,214.78287 393.21462,214.32827 399.4908,212.0159 C 398.40312,206.96864 398.47739,201.58816 399.9283,196.2659"
         style="fill:none;fill-opacity:1;fill-rule:nonzero;stroke:#40794f;stroke-width:3.16281843;stroke-miterlimit:4;stroke-dashoffset:0;stroke-opacity:1" />
      <path
         id="path3388"
         d="M 387.125,149.15625 C 373.5699,149.53516 361.28093,158.71418 357.53125,172.46875 C 352.94386,189.29633 362.85991,206.66259 379.6875,211.25 C 396.51508,215.8374 413.91259,205.89008 418.5,189.0625 C 419.84698,184.1215 419.93425,179.13425 418.96875,174.4375 C 418.57574,174.34541 418.17382,174.23202 417.78125,174.125 C 405.65211,170.81846 396.95175,161.20154 394.1875,149.78125 C 392.26602,149.3935 390.33963,149.18313 388.4375,149.15625 C 387.99784,149.15004 387.56226,149.14403 387.125,149.15625 z M 372.125,164.96875 C 373.07552,164.96878 373.99478,165.04951 374.90625,165.21875 C 375.8177,165.37503 376.62758,165.57034 377.34375,165.84375 C 378.05988,166.11722 378.74217,166.44795 379.40625,166.8125 C 380.08332,167.16409 380.67446,167.54691 381.15625,167.9375 C 381.63801,168.31513 382.08852,168.68492 382.53125,169.0625 C 382.97394,169.44013 383.3333,169.79951 383.59375,170.125 C 383.85415,170.45055 384.09111,170.72137 384.3125,170.96875 C 384.53383,171.20315 384.67966,171.37762 384.71875,171.46875 L 382.25,173.3125 C 381.89842,172.86982 381.62758,172.51043 381.40625,172.25 C 381.18488,171.98961 380.72133,171.5495 380.03125,170.9375 C 379.35415,170.32555 378.66404,169.83336 378,169.46875 C 377.33593,169.09117 376.47393,168.75003 375.40625,168.4375 C 374.35155,168.12503 373.27082,167.96878 372.125,167.96875 C 370.47135,167.96878 368.87238,168.28128 367.375,168.90625 C 365.87761,169.53128 364.61197,170.38284 363.53125,171.4375 C 362.45053,172.49221 361.57551,173.74741 360.9375,175.21875 C 360.3125,176.67711 359.99999,178.19793 360,179.8125 C 360,181.41408 360.31249,182.94791 360.9375,184.40625 C 361.57552,185.86459 362.43229,187.1198 363.5,188.1875 C 364.58073,189.24219 365.87759,190.09375 367.375,190.71875 C 368.88541,191.34375 370.47134,191.65625 372.125,191.65625 C 375.18489,191.65625 377.8281,190.66667 380.09375,188.6875 C 382.37237,186.69532 383.71612,184.24218 384.09375,181.3125 L 371.40625,181.3125 L 371.40625,178.28125 L 395.0625,178.28125 L 377.28125,204.4375 L 395.09375,204.4375 L 394.09375,207.4375 L 371.53125,207.4375 L 384.34375,188.5625 C 383.87944,189.18722 383.37317,189.77318 382.8125,190.3125 C 381.45832,191.62761 379.84372,192.68751 377.96875,193.46875 C 376.10676,194.25001 374.16926,194.625 372.125,194.625 C 370.06771,194.625 368.0755,194.25001 366.1875,193.46875 C 364.3125,192.68751 362.71093,191.62761 361.34375,190.3125 C 359.98959,188.9974 358.90103,187.41668 358.09375,185.59375 C 357.28646,183.75782 356.875,181.83073 356.875,179.8125 C 356.87501,177.79429 357.28645,175.8672 358.09375,174.03125 C 358.90104,172.19534 359.98958,170.6094 361.34375,169.28125 C 362.71094,167.95315 364.31249,166.90628 366.1875,166.125 C 368.07551,165.34378 370.0677,164.96878 372.125,164.96875 z M 387.1875,181.28125 C 387.03825,182.7717 386.67213,184.20728 386.0625,185.59375 C 385.74567,186.32091 385.37675,187.0099 384.96875,187.65625 L 389.28125,181.28125 L 387.1875,181.28125 z"
         style="fill:#9cb3d5;fill-opacity:1;fill-rule:nonzero;stroke:#2e4a35;stroke-width:0.5;stroke-miterlimit:4;stroke-dasharray:none;stroke-dashoffset:0;stroke-opacity:1" />
    </g>
    <g
       id="g3471"
       transform="translate(-303.17177,19.154184)">
      <path
         sodipodi:nodetypes="csscc"
         id="path3394"
         d="M 436.50923,162.28762 C 434.97789,164.84344 433.76847,167.64827 432.94673,170.66262 C 428.11035,188.40349 438.58085,206.73251 456.32173,211.56887 C 463.26188,213.46084 470.29555,213.00624 476.57173,210.69387 C 475.48405,205.64661 475.55832,200.26613 477.00923,194.94387"
         style="fill:none;fill-opacity:1;fill-rule:nonzero;stroke:#edaf00;stroke-width:3.16281843;stroke-miterlimit:4;stroke-dashoffset:0;stroke-opacity:1" />
      <path
         id="path3396"
         d="M 464.21573,147.83247 C 450.66063,148.21137 438.37166,157.3904 434.62198,171.14497 C 430.03459,187.97255 439.95064,205.33881 456.77823,209.92622 C 465.79513,212.38433 474.96136,210.66825 482.24698,205.95747 C 483.96172,197.4512 488.96614,189.84538 496.21573,184.92622 C 499.04257,169.0174 489.29435,153.28959 473.40323,148.95747 C 470.77393,148.24069 468.13362,147.86929 465.52823,147.83247 C 465.08857,147.82626 464.65299,147.82025 464.21573,147.83247 z M 449.21573,163.64497 C 450.16625,163.645 451.08551,163.72573 451.99698,163.89497 C 452.90843,164.05125 453.71831,164.24656 454.43448,164.51997 C 455.15061,164.79344 455.8329,165.12417 456.49698,165.48872 C 457.17405,165.84031 457.76519,166.22313 458.24698,166.61372 C 458.72874,166.99135 459.17925,167.36114 459.62198,167.73872 C 460.06467,168.11635 460.42403,168.47573 460.68448,168.80122 C 460.94488,169.12677 461.18184,169.39759 461.40323,169.64497 C 461.62456,169.87937 461.77039,170.05384 461.80948,170.14497 L 459.34073,171.98872 C 458.98915,171.54604 458.71831,171.18665 458.49698,170.92622 C 458.27561,170.66583 457.81206,170.22572 457.12198,169.61372 C 456.44488,169.00177 455.75477,168.50958 455.09073,168.14497 C 454.42666,167.76739 453.56466,167.42625 452.49698,167.11372 C 451.44228,166.80125 450.36155,166.645 449.21573,166.64497 C 447.56208,166.645 445.96311,166.9575 444.46573,167.58247 C 442.96834,168.2075 441.7027,169.05906 440.62198,170.11372 C 439.54126,171.16843 438.66624,172.42363 438.02823,173.89497 C 437.40323,175.35333 437.09072,176.87415 437.09073,178.48872 C 437.09073,180.09029 437.40322,181.62413 438.02823,183.08247 C 438.66625,184.54081 439.52302,185.79602 440.59073,186.86372 C 441.67146,187.91841 442.96832,188.76997 444.46573,189.39497 C 445.97614,190.01997 447.56207,190.33247 449.21573,190.33247 C 452.27562,190.33247 454.91883,189.34289 457.18448,187.36372 C 459.4631,185.37154 460.80685,182.9184 461.18448,179.98872 L 448.49698,179.98872 L 448.49698,176.95747 L 472.15323,176.95747 L 454.37198,203.11372 L 472.18448,203.11372 L 471.18448,206.11372 L 448.62198,206.11372 L 461.43448,187.23872 C 460.97017,187.86344 460.4639,188.4494 459.90323,188.98872 C 458.54905,190.30383 456.93445,191.36373 455.05948,192.14497 C 453.19749,192.92623 451.25999,193.30122 449.21573,193.30122 C 447.15844,193.30122 445.16623,192.92623 443.27823,192.14497 C 441.40323,191.36373 439.80166,190.30383 438.43448,188.98872 C 437.08032,187.67362 435.99176,186.0929 435.18448,184.26997 C 434.37719,182.43404 433.96573,180.50695 433.96573,178.48872 C 433.96574,176.4705 434.37718,174.54342 435.18448,172.70747 C 435.99177,170.87156 437.08031,169.28562 438.43448,167.95747 C 439.80167,166.62937 441.40322,165.5825 443.27823,164.80122 C 445.16624,164.02 447.15843,163.645 449.21573,163.64497 z M 464.27823,179.95747 C 464.12898,181.44791 463.76286,182.8835 463.15323,184.26997 C 462.8364,184.99713 462.46748,185.68612 462.05948,186.33247 L 466.37198,179.95747 L 464.27823,179.95747 z"
         style="fill:#941515;fill-opacity:1;fill-rule:nonzero;stroke:#edaf00;stroke-width:0.5;stroke-miterlimit:4;stroke-dasharray:none;stroke-dashoffset:0;stroke-opacity:1" />
    </g>
    <g
       id="g3520"
       inkscape:export-filename="/wg/stor5/nkoenig/Downloads/icon.png"
       inkscape:export-xdpi="43.139999"
       inkscape:export-ydpi="43.139999">
      <path
         transform="translate(0.3839309,-150.76312)"
         d="M 104.31479,190.53003 A 31.689676,31.689676 0 1 1 40.935438,190.53003 A 31.689676,31.689676 0 1 1 104.31479,190.53003 z"
         sodipodi:ry="31.689676"
         sodipodi:rx="31.689676"
         sodipodi:cy="190.53003"
         sodipodi:cx="72.625114"
         id="path3510"
         style="fill:#ffffff;fill-opacity:1;fill-rule:nonzero;stroke:none;stroke-width:0.50000000000000000;stroke-linecap:butt;stroke-linejoin:miter;marker:none;marker-start:none;marker-mid:none;marker-end:none;stroke-miterlimit:4;stroke-dasharray:none;stroke-dashoffset:0;stroke-opacity:1;visibility:visible;display:inline;overflow:visible;enable-background:accumulate"
         sodipodi:type="arc" />
      <g
         transform="translate(0.3783905,7.6293945e-6)"
         id="g3432">
        <path
           style="fill:none;fill-opacity:1;fill-rule:nonzero;stroke:#edaf00;stroke-width:3.16281843;stroke-miterlimit:4;stroke-dashoffset:0;stroke-opacity:1"
           d="M 43.965901,22.73527 C 42.434561,25.29109 41.225141,28.09592 40.403401,31.11027 C 35.567021,48.85114 46.037521,67.18016 63.778401,72.01652 C 70.718551,73.90849 77.752221,73.45389 84.028401,71.14152 C 82.940721,66.09426 83.014991,60.71378 84.465901,55.39152"
           id="path3406"
           sodipodi:nodetypes="csscc" />
        <path
           style="fill:#941515;fill-opacity:1;fill-rule:nonzero;stroke:#edaf00;stroke-width:0.5;stroke-miterlimit:4;stroke-dasharray:none;stroke-dashoffset:0;stroke-opacity:1"
           d="M 71.665631,8.2612601 C 58.110531,8.6401601 45.821561,17.81919 42.071881,31.57376 C 37.484491,48.40134 47.400541,65.7676 64.228131,70.35501 C 81.055711,74.94241 98.453221,64.99509 103.04063,48.16751 C 105.93849,37.53752 103.03202,26.71412 96.259381,19.01126 C 94.969421,19.22333 93.634081,18.85343 92.634381,17.94876 L 82.915631,25.26126 C 82.998991,25.47678 83.039371,25.69412 83.071881,25.91751 C 83.082441,25.97232 83.095661,26.01874 83.103131,26.07376 C 83.107901,26.12453 83.100921,26.17919 83.103131,26.23001 C 83.116861,26.39799 83.117041,26.56343 83.103131,26.73001 C 83.089781,26.88985 83.047241,27.04324 83.009381,27.19876 C 82.881261,27.725 82.645191,28.23392 82.259381,28.63626 L 88.353131,39.13626 C 90.294061,38.4601 92.502621,39.2615 93.571881,41.10501 C 94.783861,43.19457 94.067711,45.86179 91.978131,47.07376 C 89.888581,48.28573 87.221381,47.56957 86.009381,45.48001 C 84.940121,43.6365 85.364991,41.32901 86.915631,39.98001 L 80.790631,29.48001 C 79.486521,29.81268 78.092721,29.26381 77.384381,28.04251 C 77.220801,27.76049 77.107681,27.46916 77.040631,27.16751 C 77.035671,27.14821 77.045201,27.12437 77.040631,27.10501 C 77.015371,26.97994 76.987561,26.8558 76.978131,26.73001 C 76.864671,25.68295 77.292221,24.59799 78.196881,23.91751 C 79.320991,23.07199 80.813671,23.11175 81.884381,23.91751 L 91.603131,16.60501 C 91.259931,15.90264 91.143651,15.13551 91.196881,14.38626 C 88.164031,12.16624 84.693791,10.43327 80.853131,9.3862601 C 78.223831,8.6694801 75.583521,8.2980801 72.978131,8.2612601 C 72.538471,8.2550501 72.102891,8.2490401 71.665631,8.2612601 z M 56.665631,24.07376 C 57.616151,24.07379 58.535411,24.15452 59.446881,24.32376 C 60.358331,24.48004 61.168211,24.67535 61.884381,24.94876 C 62.600511,25.22223 63.282801,25.55296 63.946881,25.91751 C 64.623951,26.2691 65.215091,26.65192 65.696881,27.04251 C 66.178641,27.42014 66.629151,27.78993 67.071881,28.16751 C 67.514571,28.54514 67.873931,28.90452 68.134381,29.23001 C 68.394781,29.55556 68.631741,29.82638 68.853131,30.07376 C 69.074461,30.30816 69.220291,30.48263 69.259381,30.57376 L 66.790631,32.41751 C 66.439051,31.97483 66.168211,31.61544 65.946881,31.35501 C 65.725511,31.09462 65.261961,30.65451 64.571881,30.04251 C 63.894781,29.43056 63.204671,28.93837 62.540631,28.57376 C 61.876561,28.19618 61.014561,27.85504 59.946881,27.54251 C 58.892181,27.23004 57.811451,27.07379 56.665631,27.07376 C 55.011981,27.07379 53.413011,27.38629 51.915631,28.01126 C 50.418241,28.63629 49.152601,29.48785 48.071881,30.54251 C 46.991161,31.59722 46.116141,32.85242 45.478131,34.32376 C 44.853131,35.78212 44.540621,37.30294 44.540631,38.91751 C 44.540631,40.51908 44.853121,42.05292 45.478131,43.51126 C 46.116151,44.9696 46.972921,46.22481 48.040631,47.29251 C 49.121361,48.3472 50.418221,49.19876 51.915631,49.82376 C 53.426041,50.44876 55.011971,50.76126 56.665631,50.76126 C 59.725521,50.76126 62.368731,49.77168 64.634381,47.79251 C 66.913001,45.80033 68.256751,43.34719 68.634381,40.41751 L 55.946881,40.41751 L 55.946881,37.38626 L 79.603131,37.38626 L 61.821881,63.54251 L 79.634381,63.54251 L 78.634381,66.54251 L 56.071881,66.54251 L 68.884381,47.66751 C 68.420071,48.29223 67.913801,48.87819 67.353131,49.41751 C 65.998951,50.73262 64.384351,51.79252 62.509381,52.57376 C 60.647391,53.35502 58.709891,53.73001 56.665631,53.73001 C 54.608341,53.73001 52.616131,53.35502 50.728131,52.57376 C 48.853131,51.79252 47.251561,50.73262 45.884381,49.41751 C 44.530221,48.10241 43.441661,46.52169 42.634381,44.69876 C 41.827091,42.86283 41.415631,40.93574 41.415631,38.91751 C 41.415641,36.89929 41.827081,34.97221 42.634381,33.13626 C 43.441671,31.30035 44.530211,29.71441 45.884381,28.38626 C 47.251571,27.05816 48.853121,26.01129 50.728131,25.23001 C 52.616141,24.44879 54.608331,24.07379 56.665631,24.07376 z M 71.728131,40.38626 C 71.578881,41.8767 71.212761,43.31229 70.603131,44.69876 C 70.286301,45.42592 69.917381,46.11491 69.509381,46.76126 L 73.821881,40.38626 L 71.728131,40.38626 z"
           id="path3408" />
      </g>
    </g>
    <g
       id="g3436"
       transform="translate(0.3787815,-1.1165924)">
      <path
         sodipodi:nodetypes="csscc"
         id="path3424"
         d="M 43.965511,99.249978 C 42.434171,101.8058 41.224749,104.61063 40.403009,107.62498 C 35.566629,125.36585 46.037131,143.69487 63.778011,148.53123 C 70.718161,150.4232 77.751831,149.9686 84.028011,147.65623 C 82.940331,142.60897 83.014601,137.22849 84.465511,131.90623"
         style="fill:none;fill-opacity:1;fill-rule:nonzero;stroke:#edaf00;stroke-width:3.16281843;stroke-miterlimit:4;stroke-dashoffset:0;stroke-opacity:1" />
      <path
         id="path3426"
         d="M 71.665241,84.775968 C 58.110141,85.154868 45.821171,94.333898 42.071491,108.08847 C 37.484099,124.91605 47.400151,142.28231 64.227741,146.86972 C 81.055321,151.45712 98.452831,141.5098 103.04024,124.68222 C 105.9381,114.05223 103.03163,103.22883 96.258991,95.525968 C 94.969031,95.738038 93.633691,95.368138 92.633991,94.463468 L 82.915241,101.77597 C 82.998601,101.99149 83.038981,102.20883 83.071491,102.43222 C 83.082051,102.48703 83.095271,102.53345 83.102741,102.58847 C 83.107511,102.63924 83.100531,102.6939 83.102741,102.74472 C 83.116471,102.9127 83.116651,103.07814 83.102741,103.24472 C 83.089391,103.40456 83.046851,103.55795 83.008991,103.71347 C 82.880871,104.23971 82.644801,104.74863 82.258991,105.15097 L 88.352741,115.65097 C 90.293671,114.97481 92.502231,115.77621 93.571491,117.61972 C 94.783471,119.70928 94.067321,122.3765 91.977741,123.58847 C 89.888191,124.80044 87.220991,124.08428 86.008991,121.99472 C 84.939731,120.15121 85.364601,117.84372 86.915241,116.49472 L 80.790241,105.99472 C 79.486131,106.32739 78.092331,105.77852 77.383991,104.55722 C 77.220411,104.2752 77.107291,103.98387 77.040241,103.68222 C 77.035281,103.66292 77.044811,103.63908 77.040241,103.61972 C 77.014981,103.49465 76.987171,103.37051 76.977741,103.24472 C 76.864281,102.19766 77.291831,101.1127 78.196491,100.43222 C 79.320601,99.586698 80.813281,99.626458 81.883991,100.43222 L 91.602741,93.119718 C 91.259541,92.417348 91.143261,91.650218 91.196491,90.900968 C 88.163641,88.680948 84.693401,86.947978 80.852741,85.900968 C 78.223441,85.184188 75.583131,84.812788 72.977741,84.775968 C 72.538081,84.769758 72.102501,84.763748 71.665241,84.775968 z M 56.665241,100.58847 C 57.615761,100.5885 58.535021,100.66923 59.446491,100.83847 C 60.357941,100.99475 61.167821,101.19006 61.883991,101.46347 C 62.600121,101.73694 63.282411,102.06767 63.946491,102.43222 C 64.623561,102.78381 65.214701,103.16663 65.696491,103.55722 C 66.178251,103.93485 66.628761,104.30464 67.071491,104.68222 C 67.514181,105.05985 67.873541,105.41923 68.133991,105.74472 C 68.394391,106.07027 68.631351,106.34109 68.852741,106.58847 C 69.074071,106.82287 69.219901,106.99734 69.258991,107.08847 L 66.790241,108.93222 C 66.438661,108.48954 66.167821,108.13015 65.946491,107.86972 C 65.725121,107.60933 65.261571,107.16922 64.571491,106.55722 C 63.894391,105.94527 63.204281,105.45308 62.540241,105.08847 C 61.876171,104.71089 61.014171,104.36975 59.946491,104.05722 C 58.891791,103.74475 57.811061,103.5885 56.665241,103.58847 C 55.011591,103.5885 53.412621,103.901 51.915241,104.52597 C 50.417851,105.151 49.152211,106.00256 48.071491,107.05722 C 46.990771,108.11193 46.115751,109.36713 45.477741,110.83847 C 44.852741,112.29683 44.540231,113.81765 44.540241,115.43222 C 44.540241,117.03379 44.852731,118.56763 45.477741,120.02597 C 46.115761,121.48431 46.972531,122.73952 48.040241,123.80722 C 49.120971,124.86191 50.417831,125.71347 51.915241,126.33847 C 53.425651,126.96347 55.011581,127.27597 56.665241,127.27597 C 59.725131,127.27597 62.368341,126.28639 64.633991,124.30722 C 66.912611,122.31504 68.256361,119.8619 68.633991,116.93222 L 55.946491,116.93222 L 55.946491,113.90097 L 79.602741,113.90097 L 61.821491,140.05722 L 79.633991,140.05722 L 78.633991,143.05722 L 56.071491,143.05722 L 68.883991,124.18222 C 68.419681,124.80694 67.913411,125.3929 67.352741,125.93222 C 65.998561,127.24733 64.383961,128.30723 62.508991,129.08847 C 60.647001,129.86973 58.709501,130.24472 56.665241,130.24472 C 54.607951,130.24472 52.615741,129.86973 50.727741,129.08847 C 48.852741,128.30723 47.251171,127.24733 45.883991,125.93222 C 44.529831,124.61712 43.441271,123.0364 42.633991,121.21347 C 41.826701,119.37754 41.415239,117.45045 41.415239,115.43222 C 41.415249,113.414 41.826691,111.48692 42.633991,109.65097 C 43.441281,107.81506 44.529821,106.22912 45.883991,104.90097 C 47.251181,103.57287 48.852731,102.526 50.727741,101.74472 C 52.615751,100.9635 54.607941,100.5885 56.665241,100.58847 z M 71.727741,116.90097 C 71.578491,118.39141 71.212371,119.827 70.602741,121.21347 C 70.285911,121.94063 69.916991,122.62962 69.508991,123.27597 L 73.821491,116.90097 L 71.727741,116.90097 z"
         style="fill:#225090;fill-opacity:1;fill-rule:nonzero;stroke:#edaf00;stroke-width:0.5;stroke-miterlimit:4;stroke-dasharray:none;stroke-dashoffset:0;stroke-opacity:1" />
    </g>
    <path
       style="fill:none;fill-opacity:1;fill-rule:nonzero;stroke:#3f784e;stroke-width:3.16281843;stroke-miterlimit:4;stroke-dashoffset:0;stroke-opacity:1"
       d="M 44.344295,173.53152 C 42.812955,176.08734 41.603533,178.89217 40.781792,181.90652 C 35.945412,199.64739 46.415915,217.97641 64.15679,222.81277 C 71.09694,224.70474 78.13061,224.25014 84.40679,221.93777 C 83.31911,216.89051 83.39338,211.51003 84.84429,206.18777"
       id="path3428"
       sodipodi:nodetypes="csscc" />
    <path
       style="fill:#9cb3d5;fill-opacity:1;fill-rule:nonzero;stroke:#3f784e;stroke-width:0.5;stroke-miterlimit:4;stroke-dasharray:none;stroke-dashoffset:0;stroke-opacity:1"
       d="M 72.04402,159.05751 C 58.48892,159.43641 46.199955,168.61544 42.450275,182.37001 C 37.862882,199.19759 47.778935,216.56385 64.60652,221.15126 C 81.4341,225.73866 98.83161,215.79134 103.41902,198.96376 C 106.31688,188.33377 103.41041,177.51037 96.63777,169.80751 C 95.34781,170.01958 94.01247,169.64968 93.01277,168.74501 L 83.29402,176.05751 C 83.37738,176.27303 83.41776,176.49037 83.45027,176.71376 C 83.46083,176.76857 83.47405,176.81499 83.48152,176.87001 C 83.48629,176.92078 83.47931,176.97544 83.48152,177.02626 C 83.49525,177.19424 83.49543,177.35968 83.48152,177.52626 C 83.46817,177.6861 83.42563,177.83949 83.38777,177.99501 C 83.25965,178.52125 83.02358,179.03017 82.63777,179.43251 L 88.73152,189.93251 C 90.67245,189.25635 92.88101,190.05775 93.95027,191.90126 C 95.16225,193.99082 94.4461,196.65804 92.35652,197.87001 C 90.26697,199.08198 87.59977,198.36582 86.38777,196.27626 C 85.31851,194.43275 85.74338,192.12526 87.29402,190.77626 L 81.16902,180.27626 C 79.86491,180.60893 78.47111,180.06006 77.76277,178.83876 C 77.59919,178.55674 77.48607,178.26541 77.41902,177.96376 C 77.41406,177.94446 77.42359,177.92062 77.41902,177.90126 C 77.39376,177.77619 77.36595,177.65205 77.35652,177.52626 C 77.24306,176.4792 77.67061,175.39424 78.57527,174.71376 C 79.69938,173.86824 81.19206,173.908 82.26277,174.71376 L 91.98152,167.40126 C 91.63832,166.69889 91.52204,165.93176 91.57527,165.18251 C 88.54242,162.96249 85.07218,161.22952 81.23152,160.18251 C 78.60222,159.46573 75.96191,159.09433 73.35652,159.05751 C 72.91686,159.0513 72.48128,159.04529 72.04402,159.05751 z M 57.04402,174.87001 C 57.99454,174.87004 58.9138,174.95077 59.82527,175.12001 C 60.73672,175.27629 61.5466,175.4716 62.26277,175.74501 C 62.9789,176.01848 63.66119,176.34921 64.32527,176.71376 C 65.00234,177.06535 65.59348,177.44817 66.07527,177.83876 C 66.55703,178.21639 67.00754,178.58618 67.45027,178.96376 C 67.89296,179.34139 68.25232,179.70077 68.51277,180.02626 C 68.77317,180.35181 69.01013,180.62263 69.23152,180.87001 C 69.45285,181.10441 69.59868,181.27888 69.63777,181.37001 L 67.16902,183.21376 C 66.81744,182.77108 66.5466,182.41169 66.32527,182.15126 C 66.1039,181.89087 65.64035,181.45076 64.95027,180.83876 C 64.27317,180.22681 63.58306,179.73462 62.91902,179.37001 C 62.25495,178.99243 61.39295,178.65129 60.32527,178.33876 C 59.27057,178.02629 58.18984,177.87004 57.04402,177.87001 C 55.39037,177.87004 53.7914,178.18254 52.29402,178.80751 C 50.79663,179.43254 49.530995,180.2841 48.450275,181.33876 C 47.369555,182.39347 46.494535,183.64867 45.856525,185.12001 C 45.231525,186.57837 44.919015,188.09919 44.919025,189.71376 C 44.919025,191.31533 45.231515,192.84917 45.856525,194.30751 C 46.494545,195.76585 47.351315,197.02106 48.419025,198.08876 C 49.499755,199.14345 50.79661,199.99501 52.29402,200.62001 C 53.80443,201.24501 55.39036,201.55751 57.04402,201.55751 C 60.10391,201.55751 62.74712,200.56793 65.01277,198.58876 C 67.29139,196.59658 68.63514,194.14344 69.01277,191.21376 L 56.32527,191.21376 L 56.32527,188.18251 L 79.98152,188.18251 L 62.20027,214.33876 L 80.01277,214.33876 L 79.01277,217.33876 L 56.45027,217.33876 L 69.26277,198.46376 C 68.79846,199.08848 68.29219,199.67444 67.73152,200.21376 C 66.37734,201.52887 64.76274,202.58877 62.88777,203.37001 C 61.02578,204.15127 59.08828,204.52626 57.04402,204.52626 C 54.98673,204.52626 52.99452,204.15127 51.10652,203.37001 C 49.231525,202.58877 47.629955,201.52887 46.262775,200.21376 C 44.908615,198.89866 43.820055,197.31794 43.012775,195.49501 C 42.205485,193.65908 41.794023,191.73199 41.794023,189.71376 C 41.794033,187.69554 42.205475,185.76846 43.012775,183.93251 C 43.820065,182.0966 44.908605,180.51066 46.262775,179.18251 C 47.629965,177.85441 49.231515,176.80754 51.10652,176.02626 C 52.99453,175.24504 54.98672,174.87004 57.04402,174.87001 z M 72.10652,191.18251 C 71.95727,192.67295 71.59115,194.10854 70.98152,195.49501 C 70.66469,196.22217 70.29577,196.91116 69.88777,197.55751 L 74.20027,191.18251 L 72.10652,191.18251 z"
       id="path3430" />
    <path
       sodipodi:type="arc"
       style="fill:none;fill-opacity:1;fill-rule:nonzero;stroke:#000000;stroke-width:5.53954744;stroke-miterlimit:4;stroke-dasharray:none;stroke-dashoffset:0;stroke-opacity:1"
       id="path3528"
       sodipodi:cx="424.0347"
       sodipodi:cy="114.376"
       sodipodi:rx="35.006859"
       sodipodi:ry="35.006859"
       d="M 459.04156,114.376 A 35.006859,35.006859 0 1 1 389.02784,114.376 A 35.006859,35.006859 0 1 1 459.04156,114.376 z"
       transform="matrix(0.9026008,0,0,0.9026008,-137.9277,-62.432833)" />
    <path
       style="font-size:40px;font-style:normal;font-variant:normal;font-weight:bold;font-stretch:normal;fill:#000000;fill-opacity:1;stroke:none;stroke-width:1px;stroke-linecap:butt;stroke-linejoin:miter;stroke-opacity:1;font-family:Interstate;-inkscape-font-specification:Sans"
       d="M 238.25254,13.498924 C 235.66188,13.498962 233.15319,13.971181 230.77572,14.954938 C 228.4146,15.938766 226.39783,17.257045 224.6762,18.92946 C 222.97096,20.601937 221.6002,22.599035 220.58363,24.91092 C 219.56703,27.222856 219.04891,29.649543 219.04891,32.190986 C 219.04891,34.732464 219.56703,37.159161 220.58363,39.471048 C 221.6002,41.766582 222.97096,43.757111 224.6762,45.413157 C 226.39783,47.069215 228.4146,48.403899 230.77572,49.387679 C 233.15319,50.371484 235.66188,50.843692 238.25254,50.843692 C 240.82679,50.843692 243.26658,50.371484 245.61131,49.387679 C 247.97238,48.403899 250.00556,47.069215 251.71083,45.413157 C 252.41685,44.734015 253.05436,43.996142 253.63906,43.209461 L 237.50486,66.977893 L 265.9168,66.977893 L 267.17605,63.200129 L 244.74558,63.200129 L 267.1367,30.262752 L 237.34745,30.262752 L 237.34745,34.079868 L 253.32425,34.079868 C 252.84872,37.769107 251.15658,40.858206 248.28723,43.366868 C 245.4342,45.859147 242.10571,47.10528 238.25254,47.10528 C 236.17016,47.10528 234.17306,46.711763 232.27108,45.924729 C 230.38546,45.137695 228.75237,44.065364 227.39147,42.73724 C 226.04695,41.392734 224.96805,39.812105 224.16463,37.975687 C 223.37759,36.139278 222.98407,34.207783 222.98408,32.190986 C 222.98407,30.157835 223.37759,28.24272 224.16463,26.406285 C 224.96805,24.553502 226.06991,22.972875 227.43082,21.644728 C 228.79173,20.316638 230.38548,19.244305 232.27108,18.45724 C 234.15667,17.670238 236.17016,17.276721 238.25254,17.276688 C 239.69542,17.276721 241.05632,17.47348 242.38447,17.866964 C 243.72895,18.260513 244.81442,18.690102 245.65067,19.16557 C 246.48686,19.624705 247.35587,20.244494 248.20853,21.015101 C 249.07751,21.785767 249.66123,22.33997 249.94,22.667873 C 250.21871,22.995832 250.55976,23.448375 251.0025,24.005831 L 254.11128,21.68408 C 254.06206,21.569334 253.87841,21.349619 253.59971,21.054453 C 253.32092,20.742948 253.02252,20.4019 252.69462,19.991956 C 252.36665,19.582074 251.91411,19.129529 251.35666,18.653998 C 250.79915,18.17853 250.23183,17.712869 249.62519,17.237337 C 249.01849,16.745474 248.27408,16.263417 247.42149,15.820675 C 246.58525,15.361608 245.72606,14.945134 244.82428,14.600772 C 243.92244,14.256481 242.90258,14.010533 241.75485,13.813738 C 240.60707,13.600621 239.44948,13.498962 238.25254,13.498924 z M 257.22007,34.040516 L 259.85663,34.040516 L 254.4261,42.068261 C 254.93987,41.254342 255.40442,40.386728 255.80341,39.471048 C 256.57109,37.725146 257.03211,35.917373 257.22007,34.040516 z"
       id="path3530"
       sodipodi:nodetypes="cccsscccscscccccccccsssccscsssssssccsssscscccccsc" />
    <g
       id="g3599"
       inkscape:export-filename="/wg/stor5/nkoenig/Downloads/icon.png"
       inkscape:export-xdpi="23.860001"
       inkscape:export-ydpi="23.860001">
      <path
         transform="matrix(0.8560997,0,0,0.8560997,-116.71237,26.197541)"
         d="M 459.04156,114.376 A 35.006859,35.006859 0 1 1 389.02784,114.376 A 35.006859,35.006859 0 1 1 459.04156,114.376 z"
         sodipodi:ry="35.006859"
         sodipodi:rx="35.006859"
         sodipodi:cy="114.376"
         sodipodi:cx="424.0347"
         id="path3550"
         style="fill:#ffffff;fill-opacity:1;fill-rule:nonzero;stroke:#000000;stroke-width:0.35060835;stroke-miterlimit:4;stroke-dasharray:none;stroke-dashoffset:0;stroke-opacity:1"
         sodipodi:type="arc" />
      <path
         transform="translate(-2.7901418,-2.7758252)"
         d="M 249.09375,96.875 C 247.4587,96.875 245.87664,97.124004 244.3125,97.375 C 244.77671,97.427562 245.25792,97.414435 245.71875,97.5 C 246.87309,97.697925 247.91116,97.901362 248.90625,98.28125 C 249.84751,98.640686 250.74194,99.063637 251.59375,99.53125 C 252.50041,100.00208 253.25298,100.53288 253.90625,101.0625 C 254.50813,101.53429 255.06586,101.99188 255.625,102.46875 C 256.21066,102.96834 256.70758,103.45489 257.09375,103.9375 C 257.39846,104.31844 257.67449,104.61238 257.9375,104.90625 C 258.08937,105.0671 258.19871,105.20151 258.3125,105.34375 C 258.42629,105.48599 258.50523,105.56455 258.625,105.84375 C 258.84614,106.34237 258.69005,106.9277 258.25,107.25 L 255.21875,109.5 C 254.715,109.86707 254.01122,109.77048 253.625,109.28125 C 253.17685,108.71698 252.84834,108.2628 252.625,108 C 252.46501,107.81182 251.87304,107.2778 251.03125,106.53125 C 250.25801,105.83241 249.47471,105.27293 248.75,104.875 C 248.74986,104.86458 248.74986,104.85417 248.75,104.84375 C 248.03816,104.43901 247.06179,104.05319 245.8125,103.6875 C 245.80208,103.68764 245.79167,103.68764 245.78125,103.6875 C 244.59654,103.33651 243.40541,103.15628 242.09375,103.15625 C 240.20704,103.15628 238.38611,103.50978 236.6875,104.21875 C 234.96735,104.93675 233.53238,105.90328 232.3125,107.09375 C 231.09017,108.28664 230.10231,109.69778 229.375,111.375 C 228.66603,113.02929 228.31249,114.72747 228.3125,116.5625 C 228.31249,118.38034 228.66702,120.09803 229.375,121.75 C 230.1046,123.41766 231.07017,124.85143 232.28125,126.0625 C 233.49461,127.24664 234.96302,128.18648 236.6875,128.90625 C 238.40732,129.6179 240.20705,129.96875 242.09375,129.96875 C 245.60639,129.96875 248.52792,128.86243 251.125,126.59375 C 253.36913,124.63172 254.61778,122.26875 255.25,119.5625 L 241.1875,119.5625 C 240.5498,119.56039 240.03336,119.04395 240.03125,118.40625 L 240.03125,114.6875 C 240.03336,114.0498 240.5498,113.53336 241.1875,113.53125 L 270.28125,113.53125 C 270.71272,113.52771 271.1105,113.76393 271.31389,114.14446 C 271.51728,114.525 271.49267,114.98698 271.25,115.34375 L 250.625,145.6875 L 270.34375,145.6875 C 270.91516,145.68157 271.40578,146.09263 271.5,146.65625 C 276.17956,141.36099 279.125,134.49601 279.125,126.875 C 279.125,110.29335 265.6768,96.874999 249.09375,96.875 z M 222.5,113.21875 C 220.38078,117.32952 219.0625,121.92855 219.0625,126.875 C 219.0625,143.45665 232.51209,156.90625 249.09375,156.90625 C 255.36793,156.90625 261.18227,154.97911 266,151.6875 L 241.34375,151.6875 C 240.91228,151.69104 240.5145,151.45482 240.31111,151.07429 C 240.10772,150.69375 240.13233,150.23177 240.375,149.875 L 251.53125,133.46875 C 250.93056,133.79363 250.36867,134.1667 249.71875,134.4375 C 247.28168,135.46004 244.74517,135.9375 242.09375,135.9375 C 239.42718,135.9375 236.81642,135.46069 234.34375,134.4375 C 231.90496,133.42136 229.78108,132.02574 228,130.3125 C 226.2283,128.59191 224.80024,126.52778 223.75,124.15625 C 222.69447,121.75582 222.15625,119.20289 222.15625,116.5625 C 222.15625,115.42355 222.30046,114.31955 222.5,113.21875 z"
         id="path3597"
         style="font-weight:bold;fill:#941515;fill-opacity:1;fill-rule:nonzero;stroke:#000000;stroke-width:0.30000001;stroke-miterlimit:4;stroke-dasharray:none;stroke-dashoffset:0;stroke-opacity:1;-inkscape-font-specification:Sans Bold"
         inkscape:original="M 249.09375 95.71875 C 231.88401 95.718747 217.90625 109.66526 217.90625 126.875 C 217.90625 144.08474 231.884 158.0625 249.09375 158.0625 C 266.30349 158.0625 280.28126 144.08475 280.28125 126.875 C 280.28125 109.66526 266.30349 95.718749 249.09375 95.71875 z M 242.09375 98.3125 C 243.2629 98.312534 244.37888 98.416836 245.5 98.625 C 246.62108 98.817222 247.6191 99.038705 248.5 99.375 C 249.38084 99.711362 250.21444 100.1141 251.03125 100.5625 C 251.86404 100.99497 252.59489 101.48831 253.1875 101.96875 C 253.78005 102.43323 254.33044 102.87932 254.875 103.34375 C 255.41951 103.80824 255.86714 104.25588 256.1875 104.65625 C 256.50779 105.05667 256.79019 105.38324 257.0625 105.6875 C 257.33473 105.97582 257.51442 106.20042 257.5625 106.3125 L 254.53125 108.5625 C 254.09879 108.01798 253.77224 107.57034 253.5 107.25 C 253.2277 106.92971 252.6613 106.40902 251.8125 105.65625 C 250.97964 104.90353 250.12927 104.29223 249.3125 103.84375 C 248.49567 103.37932 247.43826 102.94691 246.125 102.5625 C 244.82769 102.17815 243.50313 102.00003 242.09375 102 C 240.05973 102.00003 238.09179 102.38752 236.25 103.15625 C 234.40819 103.92503 232.8293 104.95275 231.5 106.25 C 230.1707 107.54729 229.09728 109.0965 228.3125 110.90625 C 227.54374 112.70004 227.15624 114.57657 227.15625 116.5625 C 227.15624 118.53246 227.54375 120.42498 228.3125 122.21875 C 229.09727 124.01252 230.15545 125.56171 231.46875 126.875 C 232.79804 128.17228 234.40816 129.19999 236.25 129.96875 C 238.10781 130.7375 240.05973 131.125 242.09375 131.125 C 245.85744 131.125 249.08822 129.90315 251.875 127.46875 C 254.67772 125.01835 256.34801 122.00982 256.8125 118.40625 L 241.1875 118.40625 L 241.1875 114.6875 L 270.28125 114.6875 L 248.4375 146.84375 L 270.34375 146.84375 L 269.09375 150.53125 L 241.34375 150.53125 L 257.125 127.3125 C 256.55388 128.08091 255.90836 128.80538 255.21875 129.46875 C 253.55308 131.08634 251.58749 132.41407 249.28125 133.375 C 246.99097 134.33595 244.60822 134.78125 242.09375 134.78125 C 239.56326 134.78125 237.1035 134.33595 234.78125 133.375 C 232.47496 132.41407 230.49415 131.08634 228.8125 129.46875 C 227.14686 127.85116 225.80547 125.92972 224.8125 123.6875 C 223.81951 121.4293 223.3125 119.04495 223.3125 116.5625 C 223.3125 114.08007 223.81951 111.69575 224.8125 109.4375 C 225.80547 107.1793 227.14686 105.22739 228.8125 103.59375 C 230.49415 101.96018 232.47496 100.67974 234.78125 99.71875 C 237.1035 98.757835 239.56326 98.31254 242.09375 98.3125 z M 260.625 118.375 C 260.4414 120.20827 259.9686 121.98215 259.21875 123.6875 C 258.82902 124.58192 258.37684 125.42373 257.875 126.21875 L 263.1875 118.375 L 260.625 118.375 z "
         inkscape:radius="-1.1599795"
         sodipodi:type="inkscape:offset" />
    </g>
    <path
       sodipodi:type="arc"
       style="fill:none;fill-opacity:1;fill-rule:nonzero;stroke:#000000;stroke-width:5.53954744;stroke-miterlimit:4;stroke-dasharray:none;stroke-dashoffset:0;stroke-opacity:1"
       id="path3564"
       sodipodi:cx="424.0347"
       sodipodi:cy="114.376"
       sodipodi:rx="35.006859"
       sodipodi:ry="35.006859"
       d="M 459.04156,114.376 A 35.006859,35.006859 0 1 1 389.02784,114.376 A 35.006859,35.006859 0 1 1 459.04156,114.376 z"
       transform="matrix(0.9026008,0,0,0.9026008,-47.48406,-64.123682)" />
    <path
       style="font-size:40px;font-style:normal;font-variant:normal;font-weight:bold;font-stretch:normal;fill:#000000;fill-opacity:1;stroke:none;stroke-width:1px;stroke-linecap:butt;stroke-linejoin:miter;stroke-opacity:1;font-family:Interstate;-inkscape-font-specification:Sans"
       d="M 328.69618,11.808071 C 326.10552,11.808111 323.59683,12.280331 321.21936,13.264091 C 318.85824,14.247921 316.84147,15.566191 315.11984,17.238611 C 313.4146,18.911091 312.04384,20.908181 311.02727,23.220071 C 310.01067,25.532011 309.49255,27.958691 309.49255,30.500141 C 309.49255,33.041611 310.01067,35.468311 311.02727,37.780201 C 312.04384,40.075731 313.4146,42.066261 315.11984,43.722311 C 316.84147,45.378361 318.85824,46.713051 321.21936,47.696831 C 323.59683,48.680631 326.10552,49.152841 328.69618,49.152841 C 331.27043,49.152841 333.71022,48.680631 336.05495,47.696831 C 338.41602,46.713051 340.4492,45.378361 342.15447,43.722311 C 342.86049,43.043161 343.498,42.305291 344.0827,41.518611 L 327.9485,65.287041 L 356.36044,65.287041 L 357.61969,61.509281 L 335.18922,61.509281 L 357.58034,28.571901 L 327.79109,28.571901 L 327.79109,32.389021 L 343.76789,32.389021 C 343.29236,36.078261 341.60022,39.167361 338.73087,41.676021 C 335.87784,44.168301 332.54935,45.414431 328.69618,45.414431 C 326.6138,45.414431 324.6167,45.020911 322.71472,44.233881 C 320.8291,43.446841 319.19601,42.374511 317.83511,41.046391 C 316.49059,39.701881 315.41169,38.121251 314.60827,36.284841 C 313.82123,34.448431 313.42771,32.516931 313.42772,30.500141 C 313.42771,28.466981 313.82123,26.551871 314.60827,24.715431 C 315.41169,22.862651 316.51355,21.282021 317.87446,19.953881 C 319.23537,18.625791 320.82912,17.553451 322.71472,16.766391 C 324.60031,15.979391 326.6138,15.585871 328.69618,15.585841 C 330.13906,15.585871 331.49996,15.782631 332.82811,16.176111 C 334.17259,16.569661 335.25806,16.999251 336.09431,17.474721 C 336.9305,17.933851 337.79951,18.553641 338.65217,19.324251 C 339.52115,20.094921 340.10487,20.649121 340.38364,20.977021 C 340.66235,21.304981 341.0034,21.757521 341.44614,22.314981 L 344.55492,19.993231 C 344.5057,19.878481 344.32205,19.658771 344.04335,19.363601 C 343.76456,19.052101 343.46616,18.711051 343.13826,18.301111 C 342.81029,17.891221 342.35775,17.438681 341.8003,16.963151 C 341.24279,16.487681 340.67547,16.022021 340.06883,15.546491 C 339.46213,15.054621 338.71772,14.572571 337.86513,14.129821 C 337.02889,13.670761 336.1697,13.254281 335.26792,12.909921 C 334.36608,12.565631 333.34622,12.319681 332.19849,12.122891 C 331.05071,11.909771 329.89312,11.808111 328.69618,11.808071 z M 347.66371,32.349671 L 350.30027,32.349671 L 344.86974,40.377411 C 345.38351,39.563491 345.84806,38.695881 346.24705,37.780201 C 347.01473,36.034301 347.47575,34.226521 347.66371,32.349671 z"
       id="path3566"
       sodipodi:nodetypes="cccsscccscscccccccccsssccscsssssssccsssscscccccsc" />
  </g>
</svg>
