<?xml version="1.0" encoding="UTF-8" standalone="no"?>
<svg
   xmlns:dc="http://purl.org/dc/elements/1.1/"
   xmlns:cc="http://creativecommons.org/ns#"
   xmlns:rdf="http://www.w3.org/1999/02/22-rdf-syntax-ns#"
   xmlns:svg="http://www.w3.org/2000/svg"
   xmlns="http://www.w3.org/2000/svg"
   xmlns:sodipodi="http://sodipodi.sourceforge.net/DTD/sodipodi-0.dtd"
   xmlns:inkscape="http://www.inkscape.org/namespaces/inkscape"
   fill="#000000"
   height="24"
   viewBox="0 0 24 24"
   width="24"
   id="svg2"
   version="1.1"
   inkscape:version="0.48.4 r9939"
   sodipodi:docname="clear.svg">
  <metadata
     id="metadata12">
    <rdf:RDF>
      <cc:Work
         rdf:about="">
        <dc:format>image/svg+xml</dc:format>
        <dc:type
           rdf:resource="http://purl.org/dc/dcmitype/StillImage" />
      </cc:Work>
    </rdf:RDF>
  </metadata>
  <defs
     id="defs10" />
  <sodipodi:namedview
     pagecolor="#ffffff"
     bordercolor="#666666"
     borderopacity="1"
     objecttolerance="10"
     gridtolerance="10"
     guidetolerance="10"
     inkscape:pageopacity="0"
     inkscape:pageshadow="2"
     inkscape:window-width="1253"
     inkscape:window-height="1042"
     id="namedview8"
     showgrid="false"
     inkscape:zoom="19.666667"
     inkscape:cx="14.984877"
     inkscape:cy="7.9041152"
     inkscape:window-x="3573"
     inkscape:window-y="175"
     inkscape:window-maximized="0"
     inkscape:current-layer="svg2" />
  <path
     inkscape:connector-curvature="0"
     d="M 3,5.0000002 H 5 V 2.9999998 c -1.1,0 -2,0.9000004 -2,2.0000004 z M 3,13 H 5 V 11 H 3 v 2 z m 4,8 H 9 V 19 H 7 v 2 z M 3,9.0000002 h 2 v -2 H 3 v 2 z M 13,2.9999998 h -2 v 2.0000004 h 2 V 2.9999998 z m 6,0 v 2.0000004 h 2 c 0,-1.1 -0.9,-2.0000004 -2,-2.0000004 z M 5,21 V 19 H 3 c 0,1.1 0.9,2 2,2 z M 3,17 H 5 V 15 H 3 v 2 z M 9,2.9999998 H 7 V 5.0000002 H 9 V 2.9999998 z M 11,21 h 2 v -2 h -2 v 2 z m 8,-8 h 2 v -2 h -2 v 2 z m 0,8 c 1.1,0 2,-0.9 2,-2 h -2 v 2 z M 19,9.0000002 h 2 v -2 h -2 v 2 z M 19,17 h 2 v -2 h -2 v 2 z m -4,4 h 2 v -2 h -2 v 2 z M 15,5.0000002 h 2 V 2.9999998 H 15 V 5.0000002 z M 7,17 H 17 V 7.0000002 H 7 V 17 z M 9,9.0000002 h 6 V 15 H 9 V 9.0000002 z"
     id="path3059" />
  <path
     d="M 3.492168,1.3461837 1.346185,3.4921666 C 7.7256361,9.8872285 14.138271,16.248907 20.507833,22.653816 l 2.145982,-2.145983 C 16.27437,14.112767 9.861726,7.7510951 3.492168,1.3461837 z"
     id="path4-0"
     inkscape:connector-curvature="0"
     sodipodi:nodetypes="ccccc"
     style="fill:#ffffff" />
  <path
     d="M 4.343626,2.6414519 2.641453,4.3436252 C 8.306198,10.022232 14.000409,15.671198 19.656375,21.358548 l 1.702172,-1.702173 C 15.693806,13.977764 9.999588,8.3288051 4.343626,2.6414519 z"
     id="path4"
     inkscape:connector-curvature="0"
     sodipodi:nodetypes="ccccc" />
  <path
     d="M0 0h24v24H0z"
     fill="none"
     id="path6" />
  <path
     style="fill:none"
     inkscape:connector-curvature="0"
     d="M 0,1.5e-7 H 24 V 24 H 0 z"
     id="path3057" />
</svg>
