<?xml version="1.0" encoding="UTF-8" standalone="no"?>
<svg
   xmlns:dc="http://purl.org/dc/elements/1.1/"
   xmlns:cc="http://creativecommons.org/ns#"
   xmlns:rdf="http://www.w3.org/1999/02/22-rdf-syntax-ns#"
   xmlns:svg="http://www.w3.org/2000/svg"
   xmlns="http://www.w3.org/2000/svg"
   xmlns:sodipodi="http://sodipodi.sourceforge.net/DTD/sodipodi-0.dtd"
   xmlns:inkscape="http://www.inkscape.org/namespaces/inkscape"
   fill="#000000"
   height="24"
   viewBox="0 0 24 24"
   width="24"
   id="svg2"
   version="1.1"
   inkscape:version="0.48.4 r9939"
   sodipodi:docname="file_upload.svg">
  <metadata
     id="metadata12">
    <rdf:RDF>
      <cc:Work
         rdf:about="">
        <dc:format>image/svg+xml</dc:format>
        <dc:type
           rdf:resource="http://purl.org/dc/dcmitype/StillImage" />
      </cc:Work>
    </rdf:RDF>
  </metadata>
  <defs
     id="defs10" />
  <sodipodi:namedview
     pagecolor="#ffffff"
     bordercolor="#666666"
     borderopacity="1"
     objecttolerance="10"
     gridtolerance="10"
     guidetolerance="10"
     inkscape:pageopacity="0"
     inkscape:pageshadow="2"
     inkscape:window-width="1036"
     inkscape:window-height="1131"
     id="namedview8"
     showgrid="false"
     inkscape:zoom="9.8333333"
     inkscape:cx="-5.8983051"
     inkscape:cy="12"
     inkscape:window-x="0"
     inkscape:window-y="24"
     inkscape:window-maximized="0"
     inkscape:current-layer="svg2" />
  <path
     d="M0 0h24v24H0z"
     fill="none"
     id="path4"
     style="fill:#ffffff" />
  <path
     d="M9 16h6v-6h4l-7-7-7 7h4zm-4 2h14v2H5z"
     id="path6"
     style="fill:#ffffff" />
  <path
     style="fill:#ffffff;fill-opacity:1;stroke:none"
     d="m 9.0508475,12.945763 0,-3.0000003 -1.9574388,0 -1.9574388,0 3.432015,-3.432015 L 12,3.0817326 l 3.432015,3.4320151 3.432016,3.432015 -1.957439,0 -1.957439,0 0,3.0000003 0,3 -2.949153,0 -2.9491525,0 0,-3 z"
     id="path2989"
     inkscape:connector-curvature="0" />
  <path
     style="fill:#ffffff;fill-opacity:1;stroke:none"
     d="m 5.0847458,18.99661 0,-0.915254 6.9152542,0 6.915254,0 0,0.915254 0,0.915254 -6.915254,0 -6.9152542,0 0,-0.915254 z"
     id="path2991"
     inkscape:connector-curvature="0" />
  <path
     style="fill:#ffffff;fill-opacity:1;stroke:none"
     d="m 9.0508475,12.945763 0,-3.0000003 -1.9065885,0 -1.9065886,0 L 8.6188353,6.564598 12,3.1834332 l 3.381165,3.3811648 3.381164,3.3811647 -1.906588,0 -1.906588,0 0,3.0000003 0,3 -2.949153,0 -2.9491525,0 0,-3 z"
     id="path2993"
     inkscape:connector-curvature="0" />
  <path
     style="fill:#ffffff;fill-opacity:1;stroke:none"
     d="m 9.0508475,12.945763 0,-3.0000003 -1.9065885,0 -1.9065886,0 L 8.6188353,6.564598 12,3.1834332 l 3.381165,3.3811648 3.381164,3.3811647 -1.906588,0 -1.906588,0 0,3.0000003 0,3 -2.949153,0 -2.9491525,0 0,-3 z"
     id="path2995"
     inkscape:connector-curvature="0" />
</svg>
