<?xml version="1.0" encoding="UTF-8" standalone="no"?>
<!-- Created with Inkscape (http://www.inkscape.org/) -->

<svg
   xmlns:dc="http://purl.org/dc/elements/1.1/"
   xmlns:cc="http://creativecommons.org/ns#"
   xmlns:rdf="http://www.w3.org/1999/02/22-rdf-syntax-ns#"
   xmlns:svg="http://www.w3.org/2000/svg"
   xmlns="http://www.w3.org/2000/svg"
   xmlns:sodipodi="http://sodipodi.sourceforge.net/DTD/sodipodi-0.dtd"
   xmlns:inkscape="http://www.inkscape.org/namespaces/inkscape"
   version="1.1"
   width="134.60884"
   height="159.51036"
   id="svg2"
   inkscape:version="0.48.4 r9939"
   sodipodi:docname="gazebo.svg">
  <sodipodi:namedview
     pagecolor="#000000"
     bordercolor="#666666"
     borderopacity="1"
     objecttolerance="10"
     gridtolerance="10"
     guidetolerance="10"
     inkscape:pageopacity="0"
     inkscape:pageshadow="2"
     inkscape:window-width="1920"
     inkscape:window-height="1004"
     id="namedview11"
     showgrid="false"
     inkscape:zoom="4.1847363"
     inkscape:cx="17.965509"
     inkscape:cy="60.960756"
     inkscape:window-x="0"
     inkscape:window-y="24"
     inkscape:window-maximized="1"
     inkscape:current-layer="svg2" />
  <defs
     id="defs4">
    <clipPath
       id="clipPath3020">
      <path
         d="M 0,1276.08 0,0 l 5286.98,0 0,1276.08 -5286.98,0 z"
         id="path3022" />
    </clipPath>
  </defs>
  <metadata
     id="metadata7">
    <rdf:RDF>
      <cc:Work
         rdf:about="">
        <dc:format>image/svg+xml</dc:format>
        <dc:type
           rdf:resource="http://purl.org/dc/dcmitype/StillImage" />
        <dc:title />
      </cc:Work>
    </rdf:RDF>
  </metadata>
  <path
     style="fill:#ffffff;stroke:none;stroke-width:1px;stroke-linecap:butt;stroke-linejoin:miter;stroke-opacity:1;fill-opacity:1"
     d="m 4.3013463,50.064994 0,65.715016 L 65.476049,153.2973 130.9521,115.78001 72.405996,80.413382 68.582577,83.758874 3.5844552,44.807793 z"
     id="path3007"
     inkscape:connector-curvature="0" />
  <path
     inkscape:connector-curvature="0"
     style="fill:#231f20;fill-opacity:1;fill-rule:nonzero;stroke:none"
     id="path3024"
     d="m 62.8955,85.065944 2.02975,1.25975 c 0.728125,0.45312 1.55275,0.67775 2.380375,0.67775 0.82575,0 1.653375,-0.22463 2.383375,-0.68113 l 2.03225,-1.26462 20.605376,12.75975 L 64.8145,114.95031 c -1.32725,0.82362 -2.132875,2.27775 -2.1265,3.84512 L 62.7685,146.87256 13.064,116.00831 62.8955,85.065944 z M 8.863275,51.516689 54.34325,79.756444 8.863275,107.99468 l 0,-56.477991 z M 134.49875,79.664564 c -0.004,-1.63325 -0.8925,-3.139625 -2.32625,-3.933 -1.43,-0.792 -3.17875,-0.747125 -4.5675,0.117125 L 100.87163,92.496694 80.2685,79.737814 132.4775,47.223189 c 1.325,-0.825125 2.13125,-2.275375 2.13125,-3.836375 -0.004,-1.557625 -0.8125,-3.008375 -2.1375,-3.829625 L 69.680125,0.676564 c -1.4575,-0.90375 -3.29825,-0.90125 -4.754875,0.0025 L 2.132325,39.670439 C 0.807129,40.492189 0,41.942439 0,43.503439 c 0,0.40575 0,72.098621 0,72.504871 0,1.56063 0.807129,3.01025 2.132325,3.8345 l 62.792925,38.98976 c 0.03075,0.019 0.0625,0.0303 0.09288,0.0479 0.03462,0.0186 0.06337,0.0449 0.09913,0.0659 0.07075,0.0376 0.1455,0.0664 0.219625,0.10253 0.07325,0.0376 0.145,0.0737 0.22225,0.10645 0.117125,0.0474 0.23675,0.0889 0.356375,0.125 0.07088,0.0249 0.13925,0.0513 0.2115,0.0688 0.13425,0.041 0.271875,0.0625 0.408625,0.0884 0.05712,0.0117 0.11725,0.0254 0.17575,0.0288 0.196875,0.0303 0.3955,0.044 0.592375,0.044 l 0,0 c 0,0 0.001,0 0.0019,0 0.40925,0 0.821875,-0.0576 1.21825,-0.16748 0.004,-0.004 0.0064,-0.004 0.0064,-0.004 0.153875,-0.041 0.30525,-0.10254 0.454125,-0.16113 0.04487,-0.0186 0.09275,-0.0298 0.13675,-0.0474 0.126,-0.0552 0.242625,-0.12891 0.36225,-0.19532 0.066,-0.0361 0.13575,-0.0649 0.20075,-0.10254 l 0.0019,-0.003 c 0.003,0 0.003,0 0.003,0 l 0.120625,-0.0762 62.66537,-38.91018 c 1.33126,-0.82763 2.13625,-2.28175 2.13375,-3.84913 l -0.11,-36.329116" />
  <path
     inkscape:connector-curvature="0"
     style="fill:#ffffff;fill-opacity:1;fill-rule:nonzero;stroke:none"
     id="path3026"
     d="m 71.71625,121.27843 0.07725,25.623 53.784,-33.398 -0.075,-25.716236 -53.78625,33.491236" />
  <path
     inkscape:connector-curvature="0"
     style="fill:#f58113;fill-opacity:1;fill-rule:nonzero;stroke:none"
     id="path3028"
     d="M 13.064,43.503439 67.30375,77.181689 121.543,43.404814 67.308625,9.819064 13.064,43.503439" />
</svg>
