<?xml version="1.0" encoding="UTF-8" standalone="no"?>
<!-- Generator: Adobe Illustrator 19.2.1, SVG Export Plug-In . SVG Version: 6.00 Build 0)  -->

<svg
   xmlns:dc="http://purl.org/dc/elements/1.1/"
   xmlns:cc="http://creativecommons.org/ns#"
   xmlns:rdf="http://www.w3.org/1999/02/22-rdf-syntax-ns#"
   xmlns:svg="http://www.w3.org/2000/svg"
   xmlns="http://www.w3.org/2000/svg"
   xmlns:sodipodi="http://sodipodi.sourceforge.net/DTD/sodipodi-0.dtd"
   xmlns:inkscape="http://www.inkscape.org/namespaces/inkscape"
   version="1.1"
   x="0px"
   y="0px"
   viewBox="0 0 64 64"
   enable-background="new 0 0 64 64"
   xml:space="preserve"
   id="svg2"
   inkscape:version="0.48.4 r9939"
   width="100%"
   height="100%"
   sodipodi:docname="link.svg"><metadata
     id="metadata85"><rdf:RDF><cc:Work
         rdf:about=""><dc:format>image/svg+xml</dc:format><dc:type
           rdf:resource="http://purl.org/dc/dcmitype/StillImage" /></cc:Work></rdf:RDF></metadata><defs
     id="defs83" /><sodipodi:namedview
     pagecolor="#ffffff"
     bordercolor="#666666"
     borderopacity="1"
     objecttolerance="10"
     gridtolerance="10"
     guidetolerance="10"
     inkscape:pageopacity="0"
     inkscape:pageshadow="2"
     inkscape:window-width="2560"
     inkscape:window-height="1576"
     id="namedview81"
     showgrid="false"
     inkscape:zoom="3.6875"
     inkscape:cx="-0.27118644"
     inkscape:cy="32"
     inkscape:window-x="2560"
     inkscape:window-y="24"
     inkscape:window-maximized="1"
     inkscape:current-layer="link" /><g
     id="model"
     display="none"><rect
       x="19.812"
       y="5.5"
       display="inline"
       fill="#E6E6E6"
       width="24.375"
       height="17.375"
       id="rect5" /><rect
       x="2.125"
       y="40.688"
       display="inline"
       fill="#E6E6E6"
       width="24.375"
       height="17.375"
       id="rect7" /><rect
       x="37.125"
       y="40.688"
       display="inline"
       fill="#E6E6E6"
       width="24.375"
       height="17.375"
       id="rect9" /><line
       display="inline"
       fill="none"
       stroke="#E6E6E6"
       stroke-width="5"
       stroke-miterlimit="10"
       x1="32"
       y1="14.188"
       x2="14.312"
       y2="49.375"
       id="line11" /><line
       display="inline"
       fill="none"
       stroke="#E6E6E6"
       stroke-width="5"
       stroke-miterlimit="10"
       x1="49.312"
       y1="49.375"
       x2="32"
       y2="14.188"
       id="line13" /></g><g
     id="link"><g
       id="g3052"
       transform="translate(-39.050848,-1.8983054)"><rect
         style="fill:#b1b1b1;fill-opacity:1"
         id="rect16"
         height="17.375"
         width="24.375"
         y="7.6168051"
         x="59.050346" /><line
         style="fill:none;stroke:#b1b1b1;stroke-width:5;stroke-miterlimit:10;stroke-opacity:1"
         id="line18"
         y2="16.304806"
         x2="71.23835"
         y1="51.491806"
         x1="88.550346"
         stroke-miterlimit="10" /><rect
         style="fill:#b1b1b1;fill-opacity:1"
         id="rect20"
         height="17.375"
         width="24.375"
         y="42.804806"
         x="41.363346" /><rect
         id="rect22"
         height="17.375"
         width="24.375"
         y="42.804806"
         x="76.36335"
         style="fill:#4d4d4d" /><line
         style="fill:none;stroke:#b1b1b1;stroke-width:5;stroke-miterlimit:10;stroke-opacity:1"
         id="line24"
         y2="51.491806"
         x2="53.550346"
         y1="16.304806"
         x1="71.23835"
         stroke-miterlimit="10" /></g></g><g
     id="joint"
     display="none"><g
       display="inline"
       id="g27"><circle
         fill="#E6E6E6"
         cx="26.24"
         cy="32.489"
         r="10.957"
         id="circle29" /><line
         fill="none"
         stroke="#E6E6E6"
         stroke-width="7.0037"
         stroke-miterlimit="10"
         x1="48.717"
         y1="4.688"
         x2="26.24"
         y2="32.489"
         id="line31" /><line
         fill="none"
         stroke="#E6E6E6"
         stroke-width="7.0037"
         stroke-miterlimit="10"
         x1="48.717"
         y1="59.312"
         x2="26.24"
         y2="32.489"
         id="line33" /></g></g><g
     id="collision"
     display="none"><g
       display="inline"
       id="g36"><g
         id="g38"><line
           fill="none"
           stroke="#E6E6E6"
           stroke-width="6"
           stroke-miterlimit="10"
           x1="64"
           y1="32"
           x2="49.045"
           y2="32"
           id="line40" /><g
           id="g42"><polygon
             fill="#E6E6E6"
             points="34.218,32 55.112,23.463 50.154,32 55.112,40.535     "
             id="polygon44" /></g></g></g><g
       display="inline"
       id="g46"><g
         id="g48"><line
           fill="none"
           stroke="#E6E6E6"
           stroke-width="6"
           stroke-miterlimit="10"
           x1="0"
           y1="32"
           x2="14.955"
           y2="32"
           id="line50" /><g
           id="g52"><polygon
             fill="#E6E6E6"
             points="29.782,32 8.888,40.537 13.846,32 8.888,23.465     "
             id="polygon54" /></g></g></g><line
       display="inline"
       fill="none"
       stroke="#E6E6E6"
       stroke-width="3"
       stroke-linecap="round"
       stroke-miterlimit="10"
       x1="32"
       y1="22.875"
       x2="32"
       y2="2.745"
       id="line56" /><line
       display="inline"
       fill="none"
       stroke="#E6E6E6"
       stroke-width="3"
       stroke-linecap="round"
       stroke-miterlimit="10"
       x1="26.966"
       y1="22.404"
       x2="15.034"
       y2="10.471"
       id="line58" /><line
       display="inline"
       fill="none"
       stroke="#E6E6E6"
       stroke-width="3"
       stroke-linecap="round"
       stroke-miterlimit="10"
       x1="37.034"
       y1="22.404"
       x2="48.966"
       y2="10.471"
       id="line60" /><line
       display="inline"
       fill="none"
       stroke="#E6E6E6"
       stroke-width="3"
       stroke-linecap="round"
       stroke-miterlimit="10"
       x1="32"
       y1="41.399"
       x2="32"
       y2="61.529"
       id="line62" /><line
       display="inline"
       fill="none"
       stroke="#E6E6E6"
       stroke-width="3"
       stroke-linecap="round"
       stroke-miterlimit="10"
       x1="37.034"
       y1="41.87"
       x2="48.966"
       y2="53.803"
       id="line64" /><line
       display="inline"
       fill="none"
       stroke="#E6E6E6"
       stroke-width="3"
       stroke-linecap="round"
       stroke-miterlimit="10"
       x1="26.966"
       y1="41.87"
       x2="15.034"
       y2="53.803"
       id="line66" /></g><g
     id="visual"
     display="none"><g
       display="inline"
       id="g69"><path
         fill="#E6E6E6"
         d="M15.272,41.268c-0.138-0.106-0.271-0.222-0.398-0.348l-3.127-3.127c-1.427-1.427-1.528-3.659-0.226-4.961    l21.453-21.453c1.302-1.302,3.534-1.2,4.961,0.226l3.127,3.127c0.134,0.134,0.256,0.275,0.367,0.422"
         id="path71" /><path
         fill="#E6E6E6"
         d="M31.858,31.716"
         id="path73" /><path
         fill="#E6E6E6"
         d="M32.506,32.365"
         id="path75" /><path
         fill="#E6E6E6"
         d="M12.055,6.257c-1.432-1.432-3.755-1.432-5.187,0L5.691,7.433c-1.432,1.432-1.432,3.755,0,5.187    l13.197,13.197c1.432,1.432,3.755,1.432,5.187,0l1.177-1.177c1.432-1.432,1.432-3.755,0-5.187L12.055,6.257z M11.277,12.056    c-1.025,1.025-2.688,1.025-3.713,0s-1.025-2.688,0-3.713c1.025-1.025,2.688-1.025,3.713,0S12.303,11.03,11.277,12.056z"
         id="path77" /><polyline
         fill="#E6E6E6"
         points="16.533,43.261 43.291,16.503 59.383,34.352 56.747,36.988 51.445,32.564 56.015,37.72     42.689,51.046 36.137,46.251 41.005,52.73 40.346,53.389 35.561,50.069 39.101,54.634 34.918,58.817   "
         id="polyline79" /></g></g></svg>