<?xml version="1.0" encoding="utf-8"?>
<!-- Generator: Adobe Illustrator 16.0.4, SVG Export Plug-In . SVG Version: 6.00 Build 0)  -->
<!DOCTYPE svg PUBLIC "-//W3C//DTD SVG 1.1//EN" "http://www.w3.org/Graphics/SVG/1.1/DTD/svg11.dtd">
<svg version="1.1" xmlns="http://www.w3.org/2000/svg" xmlns:xlink="http://www.w3.org/1999/xlink" x="0px" y="0px" width="64px"
	 height="64px" viewBox="0 0 64 64" enable-background="new 0 0 64 64" xml:space="preserve">
<g id="original" display="none">
	<path display="inline" fill="none" stroke="#999999" stroke-width="2.6096" d="M43,15.367"/>
	<path display="inline" fill="none" stroke="#999999" stroke-width="2.6096" d="M29.281,2.981"/>
	<path display="inline" fill="none" stroke="#999999" stroke-width="2" d="M43,49"/>
	<line display="inline" fill="none" stroke="#999999" stroke-width="2" x1="43" y1="11" x2="43" y2="15"/>
	<line display="inline" fill="none" stroke="#999999" stroke-width="2" x1="8" y1="3" x2="34" y2="3"/>
	<line display="inline" fill="none" stroke="#999999" stroke-width="1.9976" x1="33.25" y1="2.75" x2="43.25" y2="11.688"/>
	<line display="inline" fill="none" stroke="#999999" stroke-width="2" x1="22" y1="49" x2="8" y2="49"/>
	<path display="inline" fill="none" stroke="#999999" stroke-width="2" d="M44,49"/>
	<line display="inline" fill="none" stroke="#999999" stroke-width="2" x1="9" y1="49" x2="9" y2="3"/>
	<line display="inline" fill="none" stroke="#999999" stroke-width="2" x1="33" y1="3" x2="33" y2="12"/>
	<line display="inline" fill="none" stroke="#999999" stroke-width="2" x1="32" y1="12" x2="43" y2="12"/>
	<path display="inline" fill="none" stroke="#999999" stroke-width="2" d="M39,21"/>
	<line display="inline" fill="none" stroke="#999999" stroke-width="2" x1="12" y1="21" x2="22" y2="21"/>
	<path display="inline" fill="none" stroke="#999999" stroke-width="2" d="M39,28"/>
	<line display="inline" fill="none" stroke="#999999" stroke-width="2" x1="12" y1="28" x2="22" y2="28"/>
	<path display="inline" fill="none" stroke="#999999" stroke-width="2" d="M39,35"/>
	<line display="inline" fill="none" stroke="#999999" stroke-width="2" x1="12" y1="35" x2="22" y2="35"/>
	<path display="inline" fill="none" stroke="#999999" stroke-width="2" d="M39,43"/>
	<line display="inline" fill="none" stroke="#999999" stroke-width="2" x1="12" y1="43" x2="22" y2="43"/>
	<g display="inline">
		<g>
			<path fill="#FFFFFF" stroke="#999999" stroke-width="2.6096" d="M56,27.378"/>
			<path fill="#FFFFFF" stroke="#999999" stroke-width="2.6096" d="M42.281,14.992"/>
			<line fill="#FFFFFF" stroke="#999999" stroke-width="2" x1="21" y1="15" x2="47" y2="15"/>
			<line fill="#FFFFFF" stroke="#999999" stroke-width="2" x1="56" y1="23" x2="56" y2="61"/>
			<line fill="#FFFFFF" stroke="#999999" stroke-width="2" x1="57" y1="61" x2="21" y2="61"/>
			<line fill="#FFFFFF" stroke="#999999" stroke-width="2" x1="22" y1="61" x2="22" y2="15"/>
			<line fill="#FFFFFF" stroke="#999999" stroke-width="2" x1="46" y1="15" x2="46" y2="24"/>
			<line fill="#FFFFFF" stroke="#999999" stroke-width="2" x1="45" y1="24" x2="56" y2="24"/>
		</g>
		<line fill="#FFFFFF" stroke="#999999" stroke-width="2" x1="25" y1="33" x2="52" y2="33"/>
		<line fill="#FFFFFF" stroke="#999999" stroke-width="2" x1="25" y1="40" x2="52" y2="40"/>
		<line fill="#FFFFFF" stroke="#999999" stroke-width="2" x1="25" y1="47" x2="52" y2="47"/>
		<line fill="#FFFFFF" stroke="#999999" stroke-width="2" x1="25" y1="55" x2="52" y2="55"/>
		<line fill="none" stroke="#999999" stroke-width="1.9976" x1="46.25" y1="14.75" x2="56.25" y2="23.688"/>
	</g>
</g>
<g id="Layer_3">
	<polyline fill="none" stroke="#E6E6E6" stroke-width="2" points="48,45 55,45 44.707,55.713 38.525,49.6 	"/>
	<line fill="none" stroke="#E6E6E6" x1="48.989" y1="54.021" x2="48.989" y2="54.021"/>
	<path fill="none" stroke="#E6E6E6" d="M44.938,50"/>
	<path fill="none" stroke="#E6E6E6" d="M47.707,53.412"/>
</g>
<g id="original_copy">
	<path fill="none" stroke="#999999" stroke-width="2" d="M43.5,41.265"/>
	<path fill="none" stroke="#999999" stroke-width="2" d="M44.5,41.265"/>
	<path fill="none" stroke="#999999" stroke-width="2" d="M39.5,27.265"/>
	<path fill="none" stroke="#999999" stroke-width="2" d="M39.5,35.265"/>
	<line fill="#D1D1D1" stroke="#FFFFFF" stroke-width="2" x1="26" y1="40" x2="36" y2="40"/>
	<path fill="none" stroke="#999999" stroke-width="2" d="M39.5,20.265"/>
	<polygon fill="#D1D1D1" stroke="#E6E6E6" stroke-width="2" points="49,50 14,50 14,8 39.361,8 40.059,8 49,14.319 	"/>
	<g>
		<path fill="#666666" d="M18.36,26.061v-10.83h2.07v9.09h4.71v1.74H18.36z"/>
		<path fill="#666666" d="M30.525,26.211c-2.955,0-4.544-2.025-4.544-5.564c0-3.54,1.59-5.565,4.544-5.565s4.545,2.025,4.545,5.565
			C35.07,24.186,33.479,26.211,30.525,26.211z M30.525,16.821c-1.695,0-2.475,1.29-2.475,3.825c-0.03,2.535,0.765,3.825,2.475,3.825
			c1.695,0,2.475-1.29,2.475-3.825C33,18.111,32.22,16.821,30.525,16.821z"/>
		<path fill="#666666" d="M42.51,18.352c-0.495-1.08-1.095-1.53-2.175-1.53c-1.53,0-2.28,1.53-2.28,3.93
			c0,2.28,0.855,3.72,2.295,3.72c1.351,0,2.221-0.9,2.266-2.145H40.56v-1.74h4.05v5.475h-1.5v-1.11
			c-0.869,0.96-1.68,1.26-2.819,1.26c-2.94,0-4.305-2.34-4.305-5.4c0-2.76,1.05-5.729,4.515-5.729c2.16,0,3.42,1.17,3.93,2.76
			L42.51,18.352z"/>
	</g>
	<path fill="none" stroke="#F2F2F2" stroke-width="2" stroke-miterlimit="10" d="M50,41"/>
	<path fill="none" stroke="#F2F2F2" stroke-width="2" stroke-miterlimit="10" d="M50,29"/>
	<path fill="none" stroke="#F2F2F2" stroke-width="2" stroke-miterlimit="10" d="M56,40"/>
	<path fill="none" stroke="#F2F2F2" stroke-width="2" stroke-miterlimit="10" d="M51,40"/>
	<path fill="none" stroke="#F2F2F2" stroke-width="2.347" stroke-miterlimit="10" d="M47.875,50.125"/>
	<g>
		<g>
			<line fill="none" stroke="#666666" stroke-width="6" stroke-miterlimit="10" x1="45" y1="32" x2="45" y2="47"/>
			<g>
				<polygon fill="#666666" points="53.09,46 36.324,46 44.707,54.381 				"/>
			</g>
		</g>
	</g>
	<g>
	</g>
	<g>
	</g>
	<g>
	</g>
	<g>
	</g>
	<g>
	</g>
	<g>
	</g>
	<g>
	</g>
	<g>
	</g>
	<g>
	</g>
	<g>
	</g>
	<g>
	</g>
	<g>
	</g>
	<g>
	</g>
	<g>
	</g>
	<g>
	</g>
	<g>
	</g>
</g>
</svg>
