<?xml version="1.0" encoding="utf-8"?>
<!-- Generator: Adobe Illustrator 16.0.4, SVG Export Plug-In . SVG Version: 6.00 Build 0)  -->
<!DOCTYPE svg PUBLIC "-//W3C//DTD SVG 1.1//EN" "http://www.w3.org/Graphics/SVG/1.1/DTD/svg11.dtd">
<svg version="1.1" id="Layer_1" xmlns="http://www.w3.org/2000/svg" xmlns:xlink="http://www.w3.org/1999/xlink" x="0px" y="0px"
	 width="100px" height="100px" viewBox="0 0 100 100" enable-background="new 0 0 100 100" xml:space="preserve">
<g>
	<path fill="#B7B7B7" d="M49.864,27.653c-12.471,0-22.582,10.11-22.582,22.581s10.11,22.582,22.582,22.582
		s22.582-10.11,22.582-22.582S62.335,27.653,49.864,27.653z M49.864,61.509c-6.227,0-11.274-5.049-11.274-11.274
		c0-6.227,5.047-11.274,11.274-11.274c6.226,0,11.275,5.048,11.275,11.274C61.139,56.46,56.09,61.509,49.864,61.509z"/>
	<path fill="#B7B7B7" d="M55.944,29.551c0.128,1.357-0.881,2.52-2.243,2.584h-7.675c-1.361-0.064-2.371-1.227-2.243-2.584
		l0.959-10.143c0.128-1.357,1.347-2.415,2.708-2.351h4.826c1.36-0.064,2.579,0.994,2.708,2.351L55.944,29.551z"/>
	<path fill="#B7B7B7" d="M40.938,30.706c0.97,0.958,0.946,2.497-0.057,3.421l-5.879,4.933c-1.084,0.826-2.605,0.584-3.379-0.538
		l-5.786-8.387c-0.773-1.122-0.52-2.716,0.564-3.542l3.697-3.102c1.001-0.924,2.615-0.897,3.586,0.06L40.938,30.706z"/>
	<path fill="#B7B7B7" d="M30.186,41.237c1.358,0.11,2.328,1.305,2.155,2.657l-1.332,7.558c-0.3,1.33-1.62,2.122-2.935,1.761
		l-9.823-2.706c-1.313-0.362-2.143-1.747-1.844-3.076l0.837-4.752c0.174-1.351,1.427-2.368,2.787-2.259L30.186,41.237z"/>
	<path fill="#B7B7B7" d="M28.717,56.215c1.112-0.789,2.622-0.497,3.359,0.652l3.837,6.645c0.626,1.213,0.124,2.666-1.117,3.235
		l-9.263,4.241c-1.24,0.566-2.766,0.039-3.391-1.172L19.73,65.64c-0.735-1.147-0.428-2.731,0.683-3.522L28.717,56.215z"/>
	<path fill="#B7B7B7" d="M37.221,68.633c0.344-1.318,1.688-2.065,2.992-1.66l7.21,2.625c1.259,0.525,1.809,1.962,1.225,3.195
		l-4.37,9.202c-0.585,1.231-2.093,1.809-3.351,1.283l-4.534-1.649c-1.299-0.406-2.083-1.816-1.741-3.137L37.221,68.633z"/>
	<path fill="#B7B7B7" d="M51.717,72.68c-0.584-1.231-0.034-2.668,1.225-3.195l7.211-2.624c1.303-0.406,2.646,0.342,2.992,1.661
		l2.568,9.858c0.342,1.319-0.442,2.731-1.742,3.137l-4.534,1.651c-1.258,0.523-2.765-0.053-3.351-1.284L51.717,72.68z"/>
	<path fill="#B7B7B7" d="M65.423,66.462c-1.239-0.567-1.741-2.021-1.115-3.235l3.837-6.645c0.735-1.148,2.246-1.439,3.359-0.65
		l8.305,5.9c1.11,0.791,1.417,2.377,0.681,3.523l-2.412,4.179c-0.626,1.209-2.15,1.737-3.39,1.17L65.423,66.462z"/>
	<path fill="#B7B7B7" d="M71.925,52.889c-1.314,0.362-2.633-0.43-2.934-1.761l-1.331-7.556c-0.176-1.353,0.794-2.547,2.156-2.657
		l10.152-0.82c1.359-0.106,2.613,0.911,2.788,2.262l0.837,4.752c0.299,1.328-0.53,2.712-1.844,3.075L71.925,52.889z"/>
	<path fill="#B7B7B7" d="M68.182,38.312c-0.774,1.123-2.293,1.364-3.379,0.536l-5.877-4.932c-1.005-0.924-1.029-2.461-0.058-3.422
		l7.251-7.154c0.974-0.956,2.589-0.982,3.591-0.06l3.694,3.103c1.083,0.826,1.338,2.419,0.564,3.541L68.182,38.312z"/>
</g>
</svg>
