<?xml version="1.0" encoding="UTF-8" standalone="no"?>
<!-- Generator: Adobe Illustrator 16.0.4, SVG Export Plug-In . SVG Version: 6.00 Build 0)  -->

<svg
   xmlns:dc="http://purl.org/dc/elements/1.1/"
   xmlns:cc="http://creativecommons.org/ns#"
   xmlns:rdf="http://www.w3.org/1999/02/22-rdf-syntax-ns#"
   xmlns:svg="http://www.w3.org/2000/svg"
   xmlns="http://www.w3.org/2000/svg"
   xmlns:sodipodi="http://sodipodi.sourceforge.net/DTD/sodipodi-0.dtd"
   xmlns:inkscape="http://www.inkscape.org/namespaces/inkscape"
   version="1.1"
   id="Layer_1"
   x="0px"
   y="0px"
   width="289.40878"
   height="425.82819"
   viewBox="0 0 289.40878 425.82818"
   enable-background="new 0 0 288 432"
   xml:space="preserve"
   inkscape:version="0.48.4 r9939"
   sodipodi:docname="splash.svg"><metadata
     id="metadata111"><rdf:RDF><cc:Work
         rdf:about=""><dc:format>image/svg+xml</dc:format><dc:type
           rdf:resource="http://purl.org/dc/dcmitype/StillImage" /><dc:title /></cc:Work></rdf:RDF></metadata><defs
     id="defs109" /><sodipodi:namedview
     pagecolor="#ffffff"
     bordercolor="#666666"
     borderopacity="1"
     objecttolerance="10"
     gridtolerance="10"
     guidetolerance="10"
     inkscape:pageopacity="0"
     inkscape:pageshadow="2"
     inkscape:window-width="1321"
     inkscape:window-height="993"
     id="namedview107"
     showgrid="false"
     inkscape:zoom="1.0925926"
     inkscape:cx="50.970703"
     inkscape:cy="147.67846"
     inkscape:window-x="3337"
     inkscape:window-y="354"
     inkscape:window-maximized="0"
     inkscape:current-layer="Layer_1"
     fit-margin-top="0"
     fit-margin-left="0"
     fit-margin-right="0"
     fit-margin-bottom="0" /><rect
     style="fill:#ffffff;fill-opacity:1;fill-rule:evenodd;stroke:#000000;stroke-width:1.31276786px;stroke-linecap:butt;stroke-linejoin:miter;stroke-opacity:0"
     id="rect3039"
     width="316.14484"
     height="435.67026"
     x="-303.07245"
     y="-4.0916948"
     transform="scale(-1,1)" /><g
     id="g3"
     transform="matrix(1.9752034,0,0,1.9752034,-117.2935,-93.328363)"><g
       id="g5"><g
         id="g7"><path
           stroke-miterlimit="10"
           d="m 135.721,49.021 c -1.692,-1.028 -4.46,-1.028 -6.152,0 l -66.11,40.195 c -1.692,1.028 -3.076,3.49 -3.076,5.47 v 163.551 c 0,1.979 1.62,3.6 3.6,3.6 h 137.321 c 1.979,0 3.6,-1.62 3.6,-3.6 V 94.686 c 0,-1.98 -1.384,-4.442 -3.076,-5.47 L 135.721,49.021 z"
           id="path9"
           inkscape:connector-curvature="0"
           style="fill:none;stroke:#f58113;stroke-width:2;stroke-miterlimit:10" /></g></g></g><g
     id="g11"
     transform="matrix(1.9752034,0,0,1.9752034,-117.2935,-93.328363)"><g
       id="g3109_1_"><path
         id="path3115_1_"
         inkscape:connector-curvature="0"
         stroke-miterlimit="10"
         d="m 93.848,110.021 30.188,18.742 -30.188,18.742 v -37.484 z m 83.396,18.682 c 0,-1.08 -0.6,-2.083 -1.548,-2.611 -0.954,-0.521 -2.118,-0.494 -3.033,0.078 l -17.733,11.049 -13.682,-8.467 34.652,-21.583 c 0.874,-0.545 1.42,-1.51 1.42,-2.543 -0.008,-1.033 -0.546,-1.995 -1.42,-2.54 L 134.218,76.27 c -0.965,-0.592 -2.189,-0.592 -3.154,0 l -41.675,25.883 c -0.886,0.555 -1.42,1.51 -1.42,2.55 0,0.266 0,47.86 0,48.129 0,1.03 0.534,1.992 1.42,2.537 l 41.675,25.887 c 0.017,0.006 0.044,0.013 0.06,0.027 0.024,0.021 0.041,0.027 0.064,0.046 0.051,0.014 0.098,0.042 0.147,0.068 0.048,0.021 0.098,0.048 0.148,0.067 0.074,0.035 0.158,0.06 0.235,0.087 0.047,0.014 0.094,0.027 0.142,0.042 0.087,0.026 0.179,0.033 0.272,0.06 0.033,0.006 0.077,0.021 0.114,0.021 0.128,0.019 0.266,0.027 0.394,0.027 l 0,0 h 0.003 c 0.271,0 0.545,-0.041 0.808,-0.107 0,-0.015 0.007,-0.015 0.007,-0.015 0.102,-0.013 0.198,-0.054 0.3,-0.094 0.029,-0.02 0.06,-0.026 0.09,-0.039 0.081,-0.027 0.158,-0.081 0.243,-0.129 0.043,-0.013 0.087,-0.033 0.131,-0.06 l 0,0 c 0.004,0 0.004,0 0.004,0 l 0.077,-0.054 41.597,-25.833 c 0.88,-0.545 1.42,-1.514 1.42,-2.543 l -0.076,-24.124"
         style="fill:#231f20;stroke:#ffffff;stroke-width:0.66369998;stroke-miterlimit:10" /><g
         id="XMLID_2_"><g
           id="g16"><path
             d="m 149.257,140.753 -18.272,11.383 c -0.876,0.524 -1.414,1.493 -1.407,2.542 l 0.06,18.638 -33.001,-20.483 33.075,-20.549 1.347,0.836 c 0.484,0.306 1.029,0.445 1.58,0.445 0.551,0 1.102,-0.139 1.586,-0.445 l 1.341,-0.836 13.691,8.469 z"
             id="path18"
             inkscape:connector-curvature="0"
             style="fill:#ffffff" /></g><g
           id="g20"><path
             stroke-miterlimit="10"
             d="m 129.71,132.284 1.347,0.836 c 0.484,0.306 1.029,0.445 1.58,0.445 0.551,0 1.102,-0.139 1.586,-0.445 l 1.341,-0.836 13.693,8.469 -18.272,11.383 c -0.876,0.524 -1.414,1.493 -1.407,2.542 l 0.06,18.638 -33.001,-20.483 33.073,-20.549 z"
             id="path22"
             inkscape:connector-curvature="0"
             style="fill:none;stroke:#ffffff;stroke-width:0.66369998;stroke-miterlimit:10" /></g></g><path
         id="path3117_1_"
         inkscape:connector-curvature="0"
         d="m 135.57,156.324 0.054,17.008 35.7,-22.16 -0.061,-17.074 -35.693,22.226"
         style="fill:#ffffff" /><path
         id="path3119_1_"
         inkscape:connector-curvature="0"
         d="m 96.64,104.704 36,22.354 36,-22.422 -35.997,-22.297 -36.003,22.365"
         style="fill:#f58113" /></g><polygon
       stroke-miterlimit="10"
       points="93.848,110.021 124.036,128.773 93.848,147.511 "
       id="polygon26"
       style="fill:#ffffff;stroke:#ffffff;stroke-width:0.66369998;stroke-miterlimit:10" /></g><g
     id="g3109"
     transform="matrix(1.9752034,0,0,1.9752034,-117.2935,-93.328363)"><path
       id="path3121"
       inkscape:connector-curvature="0"
       d="m 99.91,207.884 c -0.33,4.276 -4.062,6.862 -7.6,6.862 -4.295,0 -7.717,-3.48 -7.717,-7.447 0,-3.731 3.091,-7.445 7.698,-7.445 3.811,0 6.24,2.624 6.804,4.082 h -1.671 c -0.817,-1.419 -2.723,-2.779 -5.113,-2.779 -3.635,0 -6.279,2.955 -6.279,6.163 0,3.206 2.644,6.123 6.337,6.123 3.052,0 5.307,-2.255 5.812,-4.258 h -8.028 v -1.302 h 9.757"
       style="fill:#231f20" /><path
       id="path3123"
       inkscape:connector-curvature="0"
       d="m 108.11,208.35 h 5.579 l -2.76,-6.609 -2.819,6.609 z m 2.003,-8.243 h 1.613 l 6.181,14.387 h -1.575 l -2.078,-4.842 h -6.688 l -2.1,4.842 h -1.497 l 6.144,-14.387"
       style="fill:#231f20" /><path
       id="path3125"
       inkscape:connector-curvature="0"
       d="m 122.79,213.189 7.076,-11.78 h -6.862 v -1.303 h 8.476 v 1.303 l -7.057,11.78 h 7.271 v 1.305 h -8.903 v -1.305"
       style="fill:#231f20" /><path
       id="path3127"
       inkscape:connector-curvature="0"
       d="m 137.099,200.107 h 7.875 v 1.303 h -6.436 v 5.171 h 6.221 v 1.303 h -6.221 v 5.306 h 6.436 v 1.305 h -7.875 v -14.388"
       style="fill:#231f20" /><path
       id="path3129"
       inkscape:connector-curvature="0"
       d="m 152.558,213.189 h 2.021 c 1.205,0 1.945,-0.058 2.721,-0.369 0.895,-0.368 1.516,-1.36 1.516,-2.448 0,-1.108 -0.738,-2.061 -1.689,-2.431 -0.682,-0.271 -1.264,-0.33 -2.801,-0.33 h -1.768 v 5.578 l 0,0 z m 0,-6.881 h 1.807 c 1.129,0 1.77,-0.058 2.469,-0.406 0.682,-0.352 1.166,-1.166 1.166,-2.021 0,-0.663 -0.234,-1.129 -0.602,-1.576 -0.564,-0.642 -1.439,-0.895 -2.916,-0.895 h -1.924 v 4.898 z m -1.442,-6.201 h 3.617 c 4.529,0 4.705,3.248 4.705,3.83 0,1.692 -1.07,2.489 -1.574,2.897 1.436,0.584 2.391,1.885 2.391,3.539 0,1.38 -0.641,2.644 -1.654,3.325 -1.225,0.718 -2.178,0.815 -3.867,0.797 h -3.617 v -14.388"
       style="fill:#231f20" /><path
       id="path3131"
       inkscape:connector-curvature="0"
       d="m 173.075,213.443 c 3.322,0 6.18,-2.702 6.18,-6.123 0,-3.363 -2.779,-6.163 -6.18,-6.163 -3.248,0 -6.164,2.645 -6.164,6.221 0,3.285 2.818,6.065 6.164,6.065 l 0,0 z m 0,-13.589 c 4.043,0 7.619,3.208 7.619,7.445 0,4.239 -3.596,7.447 -7.619,7.447 -4.084,0 -7.602,-3.325 -7.602,-7.368 10e-4,-4.529 3.772,-7.524 7.602,-7.524"
       style="fill:#231f20" /></g><g
     id="g95"
     transform="translate(-59.38299,-47.249996)" /><g
     id="g97"
     transform="translate(-59.38299,-47.249996)" /><g
     id="g99"
     transform="translate(-59.38299,-47.249996)" /><g
     id="g101"
     transform="translate(-59.38299,-47.249996)" /><g
     id="g103"
     transform="translate(-59.38299,-47.249996)" /><g
     id="g105"
     transform="translate(-59.38299,-47.249996)" /></svg>