<?xml version="1.0" encoding="UTF-8" standalone="no"?>
<!-- Created with Inkscape (http://www.inkscape.org/) -->

<svg
   xmlns:dc="http://purl.org/dc/elements/1.1/"
   xmlns:cc="http://creativecommons.org/ns#"
   xmlns:rdf="http://www.w3.org/1999/02/22-rdf-syntax-ns#"
   xmlns:svg="http://www.w3.org/2000/svg"
   xmlns="http://www.w3.org/2000/svg"
   xmlns:sodipodi="http://sodipodi.sourceforge.net/DTD/sodipodi-0.dtd"
   xmlns:inkscape="http://www.inkscape.org/namespaces/inkscape"
   width="853"
   height="480"
   id="svg3912"
   version="1.1"
   inkscape:version="0.48.4 r9939"
   sodipodi:docname="splash.svg">
  <defs
     id="defs3914">
    <clipPath
       id="clipPath3111">
      <path
         d="m 0,0 5286.98,0 0,1276 L 0,1276 0,0 z"
         id="path3113"
         inkscape:connector-curvature="0" />
    </clipPath>
  </defs>
  <sodipodi:namedview
     id="base"
     pagecolor="#ffffff"
     bordercolor="#666666"
     borderopacity="1.0"
     inkscape:pageopacity="0.0"
     inkscape:pageshadow="2"
     inkscape:zoom="0.98994949"
     inkscape:cx="459.70567"
     inkscape:cy="245.57836"
     inkscape:document-units="px"
     inkscape:current-layer="layer1"
     showgrid="false"
     inkscape:window-width="1617"
     inkscape:window-height="928"
     inkscape:window-x="2964"
     inkscape:window-y="126"
     inkscape:window-maximized="0" />
  <metadata
     id="metadata3917">
    <rdf:RDF>
      <cc:Work
         rdf:about="">
        <dc:format>image/svg+xml</dc:format>
        <dc:type
           rdf:resource="http://purl.org/dc/dcmitype/StillImage" />
        <dc:title></dc:title>
      </cc:Work>
    </rdf:RDF>
  </metadata>
  <g
     inkscape:label="Layer 1"
     inkscape:groupmode="layer"
     id="layer1"
     transform="translate(0,-572.36218)">
    <rect
       style="fill:#f58113;fill-opacity:1;stroke:none"
       id="rect4025"
       width="853"
       height="340"
       x="0"
       y="572.36218" />
    <g
       id="g4762"
       transform="translate(0,10.000008)">
      <g
         transform="matrix(1.8549874,0,0,1.8549874,307.60232,-504.7815)"
         id="g4682">
        <path
           style="fill:#ffffff;fill-opacity:1;fill-rule:nonzero;stroke:none"
           d="m 64.087927,602.61228 c -0.440469,2.4e-4 -0.879757,0.10953 -1.268863,0.35061 l -33.541401,20.83607 c -0.707994,0.43822 -1.135299,1.21958 -1.135299,2.05355 l 0,38.73373 c 0,0.83377 0.427305,1.61319 1.135299,2.05355 l 33.541401,20.81938 c 0.01646,0.0102 0.03387,0.024 0.05006,0.0334 0.01848,0.01 0.03099,0.0222 0.05006,0.0334 0.03782,0.0201 0.07727,0.0308 0.116869,0.0501 0.03911,0.0201 0.0756,0.0493 0.116869,0.0668 0.06258,0.0253 0.136433,0.0475 0.200347,0.0668 0.03788,0.0133 0.07827,0.024 0.116869,0.0334 0.07172,0.0219 0.143982,0.0362 0.217042,0.0501 0.03051,0.006 0.05225,0.0149 0.08348,0.0167 0.105185,0.0162 0.212031,0.0167 0.317216,0.0167 0.218645,0 0.439363,-0.0248 0.651127,-0.0835 0.0021,-0.002 0.01667,0 0.01667,0 0.08221,-0.0219 0.154203,-0.0689 0.233738,-0.10018 0.02399,-0.01 0.04333,-0.007 0.06678,-0.0167 0.06732,-0.0295 0.136439,-0.0647 0.200347,-0.10017 0.03526,-0.0193 0.06545,-0.0467 0.100174,-0.0668 l 0.01667,0 0.05006,-0.0334 33.491315,-20.78599 c 0.711231,-0.44217 1.136633,-1.23286 1.135293,-2.07025 l -0.05006,-19.40025 c -0.0021,-0.87231 -0.486175,-1.68078 -1.252168,-2.10364 -0.763989,-0.4244 -1.695602,-0.39495 -2.437553,0.0668 l -14.291409,8.89874 -11.002381,-6.82849 27.898299,-17.36339 c 0.707892,-0.44037 1.135302,-1.21878 1.135302,-2.05356 -0.002,-0.83218 -0.42741,-1.5989 -1.135302,-2.03686 l -33.55799,-20.7859 c -0.389341,-0.24142 -0.828394,-0.35086 -1.268864,-0.35061 z m -31.220717,27.5143 24.308751,15.09279 -24.308751,15.0928 0,-30.18559 z m 33.591488,17.91435 11.002381,6.82848 -14.692102,9.14918 c -0.709094,0.44002 -1.138707,1.21617 -1.135299,2.05355 l 0.03339,15.00932 -26.545958,-16.49522 26.61274,-16.52862 1.085212,0.66782 c 0.389004,0.24082 0.826701,0.36731 1.268863,0.36731 0.441164,0 0.895551,-0.12469 1.285559,-0.36731 l 1.085212,-0.68451 z m 28.733077,1.46921 0.03339,13.74045 -28.733077,17.84757 -0.05006,-13.69037 28.749772,-17.89765 z"
           id="path3024"
           inkscape:connector-curvature="0" />
        <path
           inkscape:connector-curvature="0"
           style="fill:#ffffff;fill-opacity:1;fill-rule:nonzero;stroke:none"
           id="path3028"
           d="M 35.114894,625.84884 64.092928,643.84252 93.070695,625.79561 64.09553,607.85268 35.114894,625.84884" />
      </g>
      <g
         transform="matrix(0.75362825,0,0,0.75362825,237.91847,319.83922)"
         id="g4673">
        <path
           inkscape:connector-curvature="0"
           style="fill:#ffffff;fill-opacity:1;fill-rule:nonzero;stroke:none"
           id="path3030"
           d="m 161.00604,646.80652 c -0.90022,11.65685 -11.0725,18.70425 -20.71787,18.70425 -11.7096,0 -21.03642,-9.48308 -21.03642,-20.29507 0,-10.17174 8.42592,-20.294 20.98367,-20.294 10.38531,0 17.00811,7.15432 18.5461,11.12786 l -4.55655,0 c -2.22519,-3.86789 -7.41951,-7.57738 -13.9368,-7.57738 -9.90782,0 -17.11496,8.05481 -17.11496,16.79862 0,8.7414 7.20714,16.69082 17.27524,16.69082 8.31773,0 14.46504,-6.14737 15.84209,-11.60602 l -21.88321,0 0,-3.54908 26.59871,0" />
        <g
           id="g4666">
          <path
             d="m 183.3574,648.07826 15.20766,0 -7.52436,-18.01559 -7.6833,18.01559 z m 5.45745,-22.4665 4.39828,0 16.8485,39.21028 -4.29276,0 -5.66581,-13.19263 -18.22889,0 -5.72258,13.19263 -4.08106,0 16.74432,-39.21028"
             id="path3032"
             style="fill:#ffffff;fill-opacity:1;fill-rule:nonzero;stroke:none"
             inkscape:connector-curvature="0" />
          <path
             d="m 223.37401,661.27109 19.28673,-32.11052 -18.70372,0 0,-3.54881 23.1,0 0,3.54881 -19.23397,32.11052 19.81764,0 0,3.55095 -24.26668,0 0,-3.55095"
             id="path3034"
             style="fill:#ffffff;fill-opacity:1;fill-rule:nonzero;stroke:none"
             inkscape:connector-curvature="0" />
          <path
             d="m 262.37887,625.61176 21.46116,0 0,3.54881 -17.53836,0 0,14.09681 16.95535,0 0,3.54914 -16.95535,0 0,14.46457 17.53836,0 0,3.55095 -21.46116,0 0,-39.21028"
             id="path3036"
             style="fill:#ffffff;fill-opacity:1;fill-rule:nonzero;stroke:none"
             inkscape:connector-curvature="0" />
          <path
             d="m 304.51248,661.27109 5.50954,0 c 3.28703,0 5.30051,-0.1586 7.41684,-1.0056 2.43756,-1.00594 4.13449,-3.70776 4.13449,-6.67589 0,-3.02063 -2.01348,-5.61699 -4.60797,-6.62447 -1.85655,-0.74169 -3.4453,-0.90029 -7.63255,-0.90029 l -4.82035,0 0,15.20626 z m 0,-18.7572 4.9252,0 c 3.07666,0 4.82368,-0.15861 6.73365,-1.11126 1.85255,-0.95479 3.17684,-3.17736 3.17684,-5.51167 0,-1.80099 -0.63844,-3.07172 -1.64151,-4.29257 -1.53533,-1.74702 -3.92279,-2.43782 -7.9491,-2.43782 l -5.24508,0 0,13.35332 z m -3.92279,-16.90212 9.8544,0 c 12.34604,0 12.82353,8.84704 12.82353,10.43779 0,4.61139 -2.91371,6.78128 -4.28742,7.89441 3.91544,1.58868 6.51394,5.1399 6.51394,9.64563 0,3.76251 -1.74769,7.20594 -4.50446,9.06075 -3.33912,1.95833 -5.93695,2.22439 -10.54559,2.17169 l -9.8544,0 0,-39.21028"
             id="path3038"
             style="fill:#ffffff;fill-opacity:1;fill-rule:nonzero;stroke:none"
             inkscape:connector-curvature="0" />
          <path
             d="m 360.44131,661.96162 c 9.06035,0 16.84917,-7.36615 16.84917,-16.69082 0,-9.16828 -7.57578,-16.79862 -16.84917,-16.79862 -8.84999,0 -16.80042,7.20748 -16.80042,16.95696 0,8.95296 7.68464,16.53248 16.80042,16.53248 z m 0,-37.03992 c 11.01908,0 20.76996,8.743 20.76996,20.294 0,11.55127 -9.80164,20.29507 -20.76996,20.29507 -11.1286,0 -20.71987,-9.06256 -20.71987,-20.08163 0,-12.34771 10.27846,-20.50744 20.71987,-20.50744"
             id="path3040"
             style="fill:#ffffff;fill-opacity:1;fill-rule:nonzero;stroke:none"
             inkscape:connector-curvature="0" />
        </g>
      </g>
      <text
         sodipodi:linespacing="125%"
         id="text4699"
         y="847.50751"
         x="314.69336"
         style="font-size:40px;font-style:normal;font-weight:normal;line-height:125%;letter-spacing:0px;word-spacing:0px;fill:#000000;fill-opacity:1;stroke:none;font-family:Sans"
         xml:space="preserve"><tspan
           style="font-size:20px;fill:#ffffff"
           y="847.50751"
           x="314.69336"
           id="tspan4701"
           sodipodi:role="line">Simulation made easy</tspan></text>
    </g>
    <rect
       style="fill:#e2730a;fill-opacity:1;stroke:none"
       id="rect4025-3"
       width="853"
       height="140.06192"
       x="0"
       y="912.30029" />
    <rect
       style="fill:#ffffff;fill-opacity:1;stroke:none"
       id="rect4025-3-0"
       width="853"
       height="0.78713781"
       x="0"
       y="912.30029" />
  </g>
</svg>
