<?xml version="1.0" encoding="UTF-8" standalone="no"?>
<!-- Generator: Adobe Illustrator 16.0.4, SVG Export Plug-In . SVG Version: 6.00 Build 0)  -->

<svg
   xmlns:dc="http://purl.org/dc/elements/1.1/"
   xmlns:cc="http://creativecommons.org/ns#"
   xmlns:rdf="http://www.w3.org/1999/02/22-rdf-syntax-ns#"
   xmlns:svg="http://www.w3.org/2000/svg"
   xmlns="http://www.w3.org/2000/svg"
   xmlns:sodipodi="http://sodipodi.sourceforge.net/DTD/sodipodi-0.dtd"
   xmlns:inkscape="http://www.inkscape.org/namespaces/inkscape"
   version="1.1"
   id="Layer_1"
   x="0px"
   y="0px"
   width="289.40878"
   height="425.82819"
   viewBox="0 0 289.40878 425.82818"
   enable-background="new 0 0 288 432"
   xml:space="preserve"
   inkscape:version="0.48.4 r9939"
   sodipodi:docname="splash.svg"><metadata
     id="metadata111"><rdf:RDF><cc:Work
         rdf:about=""><dc:format>image/svg+xml</dc:format><dc:type
           rdf:resource="http://purl.org/dc/dcmitype/StillImage" /><dc:title /></cc:Work></rdf:RDF></metadata><defs
     id="defs109" /><sodipodi:namedview
     pagecolor="#ffffff"
     bordercolor="#666666"
     borderopacity="1"
     objecttolerance="10"
     gridtolerance="10"
     guidetolerance="10"
     inkscape:pageopacity="0"
     inkscape:pageshadow="2"
     inkscape:window-width="1321"
     inkscape:window-height="993"
     id="namedview107"
     showgrid="false"
     inkscape:zoom="1.5451593"
     inkscape:cx="252.98321"
     inkscape:cy="210.62577"
     inkscape:window-x="2739"
     inkscape:window-y="262"
     inkscape:window-maximized="0"
     inkscape:current-layer="Layer_1"
     fit-margin-top="0"
     fit-margin-left="0"
     fit-margin-right="0"
     fit-margin-bottom="0" /><rect
     style="fill:#ffffff;fill-opacity:1;fill-rule:evenodd;stroke:#000000;stroke-width:1.31276786px;stroke-linecap:butt;stroke-linejoin:miter;stroke-opacity:0"
     id="rect3039"
     width="316.14484"
     height="435.67026"
     x="58.452969"
     y="89.264236"
     transform="scale(-1,1)" /><g
     id="g3"
     transform="matrix(1.9752034,0,0,1.9752034,-117.2935,-93.328363)"><g
       id="g5"><g
         id="g7"><path
           stroke-miterlimit="10"
           d="m 135.721,49.021 c -1.692,-1.028 -4.46,-1.028 -6.152,0 l -66.11,40.195 c -1.692,1.028 -3.076,3.49 -3.076,5.47 v 163.551 c 0,1.979 1.62,3.6 3.6,3.6 h 137.321 c 1.979,0 3.6,-1.62 3.6,-3.6 V 94.686 c 0,-1.98 -1.384,-4.442 -3.076,-5.47 L 135.721,49.021 z"
           id="path9"
           inkscape:connector-curvature="0"
           style="fill:none;stroke:#f58113;stroke-width:2;stroke-miterlimit:10" /></g></g></g><g
     id="g11"
     transform="matrix(1.9752034,0,0,1.9752034,-117.2935,-93.328363)"><g
       id="g3109_1_"><path
         id="path3115_1_"
         inkscape:connector-curvature="0"
         stroke-miterlimit="10"
         d="m 93.848,110.021 30.188,18.742 -30.188,18.742 v -37.484 z m 83.396,18.682 c 0,-1.08 -0.6,-2.083 -1.548,-2.611 -0.954,-0.521 -2.118,-0.494 -3.033,0.078 l -17.733,11.049 -13.682,-8.467 34.652,-21.583 c 0.874,-0.545 1.42,-1.51 1.42,-2.543 -0.008,-1.033 -0.546,-1.995 -1.42,-2.54 L 134.218,76.27 c -0.965,-0.592 -2.189,-0.592 -3.154,0 l -41.675,25.883 c -0.886,0.555 -1.42,1.51 -1.42,2.55 0,0.266 0,47.86 0,48.129 0,1.03 0.534,1.992 1.42,2.537 l 41.675,25.887 c 0.017,0.006 0.044,0.013 0.06,0.027 0.024,0.021 0.041,0.027 0.064,0.046 0.051,0.014 0.098,0.042 0.147,0.068 0.048,0.021 0.098,0.048 0.148,0.067 0.074,0.035 0.158,0.06 0.235,0.087 0.047,0.014 0.094,0.027 0.142,0.042 0.087,0.026 0.179,0.033 0.272,0.06 0.033,0.006 0.077,0.021 0.114,0.021 0.128,0.019 0.266,0.027 0.394,0.027 l 0,0 h 0.003 c 0.271,0 0.545,-0.041 0.808,-0.107 0,-0.015 0.007,-0.015 0.007,-0.015 0.102,-0.013 0.198,-0.054 0.3,-0.094 0.029,-0.02 0.06,-0.026 0.09,-0.039 0.081,-0.027 0.158,-0.081 0.243,-0.129 0.043,-0.013 0.087,-0.033 0.131,-0.06 l 0,0 c 0.004,0 0.004,0 0.004,0 l 0.077,-0.054 41.597,-25.833 c 0.88,-0.545 1.42,-1.514 1.42,-2.543 l -0.076,-24.124"
         style="fill:#231f20;stroke:#ffffff;stroke-width:0.66369998;stroke-miterlimit:10" /><g
         id="XMLID_2_"><g
           id="g16"><path
             d="m 149.257,140.753 -18.272,11.383 c -0.876,0.524 -1.414,1.493 -1.407,2.542 l 0.06,18.638 -33.001,-20.483 33.075,-20.549 1.347,0.836 c 0.484,0.306 1.029,0.445 1.58,0.445 0.551,0 1.102,-0.139 1.586,-0.445 l 1.341,-0.836 13.691,8.469 z"
             id="path18"
             inkscape:connector-curvature="0"
             style="fill:#ffffff" /></g><g
           id="g20"><path
             stroke-miterlimit="10"
             d="m 129.71,132.284 1.347,0.836 c 0.484,0.306 1.029,0.445 1.58,0.445 0.551,0 1.102,-0.139 1.586,-0.445 l 1.341,-0.836 13.693,8.469 -18.272,11.383 c -0.876,0.524 -1.414,1.493 -1.407,2.542 l 0.06,18.638 -33.001,-20.483 33.073,-20.549 z"
             id="path22"
             inkscape:connector-curvature="0"
             style="fill:none;stroke:#ffffff;stroke-width:0.66369998;stroke-miterlimit:10" /></g></g><path
         id="path3117_1_"
         inkscape:connector-curvature="0"
         d="m 135.57,156.324 0.054,17.008 35.7,-22.16 -0.061,-17.074 -35.693,22.226"
         style="fill:#ffffff" /><path
         id="path3119_1_"
         inkscape:connector-curvature="0"
         d="m 96.64,104.704 36,22.354 36,-22.422 -35.997,-22.297 -36.003,22.365"
         style="fill:#f58113" /></g><polygon
       stroke-miterlimit="10"
       points="93.848,110.021 124.036,128.773 93.848,147.511 "
       id="polygon26"
       style="fill:#ffffff;stroke:#ffffff;stroke-width:0.66369998;stroke-miterlimit:10" /></g><g
     id="g3109"
     transform="matrix(1.9752034,0,0,1.9752034,-117.2935,-93.328363)"><path
       id="path3121"
       inkscape:connector-curvature="0"
       d="m 99.91,207.884 c -0.33,4.276 -4.062,6.862 -7.6,6.862 -4.295,0 -7.717,-3.48 -7.717,-7.447 0,-3.731 3.091,-7.445 7.698,-7.445 3.811,0 6.24,2.624 6.804,4.082 h -1.671 c -0.817,-1.419 -2.723,-2.779 -5.113,-2.779 -3.635,0 -6.279,2.955 -6.279,6.163 0,3.206 2.644,6.123 6.337,6.123 3.052,0 5.307,-2.255 5.812,-4.258 h -8.028 v -1.302 h 9.757"
       style="fill:#231f20" /><path
       id="path3123"
       inkscape:connector-curvature="0"
       d="m 108.11,208.35 h 5.579 l -2.76,-6.609 -2.819,6.609 z m 2.003,-8.243 h 1.613 l 6.181,14.387 h -1.575 l -2.078,-4.842 h -6.688 l -2.1,4.842 h -1.497 l 6.144,-14.387"
       style="fill:#231f20" /><path
       id="path3125"
       inkscape:connector-curvature="0"
       d="m 122.79,213.189 7.076,-11.78 h -6.862 v -1.303 h 8.476 v 1.303 l -7.057,11.78 h 7.271 v 1.305 h -8.903 v -1.305"
       style="fill:#231f20" /><path
       id="path3127"
       inkscape:connector-curvature="0"
       d="m 137.099,200.107 h 7.875 v 1.303 h -6.436 v 5.171 h 6.221 v 1.303 h -6.221 v 5.306 h 6.436 v 1.305 h -7.875 v -14.388"
       style="fill:#231f20" /><path
       id="path3129"
       inkscape:connector-curvature="0"
       d="m 152.558,213.189 h 2.021 c 1.205,0 1.945,-0.058 2.721,-0.369 0.895,-0.368 1.516,-1.36 1.516,-2.448 0,-1.108 -0.738,-2.061 -1.689,-2.431 -0.682,-0.271 -1.264,-0.33 -2.801,-0.33 h -1.768 v 5.578 l 0,0 z m 0,-6.881 h 1.807 c 1.129,0 1.77,-0.058 2.469,-0.406 0.682,-0.352 1.166,-1.166 1.166,-2.021 0,-0.663 -0.234,-1.129 -0.602,-1.576 -0.564,-0.642 -1.439,-0.895 -2.916,-0.895 h -1.924 v 4.898 z m -1.442,-6.201 h 3.617 c 4.529,0 4.705,3.248 4.705,3.83 0,1.692 -1.07,2.489 -1.574,2.897 1.436,0.584 2.391,1.885 2.391,3.539 0,1.38 -0.641,2.644 -1.654,3.325 -1.225,0.718 -2.178,0.815 -3.867,0.797 h -3.617 v -14.388"
       style="fill:#231f20" /><path
       id="path3131"
       inkscape:connector-curvature="0"
       d="m 173.075,213.443 c 3.322,0 6.18,-2.702 6.18,-6.123 0,-3.363 -2.779,-6.163 -6.18,-6.163 -3.248,0 -6.164,2.645 -6.164,6.221 0,3.285 2.818,6.065 6.164,6.065 l 0,0 z m 0,-13.589 c 4.043,0 7.619,3.208 7.619,7.445 0,4.239 -3.596,7.447 -7.619,7.447 -4.084,0 -7.602,-3.325 -7.602,-7.368 10e-4,-4.529 3.772,-7.524 7.602,-7.524"
       style="fill:#231f20" /></g><g
     id="g95"
     transform="translate(-59.38299,-47.249996)" /><g
     id="g97"
     transform="translate(-59.38299,-47.249996)" /><g
     id="g99"
     transform="translate(-59.38299,-47.249996)" /><g
     id="g101"
     transform="translate(-59.38299,-47.249996)" /><g
     id="g103"
     transform="translate(-59.38299,-47.249996)" /><g
     id="g105"
     transform="translate(-59.38299,-47.249996)" /><path
     style="fill:#ffffff;fill-opacity:1;stroke:#000000;stroke-width:0.64718246;stroke-opacity:0"
     d="M 6.0526705,420.11402 C 5.2654494,419.38061 4.5100923,417.65203 4.2851333,416.06913 4.069072,414.54884 3.9774991,340.93379 4.0816377,252.48012 L 4.2709807,91.655278 5.76972,89.041037 C 6.5940266,87.603198 8.6326514,85.51274 10.299997,84.395574 11.967343,83.278407 42.141829,64.869456 77.354411,43.486797 140.12561,5.3693101 141.44261,4.6092357 144.71846,4.6092357 c 3.27594,0 4.59101,0.7590477 67.35517,38.8769713 35.20769,21.382334 65.37818,39.791281 67.04553,40.908778 1.66734,1.11749 3.63316,3.10225 4.36848,4.410574 l 1.33694,2.378771 0,163.69803 0,163.69803 -1.49787,1.40718 -1.49787,1.40718 -137.20074,0 c -135.8191515,0 -137.2145737,-0.0129 -138.5754295,-1.28073 z M 73.60738,328.50678 c 2.962555,-1.73617 5.754779,-5.73561 6.457548,-9.24947 l 0.411789,-2.05894 -10.112226,0 -10.112226,0 0,1.61796 0,1.61795 7.766189,0 c 4.271405,0 7.76619,0.25196 7.76619,0.55991 0,0.30795 -0.58724,1.30646 -1.304979,2.21891 -4.554313,5.78987 -13.340486,6.00988 -18.354823,0.45961 -4.779144,-5.28994 -3.614687,-13.28339 2.520991,-17.30542 4.552931,-2.98452 10.198161,-2.40777 14.503406,1.48176 2.501639,2.26008 5.224135,2.96196 5.224135,1.34682 0,-1.50601 -2.545589,-4.21387 -5.710182,-6.07418 -2.535505,-1.49049 -3.762091,-1.77652 -7.557059,-1.76221 -9.007765,0.034 -15.300627,6.01573 -15.381687,14.62131 -0.112763,11.97133 13.049687,18.8747 23.882934,12.52599 l 0,0 z m 157.22454,1.30593 c 9.30019,-3.75604 11.87783,-16.3093 4.89471,-23.83751 -2.91265,-3.13999 -6.39225,-4.5832 -11.09002,-4.59972 -13.48747,-0.0474 -20.24282,15.24379 -11.09001,25.10302 4.09771,4.41398 11.21325,5.78652 17.28532,3.33421 z m -137.40868,-4.06072 1.975686,-4.71361 6.434374,0.18334 6.43438,0.18334 1.96995,4.69207 c 1.80855,4.30767 2.12517,4.69207 3.86475,4.69207 2.33539,0 2.66291,1.11129 -4.60369,-15.62083 -5.50565,-12.67738 -5.79723,-13.18627 -7.66348,-13.37545 l -1.940068,-0.19665 -5.907015,13.93011 c -3.248856,7.66156 -5.907016,14.24932 -5.907016,14.63946 0,0.39013 0.757449,0.61718 1.683225,0.50455 1.416993,-0.17239 1.995703,-0.95031 3.658904,-4.9184 l 0,0 z m 49.66838,3.41926 0,-1.61796 -6.79541,0 c -3.73748,0 -6.79542,-0.16878 -6.79542,-0.37507 0,-0.20629 2.91232,-5.23728 6.47182,-11.17998 3.97116,-6.62997 6.47183,-11.48637 6.47183,-12.56858 l 0,-1.76367 -8.41337,0 -8.41338,0 0,1.61796 c 0,1.61755 0.001,1.61795 6.44786,1.61795 l 6.44786,0 -6.77145,11.25974 c -3.97719,6.61335 -6.77145,11.9546 -6.77145,12.94365 l 0,1.68391 9.06056,0 9.06055,0 0,-1.61795 z m 26.53448,0 c 0,-1.61796 0,-1.61796 -6.47182,-1.61796 l -6.47183,0 0,-4.85387 0,-4.85387 6.14824,0 c 6.12666,0 6.14823,-0.006 6.14823,-1.61795 0,-1.61228 -0.0215,-1.61796 -6.14823,-1.61796 l -6.14824,0 0,-4.85387 0,-4.85387 6.47183,0 c 6.47182,0 6.47182,0 6.47182,-1.61795 l 0,-1.61796 -8.08978,0 -8.08978,0 0,14.56161 0,14.5616 8.08978,0 8.08978,0 0,-1.61795 z m 23.56229,1.0005 c 3.8543,-0.89402 5.71442,-3.1459 6.06214,-7.33889 0.26301,-3.17152 0.10864,-3.7143 -1.60032,-5.62696 l -1.89141,-2.11685 1.28305,-2.59326 c 1.17335,-2.37156 1.20436,-2.81584 0.36268,-5.19674 -1.4869,-4.2061 -3.5422,-5.27163 -10.674,-5.53374 l -6.10233,-0.22426 0,14.62407 0,14.62408 5.01567,-0.0155 c 2.75861,-0.008 6.15365,-0.27939 7.54452,-0.602 l 0,2e-5 z m -4.22112,-91.35237 c 22.97236,-14.26956 42.13388,-26.42567 42.58115,-27.01359 0.62087,-0.81611 0.81809,-7.23706 0.8338,-27.14745 l 0.0206,-26.07851 -1.58854,-1.58854 c -3.01726,-3.01726 -4.25113,-2.5199 -23.59891,9.51256 -9.8176,6.1056 -18.14141,11.10347 -18.49736,11.10638 -0.35595,0.003 -6.69021,-3.72746 -14.07612,-8.28971 -11.60466,-7.16815 -13.27509,-8.39862 -12.29647,-9.05778 0.62286,-0.41954 15.83969,-9.88596 33.81518,-21.0365 17.9755,-11.15053 33.48361,-21.00947 34.46247,-21.90875 1.31368,-1.20686 1.77975,-2.24954 1.77975,-3.9816 0,-1.73231 -0.46587,-2.77429 -1.77975,-3.98055 -1.5317,-1.40626 -14.83921,-9.722489 -73.55835,-45.968643 -10.48409,-6.471622 -12.47578,-7.193448 -15.47179,-5.607269 -3.90396,2.066879 -81.867809,50.706172 -83.120397,51.856302 l -1.456161,1.33706 0,49.92013 c 0,38.94837 0.177803,50.14938 0.808978,50.96315 0.586043,0.75559 72.33204,45.70579 84.29552,52.81272 0.7119,0.42291 2.14579,0.61734 3.18642,0.43208 1.04063,-0.18527 20.68763,-12.01194 43.66,-26.28149 l 0,0 z"
     id="path3018"
     inkscape:connector-curvature="0" /><path
     style="fill:#ffffff;fill-opacity:1;stroke:#000000;stroke-width:0.64718246;stroke-opacity:0"
     d="m 97.505255,316.42516 c 0.829165,-2.61246 4.192735,-9.77139 4.463705,-9.50042 0.14717,0.14717 1.27849,2.66455 2.51406,5.59419 l 2.24648,5.32662 -4.83753,0 c -4.686081,0 -4.823415,-0.0445 -4.386715,-1.42039 z"
     id="path3020"
     inkscape:connector-curvature="0" /><path
     style="fill:#ffffff;fill-opacity:1;stroke:#000000;stroke-width:0.64718246;stroke-opacity:0"
     d="m 184.5113,309.51232 0,-4.61042 2.95487,0 c 4.57803,0 6.72449,1.46168 6.74296,4.59177 0.0149,2.52258 -2.0765,3.99705 -6.14836,4.33472 l -3.54947,0.29435 0,-4.61042 z"
     id="path3022"
     inkscape:connector-curvature="0" /><path
     style="fill:#ffffff;fill-opacity:1;stroke:#000000;stroke-width:0.64718246;stroke-opacity:0"
     d="m 184.5113,322.46444 0,-5.26607 3.93288,0 c 3.48395,0 4.14881,0.21594 5.82464,1.89176 2.27601,2.27602 2.38637,3.93287 0.41463,6.22515 -1.24595,1.4485 -2.15754,1.77189 -5.82464,2.06625 l -4.34751,0.34897 0,-5.26606 z"
     id="path3024"
     inkscape:connector-curvature="0" /><path
     style="fill:#ffffff;fill-opacity:1;stroke:#000000;stroke-width:0.64718246;stroke-opacity:0"
     d="m 223.66584,327.85627 c -0.35595,-0.10437 -1.44273,-0.36506 -2.41507,-0.57931 -2.16297,-0.47661 -6.05502,-3.80215 -7.32573,-6.25943 -1.33891,-2.58917 -1.17028,-7.29794 0.36944,-10.31605 3.06594,-6.00974 11.19405,-8.07622 16.71563,-4.24976 5.99294,4.15311 7.00457,12.31828 2.1605,17.43805 -2.54996,2.69509 -7.20937,4.63954 -9.50477,3.9665 z"
     id="path3026"
     inkscape:connector-curvature="0" /><path
     style="fill:#ffffff;fill-opacity:1;stroke:#000000;stroke-width:0.64718246;stroke-opacity:0"
     d="m 151.00849,231.71684 0.17291,-16.23301 34.05883,-21.21591 c 18.73236,-11.66875 34.38608,-21.41816 34.78606,-21.66536 0.53089,-0.32811 0.72723,3.9891 0.72723,15.99104 l 0,16.44049 -34.56861,21.45788 c -19.01274,11.80183 -34.74427,21.45788 -34.95897,21.45788 -0.21469,0 -0.31255,-7.30486 -0.21745,-16.23301 z"
     id="path3028"
     inkscape:connector-curvature="0" /><path
     style="fill:#ffffff;fill-opacity:1;stroke:#000000;stroke-width:0.64718246;stroke-opacity:0"
     d="M 105.67958,228.84889 C 74.21329,209.23112 73.171487,208.51822 74.614819,207.59151 75.436198,207.06413 90.196054,197.885 107.4145,187.19344 l 31.30626,-19.4392 2.48324,1.26686 c 3.1241,1.59379 4.26767,1.58653 6.94219,-0.0441 1.17824,-0.71836 2.34317,-1.19836 2.58873,-1.06668 0.24556,0.13168 6.4897,3.95742 13.87586,8.50166 l 13.42937,8.26225 -18.60683,11.57397 c -10.23377,6.36568 -18.97088,12.067 -19.41582,12.66961 -0.60529,0.81977 -0.80897,6.03451 -0.80897,20.71101 0,10.78846 -0.21843,19.59359 -0.48539,19.56696 -0.26696,-0.0266 -15.13657,-9.18273 -33.04356,-20.34691 l 0,0 z"
     id="path3030"
     inkscape:connector-curvature="0" /><path
     style="fill:#ffffff;fill-opacity:1;stroke:#000000;stroke-width:0.64718246;stroke-opacity:0"
     d="m 67.371272,161.21094 c 0,-34.02818 0.09841,-37.62085 1.020769,-37.26691 2.667112,1.02347 59.726259,36.9812 59.314619,37.37909 -0.36257,0.35046 -44.340859,27.73419 -57.908454,36.05756 l -2.426934,1.48887 0,-37.65861 z"
     id="path3032"
     inkscape:connector-curvature="0" /></svg>