<?xml version="1.0" encoding="UTF-8" standalone="no"?>
<!-- Created with Inkscape (http://www.inkscape.org/) -->

<svg
   xmlns:dc="http://purl.org/dc/elements/1.1/"
   xmlns:cc="http://creativecommons.org/ns#"
   xmlns:rdf="http://www.w3.org/1999/02/22-rdf-syntax-ns#"
   xmlns:svg="http://www.w3.org/2000/svg"
   xmlns="http://www.w3.org/2000/svg"
   xmlns:sodipodi="http://sodipodi.sourceforge.net/DTD/sodipodi-0.dtd"
   xmlns:inkscape="http://www.inkscape.org/namespaces/inkscape"
   version="1.1"
   width="576"
   height="320"
   viewBox="0 0 576 320"
   id="v1"
   xml:space="preserve"
   inkscape:version="0.48.4 r9939"
   sodipodi:docname="splash.svg"><sodipodi:namedview
     pagecolor="#ffffff"
     bordercolor="#666666"
     borderopacity="1"
     objecttolerance="10"
     gridtolerance="10"
     guidetolerance="10"
     inkscape:pageopacity="0"
     inkscape:pageshadow="2"
     inkscape:window-width="2239"
     inkscape:window-height="1268"
     id="namedview59"
     showgrid="false"
     inkscape:zoom="2.8284271"
     inkscape:cx="317.19478"
     inkscape:cy="182.10726"
     inkscape:window-x="0"
     inkscape:window-y="24"
     inkscape:window-maximized="0"
     inkscape:current-layer="v1" /><metadata
     id="metadata117"><rdf:RDF><cc:Work
         rdf:about=""><dc:format>image/svg+xml</dc:format><dc:type
           rdf:resource="http://purl.org/dc/dcmitype/StillImage" /><dc:title /></cc:Work></rdf:RDF></metadata><rect
     width="576"
     height="246"
     x="0"
     y="0"
     id="rect3"
     style="fill:#f58113" /><defs
     id="defs6" /><rect
     width="576"
     height="74"
     x="0"
     y="246"
     id="rect21"
     style="fill:#ffffff" /><g
     id="g105"
     transform="translate(0,-0.5)"><g
       transform="translate(142,-104)"
       id="g5041_4_"><path
         d="m 145.994,143.617 c -0.564,0.001 -1.125,0.149 -1.623,0.459 l -43.006,26.697 c -0.907,0.562 -1.458,1.566 -1.458,2.636 v 49.641 c 0,1.07 0.551,2.07 1.458,2.636 l 43.006,26.696 c 0.02,0.012 0.038,0.022 0.059,0.036 0.022,0.013 0.047,0.032 0.069,0.047 0.051,0.026 0.104,0.035 0.153,0.06 0.052,0.025 0.103,0.062 0.153,0.082 0.08,0.034 0.165,0.057 0.247,0.082 0.049,0.016 0.093,0.034 0.142,0.048 0.093,0.024 0.188,0.041 0.282,0.058 0.041,0.006 0.077,0.019 0.117,0.024 0.136,0.018 0.266,0.022 0.4,0.022 0.282,0 0.562,-0.038 0.835,-0.117 h 0.014 c 0.104,-0.028 0.201,-0.063 0.305,-0.105 0.031,-0.012 0.062,-0.022 0.094,-0.035 0.085,-0.038 0.163,-0.084 0.248,-0.13 0.045,-0.025 0.096,-0.045 0.141,-0.071 l 0.082,-0.059 42.923,-26.638 c 0.911,-0.566 1.463,-1.562 1.458,-2.636 l -0.082,-24.885 c -0.003,-1.121 -0.606,-2.152 -1.588,-2.694 -0.979,-0.544 -2.177,-0.51 -3.129,0.082 l -18.308,11.401 -14.109,-8.742 35.758,-22.262 c 0.908,-0.564 1.46,-1.556 1.458,-2.624 0,-1.068 -0.562,-2.062 -1.47,-2.624 L 147.63,144.076 c -0.499,-0.308 -1.071,-0.46 -1.636,-0.459 z m -40.015,35.275 31.144,19.344 -31.144,19.331 v -38.675 l 0,0 z m 43.039,22.967 14.121,8.742 -18.85,11.73 c -0.91,0.565 -1.451,1.554 -1.448,2.623 l 0.048,19.238 -34.029,-21.142 34.122,-21.179 1.389,0.859 c 0.499,0.309 1.059,0.458 1.623,0.458 0.566,0 1.135,-0.146 1.636,-0.458 l 1.388,-0.871 0,0 z m 36.838,1.871 0.049,17.613 -36.828,22.873 -0.06,-17.555 36.839,-22.931 z"
         id="path3226_4_"
         style="fill:#ffffff"
         inkscape:connector-curvature="0" /><path
         d="m 108.855,173.403 37.142,23.062 37.145,-23.13 -37.14,-22.998 -37.147,23.066"
         id="path3230_4_"
         style="fill:#ffffff"
         inkscape:connector-curvature="0" /></g><g
       transform="matrix(0,-1,1,0,571.09237,47.558036)"
       id="g4514_4_"><path
         d="m -127.884,-314.602 c -4.116,-0.317 -6.606,-3.91 -6.606,-7.316 0,-4.135 3.35,-7.429 7.168,-7.429 3.593,0 7.168,2.976 7.168,7.41 0,3.669 -2.527,6.008 -3.932,6.55 v -1.61 c 1.366,-0.785 2.677,-2.619 2.677,-4.921 0,-3.499 -2.846,-6.044 -5.933,-6.044 -3.088,0 -5.894,2.545 -5.894,6.101 0,2.938 2.169,5.107 4.097,5.595 v -7.729 h 1.255 v 9.393"
         id="path3232_4_"
         style="fill:#ffffff"
         inkscape:connector-curvature="0" /><path
         d="m -128.334,-306.709 v 5.371 l 6.362,-2.657 -6.362,-2.714 z m 7.934,1.927 v 1.554 l -13.847,5.95 v -1.516 l 4.658,-2.002 v -6.437 l -4.658,-2.021 v -1.441 l 13.847,5.913"
         id="path3234_4_"
         style="fill:#ffffff"
         inkscape:connector-curvature="0" /><path
         d="m -132.993,-292.578 11.339,6.812 v -6.606 h 1.254 v 8.159 h -1.254 l -11.339,-6.792 v 6.997 h -1.254 v -8.569 h 1.254"
         id="path3236_4_"
         style="fill:#ffffff"
         inkscape:connector-curvature="0" /><path
         d="m -120.4,-278.802 v 7.579 h -1.254 v -6.193 h -4.976 v 5.987 h -1.255 v -5.987 h -5.108 v 6.193 h -1.254 v -7.579 h 13.847"
         id="path3238_4_"
         style="fill:#ffffff"
         inkscape:connector-curvature="0" /><path
         d="m -132.993,-263.923 v 1.945 c 0,1.163 0.057,1.872 0.355,2.619 0.354,0.861 1.309,1.46 2.358,1.46 1.066,0 1.983,-0.711 2.338,-1.625 0.263,-0.658 0.317,-1.219 0.317,-2.695 v -1.704 h -5.368 z m 6.625,0 v 1.741 c 0,1.084 0.057,1.7 0.393,2.376 0.336,0.654 1.121,1.122 1.946,1.122 0.637,0 1.083,-0.224 1.515,-0.58 0.617,-0.542 0.86,-1.386 0.86,-2.807 v -1.853 h -4.714 l 0,10e-4 z m 5.968,-1.386 v 3.481 c 0,4.359 -3.124,4.528 -3.687,4.528 -1.628,0 -2.395,-1.03 -2.788,-1.515 -0.561,1.383 -1.815,2.301 -3.404,2.301 -1.329,0 -2.546,-0.618 -3.201,-1.591 -0.692,-1.178 -0.784,-2.098 -0.767,-3.724 v -3.481 h 13.847"
         id="path3240_4_"
         style="fill:#ffffff"
         inkscape:connector-curvature="0" /><path
         d="m -133.236,-244.172 c 0,3.2 2.601,5.952 5.894,5.952 3.237,0 5.933,-2.677 5.933,-5.952 0,-3.124 -2.546,-5.932 -5.988,-5.932 -3.161,0 -5.839,2.713 -5.839,5.932 z m 13.081,0 c 0,3.892 -3.088,7.335 -7.168,7.335 -4.08,0 -7.168,-3.462 -7.168,-7.335 0,-3.931 3.201,-7.317 7.093,-7.317 4.361,-0.001 7.243,3.63 7.243,7.317"
         id="path3242_4_"
         style="fill:#ffffff"
         inkscape:connector-curvature="0" /></g></g><text
     xml:space="preserve"
     style="font-size:40px;font-style:normal;font-weight:normal;line-height:125%;letter-spacing:0px;word-spacing:0px;fill:#f58113;fill-opacity:1;stroke:none;font-family:Sans"
     x="217.78418"
     y="286.31055"
     id="text3035"
     sodipodi:linespacing="125%"><tspan
       sodipodi:role="line"
       id="tspan3037"
       x="217.78418"
       y="286.31055"
       style="font-size:12px">Preparing your world ...</tspan></text>
<text
     xml:space="preserve"
     style="font-size:40px;font-style:normal;font-weight:normal;line-height:125%;letter-spacing:0px;word-spacing:0px;fill:#ffffff;fill-opacity:1;stroke:none;font-family:Sans"
     x="220.91638"
     y="204.47205"
     id="text3035-9"
     sodipodi:linespacing="125%"><tspan
       sodipodi:role="line"
       id="tspan3037-2"
       x="220.91638"
       y="204.47205"
       style="font-size:12px;fill:#ffffff">Simulation made easy</tspan></text>
</svg>