<svg xmlns="http://www.w3.org/2000/svg" xmlns:xlink="http://www.w3.org/1999/xlink" version="1.1" x="0px" y="0px" width="100px" height="100px" viewBox="0 0 100 100" enable-background="new 0 0 100 100" xml:space="preserve">
<g id="Captions">
</g>
<g id="Your_Icon">
	<g>
		<g id="XMLID_2_">
			<g>
				<polygon points="9.5,28 9.5,26.5 19.5,26.5 19.5,36.5 24.5,36.5 24.5,46.5 29.5,46.5 29.5,56.5 34.5,56.5 34.5,66.5 33,66.5       22,66.5 9.5,42     "/>
			</g>
			<g>
				<polyline fill="none" stroke="#000000" stroke-width="3" stroke-miterlimit="10" points="34.5,56.5 34.5,66.5 74.5,66.5       74.5,56.5 69.5,56.5     "/>
				<polyline fill="none" stroke="#000000" stroke-width="3" stroke-miterlimit="10" points="29.5,46.5 29.5,56.5 34.5,56.5       69.5,56.5 69.5,46.5 64.5,46.5     "/>
				<polyline fill="none" stroke="#000000" stroke-width="3" stroke-miterlimit="10" points="24.5,36.5 24.5,46.5 29.5,46.5       64.5,46.5 64.5,36.5 59.5,36.5     "/>
				<polyline fill="none" stroke="#000000" stroke-width="3" stroke-miterlimit="10" points="19.5,26.5 19.5,36.5 24.5,36.5       59.5,36.5 59.5,26.5 20,26.5     "/>
				<polyline fill="none" stroke="#000000" stroke-width="3" stroke-miterlimit="10" points="8,26.5 9.5,26.5 19.5,26.5 20,26.5           "/>
				<polyline fill="none" stroke="#000000" stroke-width="3" stroke-miterlimit="10" points="33,66.5 22,66.5 9.5,42 9.5,28     "/>
			</g>
		</g>
	</g>
</g>
</svg>