<?xml version="1.0" encoding="utf-8"?>
<!-- Generator: Adobe Illustrator 16.0.4, SVG Export Plug-In . SVG Version: 6.00 Build 0)  -->
<!DOCTYPE svg PUBLIC "-//W3C//DTD SVG 1.1//EN" "http://www.w3.org/Graphics/SVG/1.1/DTD/svg11.dtd">
<svg version="1.1" xmlns="http://www.w3.org/2000/svg" xmlns:xlink="http://www.w3.org/1999/xlink" x="0px" y="0px" width="64px"
	 height="64px" viewBox="0 0 64 64" enable-background="new 0 0 64 64" xml:space="preserve">
<g id="Layer_1">
	<path fill="none" stroke="#F2F2F2" stroke-miterlimit="10" d="M-62.958,44.834"/>
	<path fill="#D1D1D1" d="M29,25.225C29,28.414,26.414,31,23.225,31H12.775C9.586,31,7,28.414,7,25.225V14.775
		C7,11.586,9.586,9,12.775,9h10.449C26.414,9,29,11.586,29,14.775V25.225z"/>
	<path fill="#D1D1D1" d="M55,51.009C55,53.213,53.213,55,51.009,55h-7.018C41.787,55,40,53.213,40,51.009v-7.018
		C40,41.787,41.787,40,43.991,40h7.018C53.213,40,55,41.787,55,43.991V51.009z"/>
	<path fill="none" stroke="#F2F2F2" stroke-width="5.9687" stroke-miterlimit="10" d="M50.125,42.129"/>
	<path fill="none" stroke="#F2F2F2" stroke-width="5.9687" stroke-miterlimit="10" d="M56.864,31.713"/>
	<path fill="none" stroke="#D1D1D1" stroke-width="6" stroke-miterlimit="10" d="M34.805,13.302c0,0,13.046-2.239,14.708,11.483"/>
	<polygon fill="#D1D1D1" points="56.289,22.789 50.517,36.327 41.68,24.559 	"/>
	<path fill="none" stroke="#D1D1D1" stroke-width="6" stroke-miterlimit="10" d="M32.433,51.396c0,0-11.186,7.075-17.989-4.958"/>
	<polygon fill="#D1D1D1" points="8.953,50.883 9.086,36.166 21.762,43.641 	"/>
</g>
<g id="Layer_2">
</g>
</svg>
