<?xml version="1.0" encoding="utf-8"?>
<!-- Generator: Adobe Illustrator 16.0.4, SVG Export Plug-In . SVG Version: 6.00 Build 0)  -->
<!DOCTYPE svg PUBLIC "-//W3C//DTD SVG 1.1//EN" "http://www.w3.org/Graphics/SVG/1.1/DTD/svg11.dtd">
<svg version="1.1" xmlns="http://www.w3.org/2000/svg" xmlns:xlink="http://www.w3.org/1999/xlink" x="0px" y="0px" width="107.5px"
	 height="107.5px" viewBox="18 18.5 107.5 107.5" enable-background="new 18 18.5 107.5 107.5" xml:space="preserve">
<g id="cube">
	<g id="horz_left" display="none">
		<g display="inline">
			<rect x="15.641" y="13.931" fill="#D1D1D1" width="12.656" height="116.139"/>
			<g>
				<rect x="31.255" y="27.25" fill="#D1D1D1" width="67.657" height="36.627"/>
				<g>
					<path fill="#D1D1D1" d="M124.18,84.302v28.269H35.436V84.302H124.18 M128.359,80.121H31.255v36.629h97.104V80.121
						L128.359,80.121z"/>
				</g>
			</g>
		</g>
	</g>
	<g id="horz_center" display="none">
		<g display="inline">
			<rect x="65.672" y="13.931" fill="#D1D1D1" width="12.656" height="116.139"/>
			<rect x="38.172" y="27.25" fill="#D1D1D1" width="67.656" height="36.627"/>
			<g>
				<rect x="25.539" y="82.211" fill="#FFFFFF" width="92.923" height="32.449"/>
				<path fill="#D1D1D1" d="M116.371,84.302v28.269H27.629V84.302H116.371 M120.552,80.121H23.448v36.629h97.104V80.121
					L120.552,80.121z"/>
			</g>
		</g>
	</g>
	<g id="vert_top" display="none">
		<g display="inline">
			<rect x="13.931" y="14.81" fill="#D1D1D1" width="116.139" height="12.656"/>
			<g>
				<rect x="80.122" y="32.086" fill="#D1D1D1" width="36.628" height="67.656"/>
				<g>
					<path fill="#D1D1D1" d="M59.698,36.267v88.742H31.431V36.267H59.698 M63.879,32.086H27.25v97.104h36.629V32.086L63.879,32.086z
						"/>
				</g>
			</g>
		</g>
	</g>
	<g id="vert_center" display="none">
		<g display="inline">
			<rect x="13.931" y="65.671" fill="#D1D1D1" width="116.139" height="12.657"/>
			<rect x="80.122" y="38.171" fill="#D1D1D1" width="36.628" height="67.657"/>
			<g>
				<rect x="29.34" y="25.539" fill="#FFFFFF" width="32.448" height="92.923"/>
				<path fill="#D1D1D1" d="M59.698,27.629v88.742H31.431V27.629H59.698 M63.879,23.448H27.25v97.104h36.629V23.448L63.879,23.448z"
					/>
			</g>
		</g>
	</g>
	<g id="vert_bottom" display="none">
		<g display="inline">
			<rect x="13.931" y="116.533" fill="#D1D1D1" width="116.139" height="12.656"/>
			<g>
				<rect x="80.122" y="44.258" fill="#D1D1D1" width="36.628" height="67.656"/>
				<g>
					<path fill="#D1D1D1" d="M59.698,18.991v88.741H31.431V18.991H59.698 M63.879,14.811H27.25v97.104h36.629V14.811L63.879,14.811z
						"/>
				</g>
			</g>
		</g>
	</g>
	<path fill="#D1D1D1" d="M123.12,21.984c-0.004-0.134-0.025-0.269-0.079-0.399c0-0.001-0.001-0.002-0.001-0.003
		c-0.005-0.011-0.013-0.019-0.019-0.029c-0.052-0.114-0.122-0.214-0.204-0.304c-0.027-0.029-0.06-0.054-0.091-0.081
		c-0.073-0.063-0.151-0.116-0.237-0.16c-0.037-0.02-0.071-0.038-0.111-0.053c-0.127-0.048-0.261-0.081-0.402-0.081H55.308
		c-0.152,0-0.304,0.031-0.443,0.088c-0.141,0.059-0.266,0.144-0.372,0.25L21.211,54.494c-0.001,0.002-0.002,0.004-0.003,0.006
		c-0.096,0.096-0.165,0.208-0.221,0.326c-0.018,0.035-0.025,0.072-0.039,0.109c-0.034,0.099-0.055,0.199-0.061,0.305
		c-0.002,0.024-0.016,0.046-0.016,0.071v66.661c0,0.638,0.517,1.152,1.152,1.152h66.665c0.442,0,0.814-0.258,1.009-0.623
		l32.789-32.791c0.332-0.169,0.561-0.49,0.611-0.875c0.004-0.014,0.006-0.027,0.008-0.041c0.004-0.036,0.021-0.068,0.021-0.105
		V22.027C123.128,22.012,123.12,21.998,123.12,21.984z M54.156,24.809v29.35h-29.35L54.156,24.809z M23.178,56.463l30.979,0.021
		v31.629l-30.979,30.984V56.463z M87.538,120.775l-62.734-0.047L55.687,89.84h31.852V120.775L87.538,120.775z M87.538,87.438H56.46
		V56.486l31.078,0.022V87.438z M88.212,54.157H56.46V23.179h62.736L88.212,54.157z M89.843,119.098V89.84h29.255L89.843,119.098z
		 M120.825,87.438H89.843v-31.65l30.982-30.979V87.438z"/>
</g>
<g id="front">
	<rect x="23.178" y="56.463" fill="#F58113" width="64.36" height="64.36"/>
</g>
<g id="right" display="none">
	<polygon display="inline" fill="#F58113" points="89.843,55.787 120.825,24.809 120.825,88.5 89.843,119.098 	"/>
</g>
<g id="left" display="none">
	<polygon display="inline" fill="#F58113" points="24.807,54.158 54.156,24.809 54.156,54.158 	"/>
	<polygon display="inline" fill="#F58113" points="23.178,56.463 54.157,56.484 54.157,88.113 23.178,119.098 	"/>
</g>
<g id="back" display="none">
	<polygon display="inline" fill="#F58113" points="56.46,23.179 119.196,23.179 88.212,54.157 56.46,54.157 	"/>
	<polygon display="inline" fill="#F58113" points="89.843,55.787 120.825,24.809 120.825,87.438 89.843,87.438 	"/>
	<rect x="56.46" y="56.486" display="inline" fill="#F58113" width="31.078" height="31.078"/>
</g>
<g id="botton" display="none">
	<polygon display="inline" fill="#F58113" points="55.687,89.84 87.538,89.84 87.538,120.775 24.804,120.729 	"/>
	<polygon display="inline" fill="#F58113" points="89.843,89.84 89.843,119.098 119.098,89.84 	"/>
</g>
<g id="top" display="none">
	<polygon display="inline" fill="#F58113" points="24.807,54.158 55.5,23 119.196,23.179 88.212,54.157 	"/>
</g>
</svg>
