<svg xmlns="http://www.w3.org/2000/svg" xmlns:xlink="http://www.w3.org/1999/xlink" version="1.1" id="Capa_34" x="0px" y="0px" width="100px" height="100px" viewBox="0 0 100 100" enable-background="new 0 0 100 100" xml:space="preserve">
<g>
	<rect y="79.516" width="5.954" height="5.155"/>
	<rect x="7.216" y="79.516" width="13.212" height="5.155"/>
	<rect y="73.098" width="13.209" height="5.155"/>
	<rect y="66.677" width="5.954" height="5.158"/>
	<rect x="7.216" y="66.677" width="13.212" height="5.158"/>
	<rect y="60.26" width="13.209" height="5.154"/>
	<rect y="53.842" width="5.954" height="5.155"/>
	<rect x="7.216" y="53.842" width="13.212" height="5.155"/>
	<polygon points="21.69,53.842 21.69,58.997 21.69,58.997 34.863,58.997 34.903,58.997 34.903,53.842 34.863,53.842 21.69,53.842     "/>
	<rect y="47.422" width="13.209" height="5.157"/>
	<rect y="41.003" width="5.954" height="5.156"/>
	<rect x="7.216" y="41.003" width="13.212" height="5.156"/>
	<polygon points="21.69,41.003 21.69,41.003 21.69,46.16 21.69,46.16 34.863,46.16 34.903,46.16 34.903,41.003 34.863,41.003  "/>
	<rect y="34.585" width="13.209" height="5.155"/>
	<rect y="28.167" width="5.954" height="5.155"/>
	<rect x="7.216" y="28.167" width="13.212" height="5.155"/>
	<polygon points="21.69,28.167 21.69,28.167 21.69,33.322 21.69,33.322 34.863,33.322 34.903,33.322 34.903,28.167 34.863,28.167     "/>
	<rect y="21.747" width="13.209" height="5.157"/>
	<rect x="14.475" y="21.747" width="13.209" height="5.157"/>
	<rect y="15.33" width="5.954" height="5.155"/>
	<rect x="7.216" y="15.33" width="13.212" height="5.155"/>
	<rect x="14.475" y="73.098" width="13.209" height="5.155"/>
	<rect x="14.475" y="60.26" width="13.209" height="5.154"/>
	<rect x="14.475" y="47.422" width="13.209" height="5.157"/>
	<rect x="14.475" y="34.585" width="13.209" height="5.155"/>
	<polygon points="34.863,20.485 34.903,20.485 34.903,15.33 34.863,15.33 21.69,15.33 21.69,15.33 21.69,20.485 21.69,20.485  "/>
	<polygon points="42.119,34.585 28.946,34.585 28.907,34.585 28.907,39.741 28.946,39.741 42.119,39.741 42.119,39.741    42.158,39.741 42.158,34.585 42.119,34.585  "/>
	<polygon points="42.119,21.747 28.946,21.747 28.907,21.747 28.907,26.904 28.946,26.904 42.119,26.904 42.119,26.904    42.158,26.904 42.158,21.747 42.119,21.747  "/>
	<polygon points="21.69,79.516 21.69,79.516 21.69,84.671 21.69,84.671 34.863,84.671 34.903,84.671 34.903,79.516 34.863,79.516     "/>
	<polygon points="36.165,79.516 36.125,79.516 36.125,84.671 36.165,84.671 49.335,84.671 49.377,84.671 49.377,79.516    49.335,79.516  "/>
	<polygon points="42.119,78.253 42.119,78.253 42.158,78.253 42.158,73.098 42.119,73.098 42.119,73.098 28.946,73.098    28.907,73.098 28.907,78.253 28.946,78.253  "/>
	<polygon points="34.863,71.835 34.903,71.835 34.903,66.677 34.863,66.677 21.69,66.677 21.69,66.677 21.69,71.835 21.69,71.835     "/>
	<polygon points="49.335,71.835 49.375,71.835 49.375,66.677 49.335,66.677 36.165,66.677 36.125,66.677 36.125,71.835    36.165,71.835  "/>
	<polygon points="42.119,65.414 42.119,65.414 42.158,65.414 42.158,60.26 42.119,60.26 42.119,60.26 28.946,60.26 28.907,60.26    28.907,65.414 28.946,65.414  "/>
	<polygon points="49.335,58.997 49.375,58.997 49.375,53.842 49.335,53.842 36.165,53.842 36.125,53.842 36.125,58.997    36.165,58.997  "/>
	<polygon points="28.946,47.422 28.907,47.422 28.907,52.579 28.946,52.579 42.119,52.579 42.119,52.579 42.158,52.579    42.158,47.422 42.119,47.422 42.119,47.422  "/>
	<polygon points="36.165,41.003 36.125,41.003 36.125,46.16 36.165,46.16 49.335,46.16 49.375,46.16 49.375,41.003 49.335,41.003     "/>
	<polygon points="50.6,41.003 50.597,41.003 50.597,46.16 50.6,46.16 63.77,46.16 63.81,46.16 63.81,41.003 63.77,41.003  "/>
	<polygon points="36.165,28.167 36.125,28.167 36.125,33.322 36.165,33.322 49.335,33.322 49.375,33.322 49.375,28.167    49.335,28.167  "/>
	<polygon points="50.6,28.167 50.597,28.167 50.597,33.322 50.6,33.322 63.77,33.322 63.81,33.322 63.81,28.167 63.77,28.167  "/>
	<rect x="43.381" y="21.747" width="13.211" height="5.157"/>
	<polygon points="49.335,20.485 49.377,20.485 49.377,15.33 49.335,15.33 36.165,15.33 36.125,15.33 36.125,20.485 36.165,20.485     "/>
	<rect x="43.381" y="73.098" width="13.211" height="5.155"/>
	<rect x="43.381" y="60.26" width="13.211" height="5.154"/>
	<rect x="43.381" y="47.422" width="13.211" height="5.157"/>
	<rect x="43.381" y="34.585" width="13.211" height="5.155"/>
	<polygon points="63.77,20.485 63.81,20.485 63.81,15.33 63.77,15.33 50.6,15.33 50.597,15.33 50.597,20.485 50.6,20.485  "/>
	<polygon points="71.025,21.747 57.855,21.747 57.816,21.747 57.816,26.904 57.855,26.904 71.025,26.904 71.028,26.904    71.065,26.904 71.065,21.747 71.028,21.747  "/>
	<polygon points="50.6,79.516 50.597,79.516 50.597,84.671 50.6,84.671 63.77,84.671 63.81,84.671 63.81,79.516 63.77,79.516  "/>
	<polygon points="65.072,79.516 65.032,79.516 65.032,84.671 65.072,84.671 78.244,84.671 78.284,84.671 78.284,79.516    78.244,79.516  "/>
	<polygon points="79.507,79.516 79.507,84.671 79.507,84.671 92.719,84.671 92.719,79.516 79.507,79.516  "/>
	<polygon points="71.025,78.253 71.028,78.253 71.065,78.253 71.065,73.098 71.028,73.098 71.025,73.098 57.855,73.098    57.816,73.098 57.816,78.253 57.855,78.253  "/>
	<polygon points="63.77,71.835 63.81,71.835 63.81,66.677 63.77,66.677 50.6,66.677 50.597,66.677 50.597,71.835 50.6,71.835  "/>
	<polygon points="78.244,71.835 78.284,71.835 78.284,66.677 78.244,66.677 65.072,66.677 65.032,66.677 65.032,71.835    65.072,71.835  "/>
	<polygon points="71.025,65.414 71.028,65.414 71.065,65.414 71.065,60.26 71.028,60.26 71.025,60.26 57.855,60.26 57.816,60.26    57.816,65.414 57.855,65.414  "/>
	<polygon points="63.77,58.997 63.81,58.997 63.81,53.842 63.77,53.842 50.6,53.842 50.597,53.842 50.597,58.997 50.6,58.997  "/>
	<polygon points="65.072,53.842 65.032,53.842 65.032,58.997 65.072,58.997 78.244,58.997 78.284,58.997 78.284,53.842    78.244,53.842  "/>
	<polygon points="79.507,53.842 79.507,53.842 79.507,58.997 79.507,58.997 92.719,58.997 92.719,53.842  "/>
	<polygon points="57.816,47.422 57.816,52.579 57.855,52.579 71.025,52.579 71.028,52.579 71.065,52.579 71.065,47.422    71.028,47.422 71.025,47.422 57.855,47.422  "/>
	<polygon points="65.072,41.003 65.032,41.003 65.032,46.16 65.072,46.16 78.244,46.16 78.284,46.16 78.284,41.003 78.244,41.003     "/>
	<polygon points="79.507,41.003 79.507,41.003 79.507,46.16 79.507,46.16 92.719,46.16 92.719,41.003  "/>
	<polygon points="71.025,39.741 71.028,39.741 71.065,39.741 71.065,34.585 71.028,34.585 71.025,34.585 57.855,34.585    57.816,34.585 57.816,39.741 57.855,39.741  "/>
	<polygon points="65.072,28.167 65.032,28.167 65.032,33.322 65.072,33.322 78.244,33.322 78.284,33.322 78.284,28.167    78.244,28.167  "/>
	<polygon points="79.507,28.167 79.507,28.167 79.507,33.322 79.507,33.322 92.719,33.322 92.719,28.167  "/>
	<rect x="72.291" y="21.747" width="13.209" height="5.157"/>
	<polygon points="78.244,20.485 78.284,20.485 78.284,15.33 78.244,15.33 65.072,15.33 65.032,15.33 65.032,20.485 65.072,20.485     "/>
	<rect x="93.981" y="79.516" width="5.953" height="5.155"/>
	<rect x="72.291" y="73.098" width="13.209" height="5.155"/>
	<polygon points="86.763,73.098 86.723,73.098 86.723,78.253 86.763,78.253 99.935,78.253 99.975,78.253 99.975,73.098    99.935,73.098  "/>
	<rect x="72.291" y="60.26" width="13.209" height="5.154"/>
	<rect x="72.291" y="47.422" width="13.209" height="5.157"/>
	<rect x="72.291" y="34.585" width="13.209" height="5.155"/>
	<polygon points="92.719,20.485 92.719,15.33 79.507,15.33 79.507,15.33 79.507,20.485 79.507,20.485  "/>
	<rect x="93.981" y="15.33" width="5.953" height="5.155"/>
	<polygon points="99.935,28.167 93.981,28.167 93.981,33.322 99.935,33.322 100,33.322 100,28.167  "/>
	<polygon points="92.719,71.835 92.719,66.677 79.507,66.677 79.507,66.677 79.507,71.835 79.507,71.835  "/>
	<polygon points="93.981,66.677 93.981,71.835 99.935,71.835 100,71.835 100,66.677 99.935,66.677  "/>
	<polygon points="99.975,65.414 99.975,60.26 99.935,60.26 86.763,60.26 86.723,60.26 86.723,65.414 86.763,65.414 99.935,65.414     "/>
	<polygon points="93.981,53.842 93.981,58.997 99.935,58.997 100,58.997 100,53.842 99.935,53.842  "/>
	<polygon points="99.975,52.579 99.975,47.422 99.935,47.422 86.763,47.422 86.723,47.422 86.723,52.579 86.763,52.579    99.935,52.579  "/>
	<polygon points="93.981,41.003 93.981,46.16 99.935,46.16 100,46.16 100,41.003 99.935,41.003  "/>
	<polygon points="99.975,39.741 99.975,34.585 99.935,34.585 86.763,34.585 86.723,34.585 86.723,39.741 86.763,39.741    99.935,39.741  "/>
	<polygon points="99.975,26.904 99.975,21.747 99.935,21.747 86.763,21.747 86.723,21.747 86.723,26.904 86.763,26.904    99.935,26.904  "/>
</g>
</svg>