<svg xmlns="http://www.w3.org/2000/svg" xmlns:xlink="http://www.w3.org/1999/xlink" version="1.1" id="Capa_1" x="0px" y="0px" width="100px" height="100px" viewBox="0 0 100 100" enable-background="new 0 0 100 100" xml:space="preserve">
<g id="Capa_20">
	<g>
		<rect y="81.805" width="6.417" height="5.557"/>
		<rect x="7.777" y="81.805" width="14.236" height="5.557"/>
		<polygon points="23.374,81.805 23.374,87.361 23.376,87.361 37.611,87.361 37.611,81.805 23.376,81.805   "/>
		<rect y="74.891" width="14.236" height="5.555"/>
		<rect y="67.973" width="6.417" height="5.558"/>
		<rect x="7.777" y="67.973" width="14.236" height="5.558"/>
		<rect y="61.055" width="14.236" height="5.557"/>
		<rect y="54.139" width="6.417" height="5.557"/>
		<rect x="7.777" y="54.139" width="14.236" height="5.557"/>
		<polygon points="23.374,54.139 23.374,59.693 23.376,59.693 37.611,59.693 37.611,54.139 23.376,54.139   "/>
		<rect y="47.222" width="14.236" height="5.557"/>
		<rect y="40.305" width="6.417" height="5.557"/>
		<rect x="7.777" y="40.305" width="14.236" height="5.557"/>
		<polygon points="23.374,40.305 23.374,45.861 23.376,45.861 37.611,45.861 37.611,40.305 23.376,40.305   "/>
		<rect y="33.389" width="14.236" height="5.556"/>
		<rect y="26.472" width="6.417" height="5.555"/>
		<rect x="7.777" y="26.472" width="14.236" height="5.555"/>
		<polygon points="23.374,26.472 23.374,32.026 23.376,32.026 37.611,32.026 37.611,26.472 23.376,26.472   "/>
		<rect y="19.554" width="14.236" height="5.557"/>
		<rect x="15.598" y="19.554" width="14.236" height="5.557"/>
		<rect y="12.639" width="6.417" height="5.555"/>
		<rect x="7.777" y="12.639" width="14.236" height="5.555"/>
		<rect x="70.166" y="81.805" width="14.236" height="5.557"/>
		<rect x="85.766" y="81.805" width="14.234" height="5.557"/>
		<rect x="62.348" y="74.891" width="14.235" height="5.555"/>
		<rect x="77.945" y="74.891" width="14.234" height="5.555"/>
		<rect x="93.542" y="74.891" width="6.458" height="5.555"/>
		<rect x="85.766" y="67.973" width="14.234" height="5.558"/>
		<rect x="93.542" y="61.055" width="6.458" height="5.557"/>
		<rect x="85.766" y="54.139" width="14.234" height="5.557"/>
		<rect x="38.972" y="81.805" width="14.238" height="5.557"/>
		<polygon points="54.568,81.805 54.568,87.361 68.807,87.361 68.809,87.361 68.809,81.805 68.807,81.805   "/>
		<rect x="15.598" y="74.891" width="14.236" height="5.555"/>
		<polygon points="45.39,80.445 45.431,80.445 45.431,74.891 45.39,74.891 31.194,74.891 31.151,74.891 31.151,80.445     31.194,80.445   "/>
		<polygon points="46.749,74.891 46.749,80.445 46.792,80.445 60.986,80.445 61.027,80.445 61.027,74.891 60.986,74.891     46.792,74.891   "/>
		<polygon points="37.611,67.973 23.376,67.973 23.374,67.973 23.374,73.529 23.376,73.529 37.611,73.529   "/>
		<rect x="15.598" y="61.055" width="14.236" height="5.557"/>
		<polygon points="31.151,61.055 31.151,66.611 31.194,66.611 45.39,66.611 45.431,66.611 45.431,61.055 45.39,61.055     31.194,61.055   "/>
		<rect x="93.542" y="47.222" width="6.458" height="5.557"/>
		<rect x="85.766" y="40.305" width="14.234" height="5.557"/>
		<rect x="93.542" y="33.389" width="6.458" height="5.556"/>
		<rect x="85.766" y="26.472" width="14.234" height="5.555"/>
		<rect x="15.598" y="47.222" width="14.236" height="5.557"/>
		<polygon points="45.431,52.777 45.431,47.222 45.39,47.222 31.194,47.222 31.151,47.222 31.151,52.777 31.194,52.777     45.39,52.777   "/>
		<rect x="15.598" y="33.389" width="14.236" height="5.556"/>
		<polygon points="45.431,38.944 45.431,33.389 45.39,33.389 31.194,33.389 31.151,33.389 31.151,38.944 31.194,38.944     45.39,38.944   "/>
		<rect x="93.542" y="19.554" width="6.458" height="5.557"/>
		<rect x="70.166" y="12.639" width="14.236" height="5.555"/>
		<rect x="85.766" y="12.639" width="14.234" height="5.555"/>
		<polygon points="45.431,25.11 45.431,19.554 45.39,19.554 31.194,19.554 31.151,19.554 31.151,25.11 31.194,25.11 45.39,25.11       "/>
		<polygon points="37.611,18.193 37.611,12.639 23.376,12.639 23.374,12.639 23.374,18.193 23.376,18.193   "/>
		<rect x="38.972" y="12.639" width="14.238" height="5.555"/>
		<polygon points="68.809,18.193 68.809,12.639 68.807,12.639 54.568,12.639 54.568,18.193 68.807,18.193   "/>
		<path d="M82.675,21.646H48.407v49.776h34.268V21.646z M64.016,68.055h-12.23v-12.27h12.23V68.055z M64.016,52.693h-12.23V40.375    h12.23V52.693z M64.016,37.283h-12.23v-12.27h12.23V37.283z M79.296,68.055H67.066v-12.27h12.229V68.055z M79.296,52.693H67.066    V40.375h12.229V52.693z M79.296,37.283H67.066v-12.27h12.229V37.283z"/>
		<rect x="85.746" y="19.554" width="6.436" height="5.557"/>
		<rect x="85.746" y="33.389" width="6.436" height="5.556"/>
		<rect x="38.972" y="26.472" width="6.487" height="5.555"/>
		<rect x="38.972" y="40.305" width="6.487" height="5.557"/>
		<rect x="38.972" y="54.139" width="6.487" height="5.557"/>
		<rect x="38.972" y="67.973" width="6.487" height="5.558"/>
		<rect x="85.746" y="61.055" width="6.436" height="5.557"/>
		<rect x="85.746" y="47.222" width="6.436" height="5.557"/>
	</g>
</g>
</svg>