<?xml version="1.0" encoding="UTF-8" standalone="no"?>
<!-- Created with Inkscape (http://www.inkscape.org/) -->

<svg
   xmlns:dc="http://purl.org/dc/elements/1.1/"
   xmlns:cc="http://creativecommons.org/ns#"
   xmlns:rdf="http://www.w3.org/1999/02/22-rdf-syntax-ns#"
   xmlns:svg="http://www.w3.org/2000/svg"
   xmlns="http://www.w3.org/2000/svg"
   version="1.1"
   width="134.60884"
   height="159.51036"
   id="svg2">
  <defs
     id="defs4">
    <clipPath
       id="clipPath3020">
      <path
         d="M 0,1276.08 0,0 l 5286.98,0 0,1276.08 -5286.98,0 z"
         id="path3022" />
    </clipPath>
  </defs>
  <metadata
     id="metadata7">
    <rdf:RDF>
      <cc:Work
         rdf:about="">
        <dc:format>image/svg+xml</dc:format>
        <dc:type
           rdf:resource="http://purl.org/dc/dcmitype/StillImage" />
        <dc:title></dc:title>
      </cc:Work>
    </rdf:RDF>
  </metadata>
  <g
     transform="translate(-15.278034,-21.178296)"
     id="layer1">
    <path
       d="m 78.173534,106.24424 2.02975,1.25975 c 0.728125,0.45312 1.55275,0.67775 2.380375,0.67775 0.82575,0 1.653375,-0.22463 2.383375,-0.68113 l 2.03225,-1.26462 20.605376,12.75975 -27.512126,17.13287 c -1.32725,0.82362 -2.132875,2.27775 -2.1265,3.84512 l 0.0805,28.07713 -49.7045,-30.86425 49.8315,-30.94237 z m -54.032225,-33.549255 45.479975,28.239755 -45.479975,28.23824 0,-56.477995 z M 149.77678,100.84286 c -0.004,-1.63325 -0.8925,-3.139625 -2.32625,-3.933 -1.43,-0.792 -3.17875,-0.747125 -4.5675,0.117125 L 116.14966,113.67499 95.546534,100.91611 147.75553,68.401485 c 1.325,-0.825125 2.13125,-2.275375 2.13125,-3.836375 -0.004,-1.557625 -0.8125,-3.008375 -2.1375,-3.829625 L 84.958159,21.85486 c -1.4575,-0.90375 -3.29825,-0.90125 -4.754875,0.0025 L 17.410359,60.848735 c -1.325196,0.82175 -2.132325,2.272 -2.132325,3.833 0,0.40575 0,72.098625 0,72.504875 0,1.56063 0.807129,3.01025 2.132325,3.8345 l 62.792925,38.98976 c 0.03075,0.019 0.0625,0.0303 0.09288,0.0479 0.03462,0.0186 0.06337,0.0449 0.09913,0.0659 0.07075,0.0376 0.1455,0.0664 0.219625,0.10253 0.07325,0.0376 0.145,0.0737 0.22225,0.10645 0.117125,0.0474 0.23675,0.0889 0.356375,0.125 0.07088,0.0249 0.13925,0.0513 0.2115,0.0688 0.13425,0.041 0.271875,0.0625 0.408625,0.0884 0.05712,0.0117 0.11725,0.0254 0.17575,0.0288 0.196875,0.0303 0.3955,0.044 0.592375,0.044 l 0,0 c 0,0 0.001,0 0.0019,0 0.40925,0 0.821875,-0.0576 1.21825,-0.16748 0.004,-0.004 0.0064,-0.004 0.0064,-0.004 0.153875,-0.041 0.30525,-0.10254 0.454125,-0.16113 0.04487,-0.0186 0.09275,-0.0298 0.13675,-0.0474 0.126,-0.0552 0.242625,-0.12891 0.36225,-0.19532 0.066,-0.0361 0.13575,-0.0649 0.20075,-0.10254 l 0.0019,-0.003 c 0.003,0 0.003,0 0.003,0 l 0.120625,-0.0762 62.665366,-38.91018 c 1.33126,-0.82763 2.13625,-2.28175 2.13375,-3.84913 l -0.11,-36.32912"
       id="path3024"
       style="fill:#231f20;fill-opacity:1;fill-rule:nonzero;stroke:none" />
    <path
       d="m 86.994284,142.45673 0.07725,25.623 53.783996,-33.398 -0.075,-25.71624 -53.786246,33.49124"
       id="path3026"
       style="fill:#ffffff;fill-opacity:1;fill-rule:nonzero;stroke:none" />
    <path
       d="M 28.342034,64.681735 82.581784,98.359985 136.82103,64.58311 82.586659,30.99736 28.342034,64.681735"
       id="path3028"
       style="fill:#f58113;fill-opacity:1;fill-rule:nonzero;stroke:none" />
  </g>
</svg>
